<svg width="194" height="58" viewBox="0 0 194 58" fill="none" xmlns="http://www.w3.org/2000/svg">
<g id="Cross Finance @ Logotype Main Color">
<path fill-rule="evenodd" clip-rule="evenodd" d="M56.7321 12.6231L46.7507 6.84485L38.3191 11.6756V5.75754L28.3531 0L18.4182 5.75754V11.7377L9.88847 6.84485L0 12.6283V24.1382L8.38505 29.0155L0 33.8929V45.3096L9.88847 51.1862L18.3148 46.3296V52.3149L28.3015 58L38.3294 52.3149L38.3088 46.3296L46.7558 51.1862L56.7321 45.3096V33.8929L48.3109 29.0155L56.7321 24.1382V12.6231ZM46.7507 8.65185L54.3917 13.0736L37.5493 22.7868L33.2095 20.2653L38.3191 17.314V13.4774L46.7507 8.65185ZM19.9784 7.55936L27.5782 11.9655V20.8141L26.5707 20.2291L25.0105 19.3282L19.9784 16.4131V7.55936ZM36.7589 16.4131L30.0942 20.2601L29.1384 20.8141V11.9655L36.7589 7.55936V16.4131ZM28.3583 10.609L20.7586 6.208L28.3583 1.80182L35.9736 6.208L28.3583 10.609ZM9.8988 8.65185L18.4182 13.5395V17.314L23.4606 20.2342L19.095 22.7816L2.33521 13.0736L9.8988 8.65185ZM1.56025 23.2373V14.4301L17.5399 23.6877L9.94013 28.1094L1.56025 23.2373ZM9.11351 48.9081L1.56025 44.419V35.7051L9.11351 40.1216V48.9081ZM2.33004 34.3433L19.1001 24.5886L26.7361 28.9327L9.89364 38.765L2.33004 34.3433ZM27.5214 55.7581L19.8751 51.4089V45.4287L27.5214 41.0225V55.7581ZM27.5214 39.2207L10.6738 48.9288V40.1216L27.5214 30.2841V39.2207ZM20.6604 23.6774L25.0157 21.1352L28.3531 23.0716L31.6545 21.1662L35.9787 23.6774L28.3015 28.0266L20.6604 23.6774ZM29.0816 55.7633V41.0225L36.7485 45.4287L36.764 51.4089L29.0816 55.7633ZM45.9705 48.9339L29.0816 39.2155V30.2841L45.9705 40.1216V48.9339ZM55.1719 44.419L47.5308 48.9184V40.1216L55.1719 35.6947V44.419ZM54.3969 34.3433L46.7507 38.765L29.8669 28.9327L37.5441 24.5886L54.3969 34.3433ZM55.1719 23.2373L46.7507 28.1146L39.1096 23.6877L55.1719 14.4249V23.2373Z" fill="#0CC2FF"/>
<path d="M81.9858 11.2147C82.1037 11.2147 82.2167 11.2617 82.3001 11.3452L84.1962 13.2455C84.2796 13.329 84.3264 13.4423 84.3264 13.5605V16.5417C84.3264 16.7877 84.1274 16.9871 83.8819 16.9871H82.1776C81.9321 16.9871 81.7331 16.7877 81.7331 16.5417V14.6274C81.7331 14.5093 81.6863 14.396 81.6029 14.3124L81.2355 13.9442C81.1521 13.8606 81.039 13.8137 80.9212 13.8137H74.0827C73.9649 13.8137 73.8518 13.8606 73.7684 13.9442L73.401 14.3124C73.3176 14.396 73.2708 14.5093 73.2708 14.6274V23.695C73.2708 23.8132 73.3176 23.9265 73.401 24.01L73.7684 24.3783C73.8518 24.4618 73.9649 24.5088 74.0827 24.5088H80.9212C81.039 24.5088 81.1521 24.4618 81.2355 24.3783L81.6029 24.01C81.6863 23.9265 81.7331 23.8132 81.7331 23.695V21.7808C81.7331 21.5347 81.9321 21.3353 82.1776 21.3353H83.8819C84.1274 21.3353 84.3264 21.5347 84.3264 21.7808V24.762C84.3264 24.8801 84.2796 24.9934 84.1962 25.077L82.3001 26.9772C82.2167 27.0608 82.1037 27.1077 81.9858 27.1077H73.0181C72.9002 27.1077 72.7872 27.0608 72.7038 26.9772L70.8077 25.077C70.7243 24.9934 70.6775 24.8801 70.6775 24.762V13.5605C70.6775 13.4423 70.7243 13.329 70.8077 13.2455L72.7038 11.3452C72.7872 11.2617 72.9002 11.2147 73.0181 11.2147H81.9858Z" fill="white"/>
<path d="M100.265 11.2147C100.383 11.2147 100.496 11.2617 100.579 11.3452L102.475 13.2455C102.559 13.329 102.605 13.4423 102.605 13.5605V18.9895C102.605 19.1077 102.559 19.221 102.475 19.3045L100.579 21.2048C100.496 21.2884 100.383 21.3353 100.265 21.3353H97.9186C97.5226 21.3353 97.3243 21.8151 97.6043 22.0958L101.847 26.3472C102.127 26.6279 101.928 27.1077 101.532 27.1077H99.1316C99.0137 27.1077 98.9006 27.0608 98.8172 26.9772L93.3178 21.4658C93.2344 21.3822 93.1214 21.3353 93.0035 21.3353H91.9942C91.7487 21.3353 91.5497 21.5347 91.5497 21.7808V26.6622C91.5497 26.9083 91.3507 27.1077 91.1052 27.1077H89.4009C89.1554 27.1077 88.9564 26.9083 88.9564 26.6622V11.6602C88.9564 11.4142 89.1554 11.2147 89.4009 11.2147H100.265ZM99.8819 18.2376C99.9652 18.1541 100.012 18.0408 100.012 17.9226V14.6274C100.012 14.5093 99.9652 14.396 99.8819 14.3124L99.5144 13.9442C99.431 13.8606 99.318 13.8137 99.2001 13.8137H91.9942C91.7487 13.8137 91.5497 14.0131 91.5497 14.2592V18.2909C91.5497 18.5369 91.7487 18.7363 91.9942 18.7363H99.2001C99.318 18.7363 99.431 18.6894 99.5144 18.6059L99.8819 18.2376Z" fill="white"/>
<path d="M118.544 11.2147C118.662 11.2147 118.775 11.2617 118.858 11.3452L120.754 13.2455C120.837 13.329 120.884 13.4423 120.884 13.5605V24.762C120.884 24.8801 120.837 24.9934 120.754 25.077L118.858 26.9772C118.775 27.0608 118.662 27.1077 118.544 27.1077H109.576C109.458 27.1077 109.345 27.0608 109.262 26.9772L107.366 25.077C107.282 24.9934 107.235 24.8801 107.235 24.762V13.5605C107.235 13.4423 107.282 13.329 107.366 13.2455L109.262 11.3452C109.345 11.2617 109.458 11.2147 109.576 11.2147H118.544ZM118.161 24.01C118.244 23.9265 118.291 23.8132 118.291 23.695V14.6274C118.291 14.5093 118.244 14.396 118.161 14.3124L117.793 13.9442C117.71 13.8606 117.597 13.8137 117.479 13.8137H110.641C110.523 13.8137 110.41 13.8606 110.326 13.9442L109.959 14.3124C109.875 14.396 109.829 14.5093 109.829 14.6274V23.695C109.829 23.8132 109.875 23.9265 109.959 24.01L110.326 24.3783C110.41 24.4618 110.523 24.5088 110.641 24.5088H117.479C117.597 24.5088 117.71 24.4618 117.793 24.3783L118.161 24.01Z" fill="white"/>
<path d="M136.823 11.2147C136.94 11.2147 137.054 11.2617 137.137 11.3452L139.033 13.2455C139.116 13.329 139.163 13.4423 139.163 13.5605V15.803C139.163 16.0491 138.964 16.2485 138.719 16.2485H137.014C136.769 16.2485 136.57 16.0491 136.57 15.803V14.6274C136.57 14.5093 136.523 14.396 136.44 14.3124L136.072 13.9442C135.989 13.8606 135.876 13.8137 135.758 13.8137H128.92C128.802 13.8137 128.689 13.8606 128.605 13.9442L128.238 14.3124C128.154 14.396 128.108 14.5093 128.108 14.6274V17.0703C128.108 17.1885 128.154 17.3018 128.238 17.3853L128.605 17.7536C128.689 17.8371 128.802 17.8841 128.92 17.8841H136.823C136.94 17.8841 137.054 17.931 137.137 18.0146L139.033 19.9148C139.116 19.9984 139.163 20.1117 139.163 20.2298V24.762C139.163 24.8801 139.116 24.9934 139.033 25.077L137.137 26.9772C137.054 27.0608 136.94 27.1077 136.823 27.1077H127.855C127.737 27.1077 127.624 27.0608 127.541 26.9772L125.644 25.077C125.561 24.9934 125.514 24.8801 125.514 24.762V22.5194C125.514 22.2734 125.713 22.0739 125.959 22.0739H127.663C127.909 22.0739 128.108 22.2734 128.108 22.5194V23.695C128.108 23.8132 128.154 23.9265 128.238 24.01L128.605 24.3783C128.689 24.4618 128.802 24.5088 128.92 24.5088H135.758C135.876 24.5088 135.989 24.4618 136.072 24.3783L136.44 24.01C136.523 23.9265 136.57 23.8132 136.57 23.695V21.2968C136.57 21.1786 136.523 21.0653 136.44 20.9818L136.072 20.6135C135.989 20.53 135.876 20.483 135.758 20.483H127.855C127.737 20.483 127.624 20.4361 127.541 20.3526L125.644 18.4523C125.561 18.3687 125.514 18.2554 125.514 18.1373V13.5605C125.514 13.4423 125.561 13.329 125.644 13.2455L127.541 11.3452C127.624 11.2617 127.737 11.2147 127.855 11.2147H136.823Z" fill="white"/>
<path d="M155.101 11.2147C155.219 11.2147 155.332 11.2617 155.416 11.3452L157.312 13.2455C157.395 13.329 157.442 13.4423 157.442 13.5605V15.803C157.442 16.0491 157.243 16.2485 156.998 16.2485H155.293C155.048 16.2485 154.849 16.0491 154.849 15.803V14.6274C154.849 14.5093 154.802 14.396 154.719 14.3124L154.351 13.9442C154.268 13.8606 154.155 13.8137 154.037 13.8137H147.198C147.081 13.8137 146.968 13.8606 146.884 13.9442L146.517 14.3124C146.433 14.396 146.386 14.5093 146.386 14.6274V17.0703C146.386 17.1885 146.433 17.3018 146.517 17.3853L146.884 17.7536C146.968 17.8371 147.081 17.8841 147.198 17.8841H155.101C155.219 17.8841 155.332 17.931 155.416 18.0146L157.312 19.9148C157.395 19.9984 157.442 20.1117 157.442 20.2298V24.762C157.442 24.8801 157.395 24.9934 157.312 25.077L155.416 26.9772C155.332 27.0608 155.219 27.1077 155.101 27.1077H146.134C146.016 27.1077 145.903 27.0608 145.82 26.9772L143.923 25.077C143.84 24.9934 143.793 24.8801 143.793 24.762V22.5194C143.793 22.2734 143.992 22.0739 144.238 22.0739H145.942C146.187 22.0739 146.386 22.2734 146.386 22.5194V23.695C146.386 23.8132 146.433 23.9265 146.517 24.01L146.884 24.3783C146.968 24.4618 147.081 24.5088 147.198 24.5088H154.037C154.155 24.5088 154.268 24.4618 154.351 24.3783L154.719 24.01C154.802 23.9265 154.849 23.8132 154.849 23.695V21.2968C154.849 21.1786 154.802 21.0653 154.719 20.9818L154.351 20.6135C154.268 20.53 154.155 20.483 154.037 20.483H146.134C146.016 20.483 145.903 20.4361 145.82 20.3526L143.923 18.4523C143.84 18.3687 143.793 18.2554 143.793 18.1373V13.5605C143.793 13.4423 143.84 13.329 143.923 13.2455L145.82 11.3452C145.903 11.2617 146.016 11.2147 146.134 11.2147H155.101Z" fill="white"/>
<path d="M74.0827 34.609C73.9649 34.609 73.8518 34.6559 73.7684 34.7395L73.401 35.1078C73.3176 35.1913 73.2708 35.3046 73.2708 35.4227V37.2043C73.2708 37.4504 73.4698 37.6498 73.7153 37.6498H81.0156C81.2611 37.6498 81.4601 37.8493 81.4601 38.0953V39.8033C81.4601 40.0493 81.2611 40.2488 81.0156 40.2488H73.7153C73.4698 40.2488 73.2708 40.4482 73.2708 40.6942V46.34C73.2708 46.5861 73.0718 46.7855 72.8263 46.7855H71.122C70.8765 46.7855 70.6775 46.5861 70.6775 46.34V34.3558C70.6775 34.2377 70.7243 34.1244 70.8077 34.0408L72.7038 32.1405C72.7872 32.057 72.9002 32.0101 73.0181 32.0101H83.8819C84.1274 32.0101 84.3264 32.2095 84.3264 32.4555V34.1635C84.3264 34.4096 84.1274 34.609 83.8819 34.609H74.0827Z" fill="white"/>
<path d="M97.5357 34.609C97.2902 34.609 97.0912 34.8085 97.0912 35.0545V43.7411C97.0912 43.9871 97.2902 44.1866 97.5357 44.1866H102.161C102.406 44.1866 102.605 44.386 102.605 44.632V46.34C102.605 46.5861 102.406 46.7855 102.161 46.7855H89.4009C89.1554 46.7855 88.9564 46.5861 88.9564 46.34V44.632C88.9564 44.386 89.1554 44.1866 89.4009 44.1866H94.0534C94.2989 44.1866 94.4979 43.9871 94.4979 43.7411V35.0545C94.4979 34.8085 94.2989 34.609 94.0534 34.609H89.4009C89.1554 34.609 88.9564 34.4096 88.9564 34.1635V32.4555C88.9564 32.2095 89.1554 32.0101 89.4009 32.0101H102.161C102.406 32.0101 102.605 32.2095 102.605 32.4555V34.1635C102.605 34.4096 102.406 34.609 102.161 34.609H97.5357Z" fill="white"/>
<path d="M118.291 32.4555C118.291 32.2095 118.49 32.0101 118.735 32.0101H120.44C120.685 32.0101 120.884 32.2095 120.884 32.4555V46.34C120.884 46.5861 120.685 46.7855 120.44 46.7855H118.498C118.367 46.7855 118.242 46.7271 118.158 46.6261L110.614 37.6003C110.347 37.2814 109.829 37.4703 109.829 37.8864V46.34C109.829 46.5861 109.63 46.7855 109.384 46.7855H107.68C107.434 46.7855 107.235 46.5861 107.235 46.34V32.4555C107.235 32.2095 107.434 32.0101 107.68 32.0101H109.605C109.745 32.0101 109.878 32.0771 109.962 32.1906L117.489 42.3903C117.744 42.7358 118.291 42.5551 118.291 42.1255V32.4555Z" fill="white"/>
<path d="M136.823 32.0101C136.94 32.0101 137.054 32.057 137.137 32.1405L139.033 34.0408C139.116 34.1244 139.163 34.2377 139.163 34.3558V46.34C139.163 46.5861 138.964 46.7855 138.719 46.7855H137.014C136.769 46.7855 136.57 46.5861 136.57 46.34V43.5941C136.57 43.3481 136.371 43.1486 136.125 43.1486H128.552C128.307 43.1486 128.108 43.3481 128.108 43.5941V46.34C128.108 46.5861 127.909 46.7855 127.663 46.7855H125.959C125.713 46.7855 125.514 46.5861 125.514 46.34V34.3558C125.514 34.2377 125.561 34.1244 125.644 34.0408L127.541 32.1405C127.624 32.057 127.737 32.0101 127.855 32.0101H136.823ZM128.108 40.1042C128.108 40.3502 128.307 40.5497 128.552 40.5497H136.125C136.371 40.5497 136.57 40.3502 136.57 40.1042V35.4227C136.57 35.3046 136.523 35.1913 136.44 35.1078L136.072 34.7395C135.989 34.6559 135.876 34.609 135.758 34.609H128.92C128.802 34.609 128.689 34.6559 128.605 34.7395L128.238 35.1078C128.154 35.1913 128.108 35.3046 128.108 35.4227V40.1042Z" fill="white"/>
<path d="M154.849 32.4555C154.849 32.2095 155.048 32.0101 155.293 32.0101H156.998C157.243 32.0101 157.442 32.2095 157.442 32.4555V46.34C157.442 46.5861 157.243 46.7855 156.998 46.7855H155.056C154.925 46.7855 154.8 46.7271 154.716 46.6261L147.172 37.6003C146.905 37.2814 146.386 37.4703 146.386 37.8864V46.34C146.386 46.5861 146.187 46.7855 145.942 46.7855H144.238C143.992 46.7855 143.793 46.5861 143.793 46.34V32.4555C143.793 32.2095 143.992 32.0101 144.238 32.0101H146.18C146.311 32.0101 146.435 32.0681 146.52 32.1686L154.064 41.1465C154.331 41.4643 154.849 41.275 154.849 40.8596V32.4555Z" fill="white"/>
<path d="M173.38 32.0101C173.498 32.0101 173.611 32.057 173.695 32.1405L175.591 34.0408C175.674 34.1244 175.721 34.2377 175.721 34.3558V37.337C175.721 37.583 175.522 37.7825 175.277 37.7825H173.572C173.327 37.7825 173.128 37.583 173.128 37.337V35.4228C173.128 35.3046 173.081 35.1913 172.998 35.1078L172.63 34.7395C172.547 34.6559 172.434 34.609 172.316 34.609H165.477C165.359 34.609 165.246 34.6559 165.163 34.7395L164.796 35.1078C164.712 35.1913 164.665 35.3046 164.665 35.4227V43.3728C164.665 43.491 164.712 43.6043 164.796 43.6878L165.163 44.0561C165.246 44.1396 165.359 44.1866 165.477 44.1866H172.316C172.434 44.1866 172.547 44.1396 172.63 44.0561L172.998 43.6878C173.081 43.6043 173.128 43.491 173.128 43.3728V41.4586C173.128 41.2125 173.327 41.0131 173.572 41.0131H175.277C175.522 41.0131 175.721 41.2125 175.721 41.4586V44.4398C175.721 44.5579 175.674 44.6712 175.591 44.7547L173.695 46.655C173.611 46.7386 173.498 46.7855 173.38 46.7855H164.413C164.295 46.7855 164.182 46.7386 164.098 46.655L162.202 44.7547C162.119 44.6712 162.072 44.5579 162.072 44.4398V34.3558C162.072 34.2377 162.119 34.1244 162.202 34.0408L164.098 32.1405C164.182 32.057 164.295 32.0101 164.413 32.0101H173.38Z" fill="white"/>
<path d="M183.756 34.609C183.638 34.609 183.525 34.6559 183.442 34.7395L183.075 35.1078C182.991 35.1913 182.944 35.3046 182.944 35.4227V37.667C182.944 37.913 183.143 38.1124 183.389 38.1124H190.689C190.935 38.1124 191.134 38.3119 191.134 38.5579V40.2659C191.134 40.5119 190.935 40.7114 190.689 40.7114H183.389C183.143 40.7114 182.944 40.9108 182.944 41.1569V43.7411C182.944 43.9871 183.143 44.1866 183.389 44.1866H193.555C193.801 44.1866 194 44.386 194 44.632V46.34C194 46.5861 193.801 46.7855 193.555 46.7855H180.796C180.55 46.7855 180.351 46.5861 180.351 46.34V34.3558C180.351 34.2377 180.398 34.1244 180.481 34.0408L182.377 32.1405C182.461 32.057 182.574 32.0101 182.692 32.0101H193.555C193.801 32.0101 194 32.2095 194 32.4555V34.1635C194 34.4096 193.801 34.609 193.555 34.609H183.756Z" fill="white"/>
</g>
</svg>
