<svg xmlns="http://www.w3.org/2000/svg" fill="none" viewBox="0 0 211 211">
  <path fill="#000" d="M146.418 105.509h-39.451v39.451h39.451v-39.451ZM67.4976 66.0366c21.7731 0 39.4504 17.6775 39.4504 39.4504H67.4976V66.0366Zm-.0001 39.4724L44.7212 144.96h45.5526l-22.7763-39.451Zm79.0665-.034c10.887 0 19.712-8.8261 19.712-19.7131 0-10.8869-8.825-19.7126-19.712-19.7126s-19.713 8.8257-19.713 19.7126c0 10.887 8.826 19.7131 19.713 19.7131Z"/>
  <path fill="#000" d="M105.5 210.997c-28.1799 0-54.674-10.972-74.5993-30.901C10.9723 160.171 0 133.677 0 105.497c0-28.1801 10.9723-54.671 30.9007-74.5963C50.826 10.9723 77.3201 0 105.5 0c28.18 0 54.674 10.9723 74.599 30.9007C200.025 50.826 211 77.3201 211 105.5c0 28.18-10.972 54.674-30.901 74.599C160.174 200.025 133.68 211 105.5 211v-.003Zm0-197.9262c-24.6876 0-47.8988 9.6134-65.3541 27.0719S13.074 80.8093 13.074 105.497c0 24.687 9.6134 47.899 27.0719 65.354 17.4584 17.458 40.6665 27.072 65.3541 27.072 24.688 0 47.899-9.614 65.354-27.072s27.072-40.667 27.072-65.354c0-24.6877-9.613-47.899-27.072-65.3543-17.458-17.4553-40.666-27.0719-65.354-27.0719Z"/>
</svg>