<?xml version="1.0" encoding="UTF-8"?>
<svg id="Layer_2" xmlns="http://www.w3.org/2000/svg" viewBox="0 0 119.02 86.95">
  <defs>
    <style>
      .cls-1 {
        fill: #e2cf9f;
      }

      .cls-2 {
        fill: #1e1e1e;
      }

      .cls-3 {
        fill: #3e3e3e;
      }

      .cls-4 {
        fill: #4fb848;
      }

      .cls-5 {
        fill: #87d381;
      }

      .cls-6 {
        fill: #e5c46b;
      }
    </style>
  </defs>
  <rect x="92.4866" y="37.2922" width="4.1219" height="4.1219"/>
  <rect x="92.4866" y="33.1695" width="4.1219" height="4.1227"/>
  <rect x="92.4866" y="29.0476" width="4.1219" height="4.1219"/>
  <rect x="92.4866" y="24.9257" width="4.1219" height="4.1219"/>
  <rect x="92.4866" y="20.803" width="4.1219" height="4.1227"/>
  <rect x="92.4866" y="16.6811" width="4.1219" height="4.1219"/>
  <rect x="92.4866" y="12.5593" width="4.1219" height="4.1219"/>
  <rect x="92.4866" y="8.4374" width="4.1219" height="4.1219"/>
  <rect x="88.3648" y="62.0243" width="4.1219" height="4.1227"/>
  <rect x="88.3648" y="57.9024" width="4.1219" height="4.1219"/>
  <rect x="88.3648" y="53.7805" width="4.1219" height="4.1219"/>
  <rect x="88.3648" y="49.6587" width="4.1219" height="4.1219"/>
  <rect x="88.3648" y="45.5359" width="4.1219" height="4.1227"/>
  <rect x="88.3648" y="41.4141" width="4.1219" height="4.1219"/>
  <rect class="cls-3" x="88.3648" y="37.2922" width="4.1219" height="4.1219"/>
  <rect class="cls-3" x="88.3648" y="33.1695" width="4.1219" height="4.1227"/>
  <rect class="cls-3" x="88.3648" y="29.0476" width="4.1219" height="4.1219"/>
  <rect class="cls-3" x="88.3648" y="24.9257" width="4.1219" height="4.1219"/>
  <rect class="cls-3" x="88.3648" y="20.803" width="4.1219" height="4.1227"/>
  <rect class="cls-3" x="88.3648" y="16.6811" width="4.1219" height="4.1219"/>
  <rect class="cls-3" x="88.3648" y="12.5593" width="4.1219" height="4.1219"/>
  <rect class="cls-3" x="88.3648" y="8.4374" width="4.1219" height="4.1219"/>
  <rect x="88.3648" y="4.3147" width="4.1219" height="4.1227"/>
  <rect x="84.2421" y="66.147" width="4.1227" height="4.1219"/>
  <rect class="cls-3" x="84.2421" y="62.0243" width="4.1227" height="4.1227"/>
  <rect class="cls-3" x="84.2421" y="57.9024" width="4.1227" height="4.1219"/>
  <rect class="cls-3" x="84.2421" y="53.7805" width="4.1227" height="4.1219"/>
  <rect class="cls-3" x="84.2421" y="49.6587" width="4.1227" height="4.1219"/>
  <rect class="cls-3" x="84.2421" y="45.5359" width="4.1227" height="4.1227"/>
  <rect class="cls-3" x="84.2421" y="41.4141" width="4.1227" height="4.1219"/>
  <rect class="cls-3" x="84.2421" y="37.2922" width="4.1227" height="4.1219"/>
  <rect class="cls-2" x="84.2421" y="33.1695" width="4.1227" height="4.1227"/>
  <rect class="cls-2" x="84.2421" y="29.0476" width="4.1227" height="4.1219"/>
  <rect class="cls-2" x="84.2421" y="24.9257" width="4.1227" height="4.1219"/>
  <rect class="cls-2" x="84.2421" y="20.803" width="4.1227" height="4.1227"/>
  <rect class="cls-2" x="84.2421" y="16.6811" width="4.1227" height="4.1219"/>
  <rect class="cls-2" x="84.2421" y="12.5593" width="4.1227" height="4.1219"/>
  <rect class="cls-3" x="84.2421" y="8.4374" width="4.1227" height="4.1219"/>
  <rect class="cls-3" x="84.2421" y="4.3147" width="4.1227" height="4.1227"/>
  <rect x="84.2421" y=".1928" width="4.1227" height="4.1219"/>
  <rect x="80.1202" y="70.2689" width="4.1219" height="4.1219"/>
  <rect class="cls-3" x="80.1202" y="66.147" width="4.1219" height="4.1219"/>
  <rect class="cls-3" x="80.1202" y="62.0243" width="4.1219" height="4.1227"/>
  <rect class="cls-2" x="80.1202" y="57.9024" width="4.1219" height="4.1219"/>
  <rect class="cls-2" x="80.1202" y="53.7805" width="4.1219" height="4.1219"/>
  <rect class="cls-2" x="80.1202" y="49.6587" width="4.1219" height="4.1219"/>
  <rect class="cls-2" x="80.1202" y="45.5359" width="4.1219" height="4.1227"/>
  <rect class="cls-2" x="80.1202" y="41.4141" width="4.1219" height="4.1219"/>
  <rect class="cls-2" x="80.1202" y="37.2922" width="4.1219" height="4.1219"/>
  <rect class="cls-1" x="80.1202" y="33.1695" width="4.1219" height="4.1227"/>
  <rect class="cls-1" x="80.1202" y="29.0476" width="4.1219" height="4.1219"/>
  <rect class="cls-1" x="80.1202" y="24.9257" width="4.1219" height="4.1219"/>
  <rect class="cls-1" x="80.1202" y="20.803" width="4.1219" height="4.1227"/>
  <rect class="cls-1" x="80.1202" y="16.6811" width="4.1219" height="4.1219"/>
  <rect class="cls-1" x="80.1202" y="12.5593" width="4.1219" height="4.1219"/>
  <rect class="cls-2" x="80.1202" y="8.4374" width="4.1219" height="4.1219"/>
  <rect class="cls-3" x="80.1202" y="4.3147" width="4.1219" height="4.1227"/>
  <rect x="80.1202" y=".1928" width="4.1219" height="4.1219"/>
  <rect x="75.9983" y="74.3907" width="4.1219" height="4.1227"/>
  <rect class="cls-3" x="75.9983" y="70.2689" width="4.1219" height="4.1219"/>
  <rect class="cls-3" x="75.9983" y="66.147" width="4.1219" height="4.1219"/>
  <rect class="cls-2" x="75.9983" y="62.0243" width="4.1219" height="4.1227"/>
  <rect class="cls-5" x="75.9983" y="57.9024" width="4.1219" height="4.1219"/>
  <rect class="cls-5" x="75.9983" y="53.7805" width="4.1219" height="4.1219"/>
  <rect class="cls-5" x="75.9983" y="49.6587" width="4.1219" height="4.1219"/>
  <rect class="cls-5" x="75.9983" y="45.5359" width="4.1219" height="4.1227"/>
  <rect class="cls-5" x="75.9983" y="41.4141" width="4.1219" height="4.1219"/>
  <rect class="cls-1" x="75.9983" y="37.2922" width="4.1219" height="4.1219"/>
  <rect class="cls-6" x="75.9983" y="33.1695" width="4.1219" height="4.1227"/>
  <rect class="cls-1" x="75.9983" y="29.0476" width="4.1219" height="4.1219"/>
  <rect class="cls-6" x="75.9983" y="24.9257" width="4.1219" height="4.1219"/>
  <rect class="cls-1" x="75.9983" y="20.803" width="4.1219" height="4.1227"/>
  <rect class="cls-6" x="75.9983" y="16.6811" width="4.1219" height="4.1219"/>
  <rect class="cls-1" x="75.9983" y="12.5593" width="4.1219" height="4.1219"/>
  <rect class="cls-2" x="75.9983" y="8.4374" width="4.1219" height="4.1219"/>
  <rect class="cls-3" x="75.9983" y="4.3147" width="4.1219" height="4.1227"/>
  <rect x="75.9983" y=".1928" width="4.1219" height="4.1219"/>
  <rect x="71.8756" y="74.3907" width="4.1227" height="4.1227"/>
  <rect class="cls-3" x="71.8756" y="70.2689" width="4.1227" height="4.1219"/>
  <rect class="cls-2" x="71.8756" y="66.147" width="4.1227" height="4.1219"/>
  <rect class="cls-5" x="71.8756" y="62.0243" width="4.1227" height="4.1227"/>
  <rect class="cls-5" x="71.8756" y="57.9024" width="4.1227" height="4.1219"/>
  <rect class="cls-4" x="71.8756" y="53.7805" width="4.1227" height="4.1219"/>
  <rect class="cls-5" x="71.8756" y="49.6587" width="4.1227" height="4.1219"/>
  <rect class="cls-4" x="71.8756" y="45.5359" width="4.1227" height="4.1227"/>
  <rect class="cls-5" x="71.8756" y="41.4141" width="4.1227" height="4.1219"/>
  <rect class="cls-6" x="71.8756" y="37.2922" width="4.1227" height="4.1219"/>
  <rect class="cls-1" x="71.8756" y="33.1695" width="4.1227" height="4.1227"/>
  <rect class="cls-6" x="71.8756" y="29.0476" width="4.1227" height="4.1219"/>
  <rect class="cls-1" x="71.8756" y="24.9257" width="4.1227" height="4.1219"/>
  <rect class="cls-6" x="71.8756" y="20.803" width="4.1227" height="4.1227"/>
  <rect class="cls-1" x="71.8756" y="16.6811" width="4.1227" height="4.1219"/>
  <rect class="cls-6" x="71.8756" y="12.5593" width="4.1227" height="4.1219"/>
  <rect class="cls-2" x="71.8756" y="8.4374" width="4.1227" height="4.1219"/>
  <rect class="cls-3" x="71.8756" y="4.3147" width="4.1227" height="4.1227"/>
  <rect x="71.8756" y=".1928" width="4.1227" height="4.1219"/>
  <rect x="67.7537" y="78.5134" width="4.1219" height="4.1219"/>
  <rect class="cls-3" x="67.7537" y="74.3907" width="4.1219" height="4.1227"/>
  <rect class="cls-3" x="67.7537" y="70.2689" width="4.1219" height="4.1219"/>
  <rect class="cls-2" x="67.7537" y="66.147" width="4.1219" height="4.1219"/>
  <rect class="cls-5" x="67.7537" y="62.0243" width="4.1219" height="4.1227"/>
  <rect class="cls-4" x="67.7537" y="57.9024" width="4.1219" height="4.1219"/>
  <rect class="cls-5" x="67.7537" y="53.7805" width="4.1219" height="4.1219"/>
  <rect class="cls-4" x="67.7537" y="49.6587" width="4.1219" height="4.1219"/>
  <rect class="cls-5" x="67.7537" y="45.5359" width="4.1219" height="4.1227"/>
  <rect class="cls-4" x="67.7537" y="41.4141" width="4.1219" height="4.1219"/>
  <rect class="cls-1" x="67.7537" y="37.2922" width="4.1219" height="4.1219"/>
  <rect class="cls-6" x="67.7537" y="33.1695" width="4.1219" height="4.1227"/>
  <rect class="cls-6" x="67.7537" y="29.0476" width="4.1219" height="4.1219"/>
  <rect class="cls-6" x="67.7537" y="24.9257" width="4.1219" height="4.1219"/>
  <rect class="cls-6" x="67.7537" y="20.803" width="4.1219" height="4.1227"/>
  <rect class="cls-6" x="67.7537" y="16.6811" width="4.1219" height="4.1219"/>
  <rect class="cls-6" x="67.7537" y="12.5593" width="4.1219" height="4.1219"/>
  <rect class="cls-2" x="67.7537" y="8.4374" width="4.1219" height="4.1219"/>
  <rect class="cls-3" x="67.7537" y="4.3147" width="4.1219" height="4.1227"/>
  <rect x="67.7537" y=".1928" width="4.1219" height="4.1219"/>
  <rect x="63.6319" y="82.6353" width="4.1219" height="4.1219"/>
  <rect class="cls-3" x="63.6319" y="78.5134" width="4.1219" height="4.1219"/>
  <rect class="cls-3" x="63.6319" y="74.3907" width="4.1219" height="4.1227"/>
  <rect class="cls-2" x="63.6319" y="70.2689" width="4.1219" height="4.1219"/>
  <rect class="cls-5" x="63.6319" y="66.147" width="4.1219" height="4.1219"/>
  <rect class="cls-4" x="63.6319" y="62.0243" width="4.1219" height="4.1227"/>
  <rect class="cls-4" x="63.6319" y="57.9024" width="4.1219" height="4.1219"/>
  <rect class="cls-4" x="63.6319" y="53.7805" width="4.1219" height="4.1219"/>
  <rect class="cls-4" x="63.6319" y="49.6587" width="4.1219" height="4.1219"/>
  <rect class="cls-4" x="63.6319" y="45.5359" width="4.1219" height="4.1227"/>
  <rect class="cls-4" x="63.6319" y="41.4141" width="4.1219" height="4.1219"/>
  <rect class="cls-6" x="63.6319" y="37.2922" width="4.1219" height="4.1219"/>
  <rect class="cls-6" x="63.6319" y="33.1695" width="4.1219" height="4.1227"/>
  <rect class="cls-6" x="63.6319" y="29.0476" width="4.1219" height="4.1219"/>
  <rect class="cls-6" x="63.6319" y="24.9257" width="4.1219" height="4.1219"/>
  <rect class="cls-6" x="63.6319" y="20.803" width="4.1219" height="4.1227"/>
  <rect class="cls-6" x="63.6319" y="16.6811" width="4.1219" height="4.1219"/>
  <rect class="cls-6" x="63.6319" y="12.5593" width="4.1219" height="4.1219"/>
  <rect class="cls-2" x="63.6319" y="8.4374" width="4.1219" height="4.1219"/>
  <rect class="cls-3" x="63.6319" y="4.3147" width="4.1219" height="4.1227"/>
  <rect x="63.6319" y=".1928" width="4.1219" height="4.1219"/>
  <rect x="59.5091" y="82.6353" width="4.1227" height="4.1219"/>
  <rect class="cls-3" x="59.5091" y="78.5134" width="4.1227" height="4.1219"/>
  <rect class="cls-3" x="59.5091" y="74.3907" width="4.1227" height="4.1227"/>
  <rect class="cls-2" x="59.5091" y="70.2689" width="4.1227" height="4.1219"/>
  <rect class="cls-4" x="59.5091" y="66.147" width="4.1227" height="4.1219"/>
  <rect class="cls-4" x="59.5091" y="62.0243" width="4.1227" height="4.1227"/>
  <rect class="cls-4" x="59.5091" y="57.9024" width="4.1227" height="4.1219"/>
  <rect class="cls-4" x="59.5091" y="53.7805" width="4.1227" height="4.1219"/>
  <rect class="cls-4" x="59.5091" y="49.6587" width="4.1227" height="4.1219"/>
  <rect class="cls-4" x="59.5091" y="45.5359" width="4.1227" height="4.1227"/>
  <rect class="cls-4" x="59.5091" y="41.4141" width="4.1227" height="4.1219"/>
  <rect class="cls-6" x="59.5091" y="37.2922" width="4.1227" height="4.1219"/>
  <rect class="cls-6" x="59.5091" y="33.1695" width="4.1227" height="4.1227"/>
  <rect class="cls-6" x="59.5091" y="29.0476" width="4.1227" height="4.1219"/>
  <rect class="cls-6" x="59.5091" y="24.9257" width="4.1227" height="4.1219"/>
  <rect class="cls-6" x="59.5091" y="20.803" width="4.1227" height="4.1227"/>
  <rect class="cls-6" x="59.5091" y="16.6811" width="4.1227" height="4.1219"/>
  <rect class="cls-6" x="59.5091" y="12.5593" width="4.1227" height="4.1219"/>
  <rect class="cls-2" x="59.5091" y="8.4374" width="4.1227" height="4.1219"/>
  <rect class="cls-3" x="59.5091" y="4.3147" width="4.1227" height="4.1227"/>
  <rect x="59.5091" y=".1928" width="4.1227" height="4.1219"/>
  <rect x="55.3873" y="82.6353" width="4.1219" height="4.1219"/>
  <rect class="cls-3" x="55.3873" y="78.5134" width="4.1219" height="4.1219"/>
  <rect class="cls-3" x="55.3873" y="74.3907" width="4.1219" height="4.1227"/>
  <rect class="cls-2" x="55.3873" y="70.2689" width="4.1219" height="4.1219"/>
  <rect class="cls-1" x="55.3873" y="66.147" width="4.1219" height="4.1219"/>
  <rect class="cls-6" x="55.3873" y="62.0243" width="4.1219" height="4.1227"/>
  <rect class="cls-6" x="55.3873" y="57.9024" width="4.1219" height="4.1219"/>
  <rect class="cls-6" x="55.3873" y="53.7805" width="4.1219" height="4.1219"/>
  <rect class="cls-6" x="55.3873" y="49.6587" width="4.1219" height="4.1219"/>
  <rect class="cls-6" x="55.3873" y="45.5359" width="4.1219" height="4.1227"/>
  <rect class="cls-6" x="55.3873" y="41.4141" width="4.1219" height="4.1219"/>
  <rect class="cls-4" x="55.3873" y="37.2922" width="4.1219" height="4.1219"/>
  <rect class="cls-4" x="55.3873" y="33.1695" width="4.1219" height="4.1227"/>
  <rect class="cls-4" x="55.3873" y="29.0476" width="4.1219" height="4.1219"/>
  <rect class="cls-4" x="55.3873" y="24.9257" width="4.1219" height="4.1219"/>
  <rect class="cls-4" x="55.3873" y="20.803" width="4.1219" height="4.1227"/>
  <rect class="cls-4" x="55.3873" y="16.6811" width="4.1219" height="4.1219"/>
  <rect class="cls-4" x="55.3873" y="12.5593" width="4.1219" height="4.1219"/>
  <rect class="cls-2" x="55.3873" y="8.4374" width="4.1219" height="4.1219"/>
  <rect class="cls-3" x="55.3873" y="4.3147" width="4.1219" height="4.1227"/>
  <rect x="55.3873" y=".1928" width="4.1219" height="4.1219"/>
  <rect x="51.2654" y="82.6353" width="4.1219" height="4.1219"/>
  <rect class="cls-3" x="51.2654" y="78.5134" width="4.1219" height="4.1219"/>
  <rect class="cls-3" x="51.2654" y="74.3907" width="4.1219" height="4.1227"/>
  <rect class="cls-2" x="51.2654" y="70.2689" width="4.1219" height="4.1219"/>
  <rect class="cls-1" x="51.2654" y="66.147" width="4.1219" height="4.1219"/>
  <rect class="cls-6" x="51.2654" y="62.0243" width="4.1219" height="4.1227"/>
  <rect class="cls-6" x="51.2654" y="57.9024" width="4.1219" height="4.1219"/>
  <rect class="cls-6" x="51.2654" y="53.7805" width="4.1219" height="4.1219"/>
  <rect class="cls-6" x="51.2654" y="49.6587" width="4.1219" height="4.1219"/>
  <rect class="cls-6" x="51.2654" y="45.5359" width="4.1219" height="4.1227"/>
  <rect class="cls-6" x="51.2654" y="41.4141" width="4.1219" height="4.1219"/>
  <rect class="cls-4" x="51.2654" y="37.2922" width="4.1219" height="4.1219"/>
  <rect class="cls-4" x="51.2654" y="33.1695" width="4.1219" height="4.1227"/>
  <rect class="cls-4" x="51.2654" y="29.0476" width="4.1219" height="4.1219"/>
  <rect class="cls-4" x="51.2654" y="24.9257" width="4.1219" height="4.1219"/>
  <rect class="cls-4" x="51.2654" y="20.803" width="4.1219" height="4.1227"/>
  <rect class="cls-4" x="51.2654" y="16.6811" width="4.1219" height="4.1219"/>
  <rect class="cls-4" x="51.2654" y="12.5593" width="4.1219" height="4.1219"/>
  <rect class="cls-2" x="51.2654" y="8.4374" width="4.1219" height="4.1219"/>
  <rect class="cls-3" x="51.2654" y="4.3147" width="4.1219" height="4.1227"/>
  <rect x="51.2654" y=".1928" width="4.1219" height="4.1219"/>
  <rect x="47.1435" y="78.5134" width="4.1219" height="4.1219"/>
  <rect class="cls-3" x="47.1435" y="74.3907" width="4.1219" height="4.1227"/>
  <rect class="cls-3" x="47.1435" y="70.2689" width="4.1219" height="4.1219"/>
  <rect class="cls-2" x="47.1435" y="66.147" width="4.1219" height="4.1219"/>
  <rect class="cls-1" x="47.1435" y="62.0243" width="4.1219" height="4.1227"/>
  <rect class="cls-6" x="47.1435" y="57.9024" width="4.1219" height="4.1219"/>
  <rect class="cls-1" x="47.1435" y="53.7805" width="4.1219" height="4.1219"/>
  <rect class="cls-6" x="47.1435" y="49.6587" width="4.1219" height="4.1219"/>
  <rect class="cls-1" x="47.1435" y="45.5359" width="4.1219" height="4.1227"/>
  <rect class="cls-6" x="47.1435" y="41.4141" width="4.1219" height="4.1219"/>
  <rect class="cls-5" x="47.1435" y="37.2922" width="4.1219" height="4.1219"/>
  <rect class="cls-4" x="47.1435" y="33.1695" width="4.1219" height="4.1227"/>
  <rect class="cls-4" x="47.1435" y="29.0476" width="4.1219" height="4.1219"/>
  <rect class="cls-4" x="47.1435" y="24.9257" width="4.1219" height="4.1219"/>
  <rect class="cls-4" x="47.1435" y="20.803" width="4.1219" height="4.1227"/>
  <rect class="cls-4" x="47.1435" y="16.6811" width="4.1219" height="4.1219"/>
  <rect class="cls-4" x="47.1435" y="12.5593" width="4.1219" height="4.1219"/>
  <rect class="cls-2" x="47.1435" y="8.4374" width="4.1219" height="4.1219"/>
  <rect class="cls-3" x="47.1435" y="4.3147" width="4.1219" height="4.1227"/>
  <rect x="47.1435" y=".1928" width="4.1219" height="4.1219"/>
  <rect x="43.0208" y="74.3907" width="4.1227" height="4.1227"/>
  <rect class="cls-3" x="43.0208" y="70.2689" width="4.1227" height="4.1219"/>
  <rect class="cls-2" x="43.0208" y="66.147" width="4.1227" height="4.1219"/>
  <rect class="cls-1" x="43.0208" y="62.0243" width="4.1227" height="4.1227"/>
  <rect class="cls-1" x="43.0208" y="57.9024" width="4.1227" height="4.1219"/>
  <rect class="cls-6" x="43.0208" y="53.7805" width="4.1227" height="4.1219"/>
  <rect class="cls-1" x="43.0208" y="49.6587" width="4.1227" height="4.1219"/>
  <rect class="cls-6" x="43.0208" y="45.5359" width="4.1227" height="4.1227"/>
  <rect class="cls-1" x="43.0208" y="41.4141" width="4.1227" height="4.1219"/>
  <rect class="cls-4" x="43.0208" y="37.2922" width="4.1227" height="4.1219"/>
  <rect class="cls-5" x="43.0208" y="33.1695" width="4.1227" height="4.1227"/>
  <rect class="cls-4" x="43.0208" y="29.0476" width="4.1227" height="4.1219"/>
  <rect class="cls-5" x="43.0208" y="24.9257" width="4.1227" height="4.1219"/>
  <rect class="cls-4" x="43.0208" y="20.803" width="4.1227" height="4.1227"/>
  <rect class="cls-5" x="43.0208" y="16.6811" width="4.1227" height="4.1219"/>
  <rect class="cls-4" x="43.0208" y="12.5593" width="4.1227" height="4.1219"/>
  <rect class="cls-2" x="43.0208" y="8.4374" width="4.1227" height="4.1219"/>
  <rect class="cls-3" x="43.0208" y="4.3147" width="4.1227" height="4.1227"/>
  <rect x="43.0208" y=".1928" width="4.1227" height="4.1219"/>
  <rect x="38.8989" y="74.3907" width="4.1219" height="4.1227"/>
  <rect class="cls-3" x="38.8989" y="70.2689" width="4.1219" height="4.1219"/>
  <rect class="cls-3" x="38.8989" y="66.147" width="4.1219" height="4.1219"/>
  <rect class="cls-2" x="38.8989" y="62.0243" width="4.1219" height="4.1227"/>
  <rect class="cls-1" x="38.8989" y="57.9024" width="4.1219" height="4.1219"/>
  <rect class="cls-1" x="38.8989" y="53.7805" width="4.1219" height="4.1219"/>
  <rect class="cls-1" x="38.8989" y="49.6587" width="4.1219" height="4.1219"/>
  <rect class="cls-1" x="38.8989" y="45.5359" width="4.1219" height="4.1227"/>
  <rect class="cls-1" x="38.8989" y="41.4141" width="4.1219" height="4.1219"/>
  <rect class="cls-5" x="38.8989" y="37.2922" width="4.1219" height="4.1219"/>
  <rect class="cls-4" x="38.8989" y="33.1695" width="4.1219" height="4.1227"/>
  <rect class="cls-5" x="38.8989" y="29.0476" width="4.1219" height="4.1219"/>
  <rect class="cls-4" x="38.8989" y="24.9257" width="4.1219" height="4.1219"/>
  <rect class="cls-5" x="38.8989" y="20.803" width="4.1219" height="4.1227"/>
  <rect class="cls-4" x="38.8989" y="16.6811" width="4.1219" height="4.1219"/>
  <rect class="cls-5" x="38.8989" y="12.5593" width="4.1219" height="4.1219"/>
  <rect class="cls-2" x="38.8989" y="8.4374" width="4.1219" height="4.1219"/>
  <rect class="cls-3" x="38.8989" y="4.3147" width="4.1219" height="4.1227"/>
  <rect x="38.8989" y=".1928" width="4.1219" height="4.1219"/>
  <rect x="34.7771" y="70.2689" width="4.1219" height="4.1219"/>
  <rect class="cls-3" x="34.7771" y="66.147" width="4.1219" height="4.1219"/>
  <rect class="cls-3" x="34.7771" y="62.0243" width="4.1219" height="4.1227"/>
  <rect class="cls-2" x="34.7771" y="57.9024" width="4.1219" height="4.1219"/>
  <rect class="cls-2" x="34.7771" y="53.7805" width="4.1219" height="4.1219"/>
  <rect class="cls-2" x="34.7771" y="49.6587" width="4.1219" height="4.1219"/>
  <rect class="cls-2" x="34.7771" y="45.5359" width="4.1219" height="4.1227"/>
  <rect class="cls-2" x="34.7771" y="41.4141" width="4.1219" height="4.1219"/>
  <rect class="cls-5" x="34.7771" y="37.2922" width="4.1219" height="4.1219"/>
  <rect class="cls-5" x="34.7771" y="33.1695" width="4.1219" height="4.1227"/>
  <rect class="cls-5" x="34.7771" y="29.0476" width="4.1219" height="4.1219"/>
  <rect class="cls-5" x="34.7771" y="24.9257" width="4.1219" height="4.1219"/>
  <rect class="cls-5" x="34.7771" y="20.803" width="4.1219" height="4.1227"/>
  <rect class="cls-5" x="34.7771" y="16.6811" width="4.1219" height="4.1219"/>
  <rect class="cls-5" x="34.7771" y="12.5593" width="4.1219" height="4.1219"/>
  <rect class="cls-2" x="34.7771" y="8.4374" width="4.1219" height="4.1219"/>
  <rect class="cls-3" x="34.7771" y="4.3147" width="4.1219" height="4.1227"/>
  <rect x="34.7771" y=".1928" width="4.1219" height="4.1219"/>
  <rect x="30.6544" y="66.147" width="4.1227" height="4.1219"/>
  <rect class="cls-3" x="30.6544" y="62.0243" width="4.1227" height="4.1227"/>
  <rect class="cls-3" x="30.6544" y="57.9024" width="4.1227" height="4.1219"/>
  <rect class="cls-3" x="30.6544" y="53.7805" width="4.1227" height="4.1219"/>
  <rect class="cls-3" x="30.6544" y="49.6587" width="4.1227" height="4.1219"/>
  <rect class="cls-3" x="30.6544" y="45.5359" width="4.1227" height="4.1227"/>
  <rect class="cls-3" x="30.6544" y="41.4141" width="4.1227" height="4.1219"/>
  <rect class="cls-2" x="30.6544" y="37.2922" width="4.1227" height="4.1219"/>
  <rect class="cls-2" x="30.6544" y="33.1695" width="4.1227" height="4.1227"/>
  <rect class="cls-2" x="30.6544" y="29.0476" width="4.1227" height="4.1219"/>
  <rect class="cls-2" x="30.6544" y="24.9257" width="4.1227" height="4.1219"/>
  <rect class="cls-2" x="30.6544" y="20.803" width="4.1227" height="4.1227"/>
  <rect class="cls-2" x="30.6544" y="16.6811" width="4.1227" height="4.1219"/>
  <rect class="cls-2" x="30.6544" y="12.5593" width="4.1227" height="4.1219"/>
  <rect class="cls-3" x="30.6544" y="8.4374" width="4.1227" height="4.1219"/>
  <rect class="cls-3" x="30.6544" y="4.3147" width="4.1227" height="4.1227"/>
  <rect x="30.6544" y=".1928" width="4.1227" height="4.1219"/>
  <rect x="26.5325" y="62.0243" width="4.1219" height="4.1227"/>
  <rect x="26.5325" y="57.9024" width="4.1219" height="4.1219"/>
  <rect x="26.5325" y="53.7805" width="4.1219" height="4.1219"/>
  <rect x="26.5325" y="49.6587" width="4.1219" height="4.1219"/>
  <rect x="26.5325" y="45.5359" width="4.1219" height="4.1227"/>
  <rect class="cls-3" x="26.5325" y="41.4141" width="4.1219" height="4.1219"/>
  <rect class="cls-3" x="26.5325" y="37.2922" width="4.1219" height="4.1219"/>
  <rect class="cls-3" x="26.5325" y="33.1695" width="4.1219" height="4.1227"/>
  <rect class="cls-3" x="26.5325" y="29.0476" width="4.1219" height="4.1219"/>
  <rect class="cls-3" x="26.5325" y="24.9257" width="4.1219" height="4.1219"/>
  <rect class="cls-3" x="26.5325" y="20.803" width="4.1219" height="4.1227"/>
  <rect class="cls-3" x="26.5325" y="16.6811" width="4.1219" height="4.1219"/>
  <rect class="cls-3" x="26.5325" y="12.5593" width="4.1219" height="4.1219"/>
  <rect class="cls-3" x="26.5325" y="8.4374" width="4.1219" height="4.1219"/>
  <rect x="26.5325" y="4.3147" width="4.1219" height="4.1227"/>
  <rect x="22.4106" y="41.4141" width="4.1219" height="4.1219"/>
  <rect x="22.4106" y="37.2922" width="4.1219" height="4.1219"/>
  <rect x="22.4106" y="33.1695" width="4.1219" height="4.1227"/>
  <rect x="22.4106" y="29.0476" width="4.1219" height="4.1219"/>
  <rect x="22.4106" y="24.9257" width="4.1219" height="4.1219"/>
  <rect x="22.4106" y="20.803" width="4.1219" height="4.1227"/>
  <rect x="22.4106" y="16.6811" width="4.1219" height="4.1219"/>
  <rect x="22.4106" y="12.5593" width="4.1219" height="4.1219"/>
  <rect x="22.4106" y="8.4374" width="4.1219" height="4.1219"/>
</svg>