<?xml version="1.0" encoding="UTF-8"?>
<svg id="Layer_2" xmlns="http://www.w3.org/2000/svg" viewBox="0 0 152.1801 152.18">
  <defs>
    <style>
      .cls-1 {
        fill: #fff;
      }
    </style>
  </defs>
  <g id="Layer_2-2" data-name="Layer_2">
    <path class="cls-1" d="M76.09,0C34.07,0,0,34.07,0,76.09s34.07,76.09,76.09,76.09,76.09-34.07,76.09-76.09S118.11,0,76.09,0ZM123.4301,86.15c0,5.47-1.58,10.74-4.57,15.24-5.18,7.79-19.08,24.65-42.77,34.1-23.68-9.45-37.61-26.31-42.77-34.1-2.99-4.5-4.57-9.77-4.57-15.24v-42.42c0-1.08.69-2.04,1.71-2.39l44.83-15.07c.52-.17,1.08-.17,1.6,0l44.83,15.07c1.02.35,1.71,1.31,1.71,2.39v42.42ZM33.78,45.54v40.61c0,4.47,1.29,8.78,3.73,12.45,5,7.52,16.61,21.52,38.58,31.61,21.97-10.09,33.58-24.09,38.58-31.61,2.44-3.67,3.73-7.98,3.73-12.45v-40.61l-42.31-14.23-42.31,14.23ZM111.64,48.59c1.03.34,1.72,1.3,1.72,2.38v35.98c0,2.89-.83,5.72-2.4,8.17-4.25,6.64-14.29,19.24-33.75,28.97-18.44-4.89-32.82-24.19-35.99-28.97-1.57-2.45-2.4-5.28-2.4-8.17v-35.98c0-1.08.69-2.04,1.72-2.38l34.75-11.7c.52-.17,1.08-.17,1.6,0l34.75,11.7Z"/>
  </g>
</svg>