<?xml version="1.0" encoding="UTF-8"?>
<svg id="Layer_2" xmlns="http://www.w3.org/2000/svg" viewBox="0 0 152.1801 152.18">
  <defs>
    <style>
      .cls-1 {
        fill: #fff;
      }
    </style>
  </defs>
  <g id="Layer_2-2" data-name="Layer_2">
    <g>
      <path d="M28.5701,135.51l-15.23,15.23-11.91-11.9,15.23-15.23c3.52,4.4,7.52,8.39,11.91,11.9Z"/>
      <path d="M150.74,13.34l-15.23,15.23c-3.52-4.4-7.51-8.39-11.9099-11.9l15.23-15.23,11.9099,11.9Z"/>
      <g>
        <path d="M58.0801,71.47h-18.3101l-.1-.03c.2699-.4,1.7799-1.18,2.26-1.5l9.96-6.68c2.04-1.36,4.0499-2.79,6.1901-3.98.0599.1,0,10.98,0,12.19Z"/>
        <path d="M58.0601,36.87c.0699.85.03,1.73.03,2.58l-.01,4.64c-3.6301.05-7.26,0-10.8901,0l-.1099-.0099v-.07c3.52-2.57,7.24-4.89,10.8599-7.33l.0901.03.0601.23-.03-.07Z"/>
        <path d="M71.6101,44.09h-10.7001v-6.91c3.51,1.9,7.34,4.7,10.7001,6.91Z"/>
        <path d="M72.39,105.32c-5.1801,5.76-11.9501,12.17-17.5499,17.51-3.03,2.95-6,6-8.9301,9.06,1.77-5.86,3.83-11.66,5.75-17.48l.97-2.96,6.14-6.14c4.54-.01,9.0801-.04,13.62.01Z"/>
        <path d="M67.8601,49.65c-2.3201,1.48-4.6901,2.92-6.9501,4.5v-7.34h11.48c-1.5.96-3.0299,1.88-4.5299,2.84Z"/>
        <path d="M73.3601,102.51c-1.4001.12-2.8801,0-4.29,0h-7.5l5.97-5.97c2.28,2.39,4.46,4.74,5.8201,5.97Z"/>
        <path d="M83.8101,38.8c-2.5801,1.63-5.1001,3.35-7.6899,4.97-3.9701-2.8701-8.3401-5.21-12.26-8.15h24.9099c-1.6699,1.03-3.35,2.05-4.96,3.18Z"/>
        <path d="M90,87.95c-1.2.86-2.2,1.96-3.25,3l-3.78,3.74c-2.2899,2.25-4.5,4.59-6.8499,6.79-1.2401-1.52-2.8-2.88-4.1901-4.26l-2.52-2.55,6.72-6.72h13.87Z"/>
        <path d="M62.3501,32.72c1.2999-1.81,3.0399-3.46,4.52-5.14l5.5798-6.32c1.2301-1.4,2.4102-2.84,3.6702-4.21.7899.48,12.4199,13.93,13.8799,15.67h-27.6499Z"/>
        <path d="M91.4301,46.81v2.03l-3.36,3.36c-2.9401-1.86-6.66-4.45-7.98-5.39,3.77-.06,7.5599-.01,11.34,0Z"/>
        <path d="M86.22,54.05l-17.4199,17.42h-7.89v-14.04c4.76-3.24,10.26-6.76,15.2101-9.72.3398.02,5.7699,3.52,10.0999,6.34Z"/>
        <polygon points="60.91 74.24 66.03 74.24 60.91 79.36 60.91 74.24"/>
        <polygon points="91.4301 74.24 91.4301 85.11 78.97 85.11 89.8401 74.24 91.4301 74.24"/>
        <path d="M80.96,43.98c1.6201-1.48,8.3801-5.63,10.4701-6.8.09.26,0,6.1,0,6.91h-10.42l-.05-.11Z"/>
        <path d="M92.24,89.38c.3101.2,4.1101,11.82,4.46,13.13h-17.6399c4.3199-4.45,8.87-8.68,13.1799-13.13Z"/>
        <path d="M85.97,105.33l11.6501-.01c.7,2.69,1.7699,5.33,2.6599,7.97l4.21,12.67c.67,1.96,1.52,3.92,2.02,5.9301-.47-.23-17.5601-17.62-19.4299-19.4301l-4.3101-4.23c-.9199-.92-1.97-1.82-2.6799-2.91,1.9399.09,3.9199.01,5.8799.01Z"/>
        <path d="M99.89,40.38l-3.71,3.71h-1.9801v-7.41c.9102.43,1.75,1.06,2.5901,1.61l3.1,2.09Z"/>
        <path d="M112.8101,71.47h-18.6101v-1.59l6.4801-6.48,9.3199,6.15c.91.61,1.99,1.2,2.8101,1.92Z"/>
        <path class="cls-1" d="M58.0801,71.47h-18.3101l-.1-.03c.2699-.4,1.7799-1.18,2.26-1.5l9.96-6.68c2.04-1.36,4.0499-2.79,6.1901-3.98.0599.1,0,10.98,0,12.19Z"/>
        <path class="cls-1" d="M58.0601,36.87c.0699.85.03,1.73.03,2.58l-.01,4.64c-3.6301.05-7.26,0-10.8901,0l-.1099-.0099v-.07c3.52-2.57,7.24-4.89,10.8599-7.33l.0901.03.0601.23-.03-.07Z"/>
        <path class="cls-1" d="M71.6101,44.09h-10.7001v-6.91c3.51,1.9,7.34,4.7,10.7001,6.91Z"/>
        <path class="cls-1" d="M72.39,105.32c-5.1801,5.76-11.9501,12.17-17.5499,17.51-3.03,2.95-6,6-8.9301,9.06,1.77-5.86,3.83-11.66,5.75-17.48l.97-2.96,6.14-6.14c4.54-.01,9.0801-.04,13.62.01Z"/>
        <path class="cls-1" d="M67.8601,49.65c-2.3201,1.48-4.6901,2.92-6.9501,4.5v-7.34h11.48c-1.5.96-3.0299,1.88-4.5299,2.84Z"/>
        <path class="cls-1" d="M73.3601,102.51c-1.4001.12-2.8801,0-4.29,0h-7.5l5.97-5.97c2.28,2.39,4.46,4.74,5.8201,5.97Z"/>
        <path class="cls-1" d="M83.8101,38.8c-2.5801,1.63-5.1001,3.35-7.6899,4.97-3.9701-2.8701-8.3401-5.21-12.26-8.15h24.9099c-1.6699,1.03-3.35,2.05-4.96,3.18Z"/>
        <path class="cls-1" d="M90,87.95c-1.2.86-2.2,1.96-3.25,3l-3.78,3.74c-2.2899,2.25-4.5,4.59-6.8499,6.79-1.2401-1.52-2.8-2.88-4.1901-4.26l-2.52-2.55,6.72-6.72h13.87Z"/>
        <path class="cls-1" d="M62.3501,32.72c1.2999-1.81,3.0399-3.46,4.52-5.14l5.5798-6.32c1.2301-1.4,2.4102-2.84,3.6702-4.21.7899.48,12.4199,13.93,13.8799,15.67h-27.6499Z"/>
        <path class="cls-1" d="M91.4301,46.81v2.03l-3.36,3.36c-2.9401-1.86-6.66-4.45-7.98-5.39,3.77-.06,7.5599-.01,11.34,0Z"/>
        <path class="cls-1" d="M86.22,54.05l-17.4199,17.42h-7.89v-14.04c4.76-3.24,10.26-6.76,15.2101-9.72.3398.02,5.7699,3.52,10.0999,6.34Z"/>
        <polygon class="cls-1" points="60.91 74.24 66.03 74.24 60.91 79.36 60.91 74.24"/>
        <polygon class="cls-1" points="91.4301 74.24 91.4301 85.11 78.97 85.11 89.8401 74.24 91.4301 74.24"/>
        <path class="cls-1" d="M80.96,43.98c1.6201-1.48,8.3801-5.63,10.4701-6.8.09.26,0,6.1,0,6.91h-10.42l-.05-.11Z"/>
        <path class="cls-1" d="M92.24,89.38c.3101.2,4.1101,11.82,4.46,13.13h-17.6399c4.3199-4.45,8.87-8.68,13.1799-13.13Z"/>
        <path class="cls-1" d="M85.97,105.33l11.6501-.01c.7,2.69,1.7699,5.33,2.6599,7.97l4.21,12.67c.67,1.96,1.52,3.92,2.02,5.9301-.47-.23-17.5601-17.62-19.4299-19.4301l-4.3101-4.23c-.9199-.92-1.97-1.82-2.6799-2.91,1.9399.09,3.9199.01,5.8799.01Z"/>
        <path class="cls-1" d="M99.89,40.38l-3.71,3.71h-1.9801v-7.41c.9102.43,1.75,1.06,2.5901,1.61l3.1,2.09Z"/>
        <path class="cls-1" d="M112.8101,71.47h-18.6101v-1.59l6.4801-6.48,9.3199,6.15c.91.61,1.99,1.2,2.8101,1.92Z"/>
        <path class="cls-1" d="M76.0901,0C34.0601,0,0,34.07,0,76.09c0,17.98,6.23,34.5,16.66,47.52l41.42-41.42v-7.95h-21.6901l.02,3.5c0,1,.23,2.51-.5499,3.29-.8701.87-2.0901.07-2.2001-.98-.16-1.47-.02-3.07-.02-4.55.02-4.01-.21-3.22,2.99-5.35l21.4501-14.24c0-3.03.08-6.08,0-9.1h-14.1401c0,1.38.2101,6.49-.47,7.17-3.4399,1.9-2.3699-8.3-2.25-8.8.3101-1.3,11.6101-8.45,13.1801-9.49,4.48-2.93,4.59-3.39,8.13-7.4l8.86-10.07c.99-1.14,3.03-3.8,4.17-4.5.4299-.04.8899-.07,1.29.12.8599.4,12.4099,13.85,13.73,15.31,3.54,3.91,3.6899,4.09,8.1199,7.08,1.0701.71,2.1401,1.42,3.2101,2.13l21.6901-21.69C110.5801,6.24,94.0701,0,76.0901,0ZM135.51,28.57l-24.7,24.7c-.01.03-.02.05-.03.08-.13.15-.26.27-.39.34l-7.74,7.74,11.9501,7.88c3.8799,2.54,3.8599,1.75,3.9099,6.43.02,1.35.17,3.13-.01,4.44-.25,1.84-2.28,2.06-2.6899.18-.25-1.15-.0901-4.71-.0901-6.12h-21.52v6.53c-.01,5.71.27,6.23,2.0801,11.5699l13.87,41.51c.42,1.26,1.59,3.08.5599,4.27-1.3199,1.53-4.02-2.08-4.8499-2.89-2.8701-2.78-5.6501-5.63-8.4701-8.47l-20.76-20.78c-.1-.11-.33-.38-.48-.4-.1801,0-3.49,3.5099-3.84,3.86l-25.5,25.49c-.96.97-3.55,4.62-5.0701,3.13-.8999-.87.3401-3.58.67-4.59l5.7899-17.59-19.6299,19.63c13.02,10.43,29.54,16.67,47.52,16.67,42.02,0,76.09-34.07,76.09-76.09,0-17.98-6.2401-34.5-16.67-47.52Z"/>
      </g>
      <path class="cls-1" d="M28.5701,135.51l-15.23,15.23-11.91-11.9,15.23-15.23c3.52,4.4,7.52,8.39,11.91,11.9Z"/>
      <path class="cls-1" d="M150.74,13.34l-15.23,15.23c-3.52-4.4-7.51-8.39-11.9099-11.9l15.23-15.23,11.9099,11.9Z"/>
    </g>
  </g>
</svg>