<?xml version="1.0" encoding="UTF-8"?>
<svg id="Layer_2" xmlns="http://www.w3.org/2000/svg" viewBox="0 0 119.02 86.95">
  <defs>
    <style>
      .cls-1 {
        fill: #e2cf9f;
      }

      .cls-2 {
        fill: #4fb848;
      }

      .cls-3 {
        fill: #87d381;
      }

      .cls-4 {
        fill: #e5c46b;
      }
    </style>
  </defs>
  <g id="Layer_2-2">
    <polygon class="cls-2" points="101.1 49.27 87.66 62.71 83.18 58.23 74.23 67.18 78.71 71.66 78.68 71.69 83.16 76.17 87.66 71.66 92.14 76.14 114.54 53.75 110.06 49.27 114.54 44.79 110.06 40.31 114.54 35.83 110.06 31.35 96.62 44.79 101.1 49.27"/>
    <polygon class="cls-2" points="87.66 17.92 83.19 13.44 78.71 17.92 74.23 13.44 78.71 8.96 74.23 4.48 56.31 22.4 60.79 26.87 60.76 26.9 65.24 31.38 69.72 35.86 69.75 35.83 74.23 40.31 78.71 35.83 74.23 31.35 78.71 26.87 83.19 31.35 87.66 26.87 101.1 40.31 110.06 31.35 92.14 13.44 87.66 17.92"/>
    <polygon class="cls-3" points="78.71 8.96 74.23 4.48 69.75 8.96 65.27 13.44 60.79 17.92 56.31 22.4 60.79 26.87 65.27 22.39 69.75 17.92 74.23 22.39 78.71 17.92 74.23 13.44 78.71 8.96"/>
    <rect class="cls-3" x="80.0235" y="14.7522" width="6.33" height="6.33" transform="translate(11.696 64.071) rotate(-45)"/>
    <polygon class="cls-3" points="87.66 17.92 92.14 22.39 96.62 26.87 101.1 31.35 105.58 35.83 110.06 40.31 114.54 35.83 110.06 31.35 105.58 26.87 101.1 22.39 96.62 17.92 92.14 13.44 87.66 17.92"/>
    <polygon class="cls-3" points="74.23 67.18 78.71 71.66 83.18 67.18 87.66 62.71 83.18 58.23 78.71 62.71 74.23 67.18"/>
    <polygon class="cls-4" points="17.92 37.69 31.35 24.25 35.83 28.73 44.79 19.77 40.31 15.29 40.34 15.26 35.86 10.79 31.35 15.29 26.87 10.81 4.48 33.21 8.96 37.69 4.48 42.17 8.96 46.64 4.48 51.12 8.96 55.6 22.39 42.17 17.92 37.69"/>
    <polygon class="cls-4" points="31.35 69.04 35.83 73.52 40.31 69.04 44.79 73.52 40.31 78 44.79 82.48 62.7 64.56 58.23 60.08 58.25 60.05 53.77 55.57 49.3 51.1 49.27 51.12 44.79 46.64 40.31 51.12 44.79 55.6 40.31 60.08 35.83 55.6 31.35 60.08 17.92 46.64 8.96 55.6 26.87 73.52 31.35 69.04"/>
    <polygon class="cls-1" points="40.31 78 44.79 82.48 49.27 78 53.75 73.52 58.23 69.04 62.7 64.56 58.23 60.08 53.75 64.56 49.27 69.04 44.79 64.56 40.31 69.04 44.79 73.52 40.31 78"/>
    <rect class="cls-1" x="32.6622" y="65.878" width="6.33" height="6.33" transform="translate(-38.3272 45.5559) rotate(-45)"/>
    <polygon class="cls-1" points="31.35 69.04 26.87 64.56 22.39 60.08 17.92 55.6 13.44 51.12 8.96 46.64 4.48 51.12 8.96 55.6 13.44 60.08 17.92 64.56 22.39 69.04 26.87 73.52 31.35 69.04"/>
    <polygon class="cls-1" points="44.79 19.77 40.31 15.29 35.83 19.77 31.35 24.25 35.83 28.73 40.31 24.25 44.79 19.77"/>
  </g>
  <g id="Layer_1-2">
    <polygon points="101.1 76.14 105.58 71.66 110.06 67.18 114.54 62.7 119.02 58.23 114.54 53.75 110.06 58.23 105.58 62.7 101.1 67.18 96.62 71.66 92.14 76.14 96.62 80.62 101.1 76.14"/>
    <rect x="84.4991" y="72.972" width="6.33" height="6.33" transform="translate(-28.1608 84.2879) rotate(-45)"/>
    <polygon points="78.71 71.66 74.23 67.18 69.75 71.66 74.23 76.14 78.71 80.62 83.18 76.14 78.71 71.66"/>
    <polygon points="83.18 58.23 78.71 53.75 74.23 58.23 69.75 62.71 74.23 67.18 78.71 62.71 83.18 58.23"/>
    <polygon points="92.14 58.23 96.62 53.75 101.1 49.27 96.62 44.79 92.14 49.27 87.66 53.75 83.18 58.23 87.66 62.7 92.14 58.23"/>
    <rect x="111.3691" y="46.1021" width="6.33" height="6.33" transform="translate(-1.2909 95.4178) rotate(-45)"/>
    <rect x="111.3634" y="37.1464" width="6.33" height="6.33" transform="translate(5.0401 92.7908) rotate(-45)"/>
    <polygon points="114.54 26.87 110.06 22.39 105.58 17.92 101.1 13.44 96.62 8.96 92.14 13.44 96.62 17.92 101.1 22.39 105.58 26.87 110.06 31.35 114.54 35.83 119.02 31.35 114.54 26.87"/>
    <polygon points="92.14 40.31 92.14 40.31 96.62 44.79 101.1 40.31 96.62 35.83 96.62 35.83 92.14 31.35 87.66 26.87 83.19 31.35 87.66 35.83 92.14 40.31"/>
    <rect x="84.5035" y="10.2664" width="6.33" height="6.33" transform="translate(16.18 65.925) rotate(-45)"/>
    <rect x="75.5378" y="10.2722" width="6.33" height="6.33" transform="translate(13.55 59.587) rotate(-45)"/>
    <rect x="75.5421" y="1.3165" width="6.33" height="6.33" transform="translate(19.8839 56.967) rotate(-45)"/>
    <polygon points="65.27 4.48 60.79 8.96 56.31 13.44 51.83 17.92 56.31 22.4 60.79 17.92 65.27 13.44 69.75 8.96 74.23 4.48 69.75 0 65.27 4.48"/>
    <polygon points="56.31 31.35 60.79 35.83 65.27 40.31 69.75 44.79 74.23 40.31 69.75 35.83 65.27 31.35 60.79 26.87 56.31 22.4 51.83 26.87 56.31 31.35"/>
    <rect x="75.5378" y="37.1421" width="6.33" height="6.33" transform="translate(-5.4499 67.457) rotate(-45)"/>
    <rect x="75.5392" y="28.1935" width="6.33" height="6.33" transform="translate(.8781 64.837) rotate(-45)"/>
    <polygon points="17.92 10.81 13.44 15.29 8.96 19.77 4.48 24.25 0 28.73 4.48 33.21 8.96 28.73 13.44 24.25 17.92 19.77 22.4 15.29 26.87 10.81 22.4 6.33 17.92 10.81"/>
    <rect x="28.1937" y="7.6511" width="6.33" height="6.33" transform="translate(1.5366 25.3419) rotate(-45)"/>
    <polygon points="40.31 15.29 44.79 19.77 49.27 15.29 44.79 10.81 40.31 6.33 35.83 10.81 40.31 15.29"/>
    <polygon points="35.83 28.73 40.31 33.21 44.79 28.73 49.27 24.25 44.79 19.77 40.31 24.25 35.83 28.73"/>
    <polygon points="26.87 28.73 22.39 33.21 17.92 37.69 22.39 42.17 26.87 37.69 31.35 33.21 35.83 28.73 31.35 24.25 26.87 28.73"/>
    <rect x="1.3066" y="34.528" width="6.33" height="6.33" transform="translate(-25.3433 14.2019) rotate(-45)"/>
    <rect x="1.3123" y="43.4837" width="6.33" height="6.33" transform="translate(-31.6742 16.829) rotate(-45)"/>
    <polygon points="4.48 60.08 8.96 64.56 13.44 69.04 17.92 73.52 22.39 78 26.87 73.52 22.39 69.04 17.92 64.56 13.44 60.08 8.96 55.6 4.48 51.12 0 55.6 4.48 60.08"/>
    <polygon points="26.87 46.64 26.87 46.64 22.39 42.17 17.92 46.64 22.39 51.12 22.39 51.12 26.87 55.6 31.35 60.08 35.83 55.6 31.35 51.12 26.87 46.64"/>
    <rect x="28.1893" y="70.3466" width="6.33" height="6.33" transform="translate(-42.7971 43.7019) rotate(-45)"/>
    <rect x="37.1379" y="70.358" width="6.33" height="6.33" transform="translate(-40.1842 50.0328) rotate(-45)"/>
    <rect x="37.1436" y="79.3137" width="6.33" height="6.33" transform="translate(-46.5151 52.6599) rotate(-45)"/>
    <polygon points="53.75 82.48 58.23 78 62.7 73.52 67.18 69.04 62.7 64.56 58.23 69.04 53.75 73.52 49.27 78 44.79 82.48 49.27 86.95 53.75 82.48"/>
    <polygon points="62.7 55.6 58.23 51.12 53.75 46.64 49.27 42.17 44.79 46.64 49.27 51.12 53.75 55.6 58.23 60.08 62.7 64.56 67.18 60.08 62.7 55.6"/>
    <rect x="37.1379" y="43.488" width="6.33" height="6.33" transform="translate(-21.1842 42.1628) rotate(-45)"/>
    <rect x="37.1436" y="52.4437" width="6.33" height="6.33" transform="translate(-27.5152 44.7899) rotate(-45)"/>
  </g>
</svg>