<?xml version="1.0" encoding="UTF-8"?>
<svg id="Layer_2" xmlns="http://www.w3.org/2000/svg" viewBox="0 0 152.18 152.18">
  <defs>
    <style>
      .cls-1 {
        fill: #fff;
      }
    </style>
  </defs>
  <g id="Layer_2-2" data-name="Layer_2">
    <path class="cls-1" d="M76.09,0C34.07,0,0,34.07,0,76.09s34.07,76.09,76.09,76.09,76.09-34.07,76.09-76.09S118.11,0,76.09,0ZM41.11,110.64l1.99,4.27c-.5699-.49-1.14-.99-1.69-1.51-4.8199-4.48-8.69-9.79-11.48-15.78-2.79-6-4.38-12.37-4.72-18.95-.35-6.8101.67-13.54,3.02-20,2.35-6.46,5.9-12.26,10.55-17.26,4.48-4.82,9.79-8.69,15.78-11.48,6-2.79,12.37-4.38,18.95-4.72,5.81-.29,11.57.4,17.14,2.07l2.94-8.08c.47-1.27,2.24-1.35,2.81-.12l9.23,19.8,1.99,4.27c.07.14.11.29.13.44.02.15.02.3,0,.44-.01.03-.01.05-.02.07-.03.15-.08.28-.15.41-.01.03-.02.05-.03.07-.08.12-.17.24-.28.34-.11.1-.24.1899-.38.25l-16.6,7.75-7.47,3.48c-1.23.57-2.54-.62-2.08-1.9l2.86-7.86c-14.94-3.82-30.69,4.26-36.0699,19.06-4.27,11.72-.84,24.4,7.6899,32.48l-11.54,5.38c-2.66,1.24-3.81,4.42-2.57,7.08ZM123.95,93.51c-2.35,6.46-5.9,12.27-10.55,17.26-4.48,4.83-9.79,8.69-15.78,11.48-6,2.79-12.37,4.38-18.95,4.72-3.22.16-6.41.02-9.57-.42-2.56-.35-5.08-.9-7.5699-1.65l-2.94,8.08c-.47,1.28-2.2401,1.35-2.81.12l-3.63-7.78-7.59-16.29c-.36-.76-.03-1.67.73-2.02l17.2401-8.04,6.83-3.19c1.23-.57,2.54.63,2.08,1.9l-2.86,7.86c1.74.45,3.49.73,5.24.86,13.23.99,26.07-6.85,30.83-19.92,4.27-11.72.84-24.4-7.69-32.48l11.54-5.38c2.66-1.24,3.81-4.42,2.57-7.08l-1.99-4.27c.57.49,1.14.99,1.69,1.51,4.83,4.48,8.69,9.79,11.48,15.79,2.79,5.99,4.38,12.36,4.72,18.94.35,6.81-.67,13.54-3.02,20Z"/>
  </g>
</svg>