<?xml version="1.0" encoding="UTF-8"?>
<svg id="Layer_2" xmlns="http://www.w3.org/2000/svg" viewBox="0 0 152.1799 152.18">
  <defs>
    <style>
      .cls-1 {
        fill: #fff;
      }
    </style>
  </defs>
  <g id="Layer_2-2" data-name="Layer_2">
    <g>
      <path class="cls-1" d="M66.9,135.05c0,.46-.37.83-.83.83s-.8301-.37-.8301-.83.37-.83.8301-.83.83.37.83.83Z"/>
      <path class="cls-1" d="M66.9,36.56c0,.46-.37.84-.83.84s-.8301-.38-.8301-.84.37-.83.8301-.83.83.37.83.83Z"/>
      <path class="cls-1" d="M69.39,135.05c0,.46-.38.83-.84.83s-.8201-.37-.8201-.83.3601-.83.8201-.83.84.37.84.83Z"/>
      <path class="cls-1" d="M69.39,36.56c0,.46-.38.84-.84.84s-.8201-.38-.8201-.84.3601-.83.8201-.83.84.37.84.83Z"/>
      <path class="cls-1" d="M71.88,135.05c0,.46-.38.83-.84.83s-.8301-.37-.8301-.83.3701-.83.8301-.83.84.37.84.83Z"/>
      <path class="cls-1" d="M71.88,36.56c0,.46-.38.84-.84.84s-.8301-.38-.8301-.84.3701-.83.8301-.83.84.37.84.83Z"/>
      <path class="cls-1" d="M73.53,135.8799c-.46,0-.8301-.37-.8301-.83s.3701-.83.8301-.83.83.37.83.83-.37.83-.83.83Z"/>
      <path class="cls-1" d="M73.53,37.4c-.46,0-.8301-.38-.8301-.84s.3701-.83.8301-.83.83.37.83.83-.37.84-.83.84Z"/>
      <path class="cls-1" d="M76.02,134.22c.45,0,.83.37.83.83s-.38.83-.83.83c-.46,0-.8301-.37-.8301-.83s.3701-.83.8301-.83Z"/>
      <path class="cls-1" d="M76.02,35.73c.45,0,.83.37.83.83s-.38.84-.83.84c-.46,0-.8301-.38-.8301-.84s.3701-.83.8301-.83Z"/>
      <path class="cls-1" d="M78.87,141.64c0,1.58-1.27,2.85-2.85,2.85-1.5701,0-2.8601-1.27-2.8601-2.85,0-1.57,1.29-2.85,2.8601-2.85,1.58,0,2.85,1.28,2.85,2.85Z"/>
      <path class="cls-1" d="M78.87,43.15c0,1.58-1.27,2.85-2.85,2.85-1.5701,0-2.8601-1.27-2.8601-2.85,0-1.57,1.29-2.85,2.8601-2.85,1.58,0,2.85,1.28,2.85,2.85Z"/>
      <path class="cls-1" d="M79.3401,135.05c0,.46-.3801.83-.8401.83-.45,0-.8201-.37-.8201-.83s.3701-.83.8201-.83c.46,0,.8401.37.8401.83Z"/>
      <path class="cls-1" d="M79.3401,36.56c0,.46-.3801.84-.8401.84-.45,0-.8201-.38-.8201-.84s.3701-.83.8201-.83c.46,0,.8401.37.8401.83Z"/>
      <path class="cls-1" d="M81.8301,135.05c0,.46-.3801.83-.8401.83s-.8301-.37-.8301-.83.3701-.83.8301-.83.8401.37.8401.83Z"/>
      <path class="cls-1" d="M81.8301,36.56c0,.46-.3801.84-.8401.84s-.8301-.38-.8301-.84.3701-.83.8301-.83.8401.37.8401.83Z"/>
      <path class="cls-1" d="M84.3101,135.05c0,.46-.3701.83-.8301.83s-.83-.37-.83-.83.37-.83.83-.83.8301.37.8301.83Z"/>
      <path class="cls-1" d="M84.3101,36.56c0,.46-.3701.84-.8301.84s-.83-.38-.83-.84.37-.83.83-.83.8301.37.8301.83Z"/>
      <path class="cls-1" d="M86.8,135.05c0,.46-.3701.83-.8301.83s-.84-.37-.84-.83.38-.83.84-.83.8301.37.8301.83Z"/>
      <path class="cls-1" d="M86.8,36.56c0,.46-.3701.84-.8301.84s-.84-.38-.84-.84.38-.83.84-.83.8301.37.8301.83Z"/>
      <rect class="cls-1" x="65.5701" y="9.27" width="20.8999" height="2.91"/>
      <rect class="cls-1" x="65.5701" y="14.42" width="20.8999" height="2.9"/>
      <rect class="cls-1" x="65.5701" y="19.55" width="20.8999" height="2.91"/>
      <rect class="cls-1" x="65.5701" y="24.7" width="20.8999" height="2.91"/>
      <rect class="cls-1" x="65.5701" y="29.73" width="20.8999" height="2.91"/>
      <rect class="cls-1" x="65.5701" y="107.7599" width="20.8999" height="2.9"/>
      <rect class="cls-1" x="65.5701" y="112.91" width="20.8999" height="2.9"/>
      <rect class="cls-1" x="65.5701" y="118.04" width="20.8999" height="2.91"/>
      <rect class="cls-1" x="65.5701" y="123.19" width="20.8999" height="2.91"/>
      <rect class="cls-1" x="65.5701" y="128.22" width="20.8999" height="2.91"/>
      <path class="cls-1" d="M108.13,85.99c0,.46-.37.83-.83.83s-.8301-.37-.8301-.83.3701-.83.8301-.83.83.37.83.83Z"/>
      <path class="cls-1" d="M110.62,85.99c0,.46-.37.83-.84.83-.46,0-.8201-.37-.8201-.83s.3601-.83.8201-.83c.47,0,.84.37.84.83Z"/>
      <path class="cls-1" d="M113.11,85.99c0,.46-.38.83-.84.83s-.8301-.37-.8301-.83.3701-.83.8301-.83.84.37.84.83Z"/>
      <path class="cls-1" d="M114.76,86.8199c-.46,0-.8301-.37-.8301-.83s.3701-.83.8301-.83.8301.37.8301.83-.3701.83-.8301.83Z"/>
      <path class="cls-1" d="M117.25,85.16c.45,0,.8301.37.8301.83s-.3801.83-.8301.83c-.46,0-.8301-.37-.8301-.83s.3701-.83.8301-.83Z"/>
      <path class="cls-1" d="M120.1,92.58c0,1.57-1.2699,2.85-2.85,2.85-1.5701,0-2.85-1.28-2.85-2.85,0-1.58,1.2799-2.86,2.85-2.86,1.5801,0,2.85,1.28,2.85,2.86Z"/>
      <path class="cls-1" d="M120.5701,85.99c0,.46-.3801.83-.8401.83-.45,0-.8201-.37-.8201-.83s.3701-.83.8201-.83c.46,0,.8401.37.8401.83Z"/>
      <path class="cls-1" d="M123.0601,85.99c0,.46-.3801.83-.8401.83s-.83-.37-.83-.83.37-.83.83-.83.8401.37.8401.83Z"/>
      <path class="cls-1" d="M125.54,85.99c0,.46-.3701.83-.8301.83s-.83-.37-.83-.83.37-.83.83-.83.8301.37.8301.83Z"/>
      <path class="cls-1" d="M128.03,85.99c0,.46-.3701.83-.8301.83s-.84-.37-.84-.83.38-.83.84-.83.8301.37.8301.83Z"/>
      <rect class="cls-1" x="106.8" y="58.7" width="20.8999" height="2.9"/>
      <rect class="cls-1" x="106.8" y="63.84" width="20.8999" height="2.9"/>
      <rect class="cls-1" x="106.8" y="68.98" width="20.8999" height="2.91"/>
      <rect class="cls-1" x="106.8" y="74.12" width="20.8999" height="2.91"/>
      <rect class="cls-1" x="106.8" y="79.15" width="20.8999" height="2.91"/>
      <path class="cls-1" d="M91.0601,26.15v24.34h-13.23v14.8l8.3099,6.34h-.79v2.4901h16.86v-21.7401h13.47v-26.23h-24.6199ZM102.21,99.92v-22.18h-16.86v10.55h-7.5199v13.15h13.23v24.59h24.6099v-26.11h-13.46ZM74.21,50.49h-13.23v-24.34h-24.62v26.23h13.62v21.7401h16.8601v-2.4901h-.8l8.1699-6.25v-14.89ZM24.98,85.16c-.45,0-.83.37-.83.83s.38.83.83.83c.46,0,.8401-.37.8401-.83s-.3801-.83-.8401-.83ZM27.47,85.16c-.46,0-.83.37-.83.83s.37.83.83.83.8301-.37.8301-.83-.3701-.83-.8301-.83ZM29.96,85.16c-.46,0-.84.37-.84.83s.38.83.84.83.8301-.37.8301-.83-.3701-.83-.8301-.83ZM32.45,85.16c-.46,0-.84.37-.84.83s.38.83.84.83.8201-.37.8201-.83-.3601-.83-.8201-.83ZM34.9399,85.16c-.46,0-.84.37-.84.83s.38.83.84.83c.4501,0,.8201-.37.8201-.83s-.37-.83-.8201-.83ZM34.9399,89.72c-1.58,0-2.8599,1.28-2.8599,2.86,0,1.57,1.2799,2.85,2.8599,2.85,1.5701,0,2.8501-1.28,2.8501-2.85,0-1.58-1.28-2.86-2.8501-2.86ZM37.4199,85.16c-.46,0-.8298.37-.8298.83s.3699.83.8298.83.8301-.37.8301-.83-.37-.83-.8301-.83ZM39.9099,85.16c-.46,0-.8298.37-.8298.83s.3699.83.8298.83.8301-.37.8301-.83-.37-.83-.8301-.83ZM42.4,85.16c-.4601,0-.84.37-.84.83s.3799.83.84.83.83-.37.83-.83-.37-.83-.83-.83ZM44.88,85.16c-.4601,0-.83.37-.83.83s.3699.83.83.83.84-.37.84-.83-.3799-.83-.84-.83ZM24.48,58.7v2.9h20.9v-2.9h-20.9ZM24.48,63.84v2.9h20.9v-2.9h-20.9ZM24.48,68.98v2.91h20.9v-2.91h-20.9ZM24.48,74.12v2.91h20.9v-2.91h-20.9ZM24.48,79.15v2.91h20.9v-2.91h-20.9ZM70.23,74.44v3.3h3.38v-3.3h-3.38ZM74.21,50.49h-13.23v-24.34h-24.62v26.23h13.62v21.7401h16.8601v-2.4901h-.8l8.1699-6.25v-14.89ZM77.75,82.68v-.12h-3.3101v.12h-.23v5.61h3.6201v-5.61h-.0801ZM78.53,74.44v3.3h3.3101v-3.3h-3.3101ZM102.21,74.12v3.62h.25v-3.62h-.25ZM102.21,99.92v-22.18h-16.86v10.55h-7.5199v13.15h13.23v24.59h24.6099v-26.11h-13.46ZM91.0601,26.15v24.34h-13.23v14.8l8.3099,6.34h-.79v2.4901h16.86v-21.7401h13.47v-26.23h-24.6199ZM115.6799,52.3799v-26.23h-24.6199v24.34h-13.23v14.8l8.3099,6.34h-.79v2.4901h16.86v-21.7401h13.47ZM85.35,88.29h-7.5199v13.15h13.23v24.59h24.6099v-26.11h-13.46v-22.18h-16.86v10.55ZM102.46,77.74v-3.62h-.25v3.62h.25ZM81.8401,74.44h-3.3101v3.3h3.3101v-3.3ZM77.75,82.68v-.12h-3.3101v.12h-.23v5.61h3.6201v-5.61h-.0801ZM74.21,65.3799v-14.89h-13.23v-24.34h-24.62v26.23h13.62v21.7401h16.8601v-2.4901h-.8l8.1699-6.25ZM70.23,74.44v3.3h3.38v-3.3h-3.38ZM45.38,79.15h-20.9v2.91h20.9v-2.91ZM45.38,74.12h-20.9v2.91h20.9v-2.91ZM45.38,68.98h-20.9v2.91h20.9v-2.91ZM45.38,63.84h-20.9v2.9h20.9v-2.9ZM45.38,58.7h-20.9v2.9h20.9v-2.9ZM44.88,85.16c-.4601,0-.83.37-.83.83s.3699.83.83.83.84-.37.84-.83-.3799-.83-.84-.83ZM42.4,85.16c-.4601,0-.84.37-.84.83s.3799.83.84.83.83-.37.83-.83-.37-.83-.83-.83ZM39.9099,85.16c-.46,0-.8298.37-.8298.83s.3699.83.8298.83.8301-.37.8301-.83-.37-.83-.8301-.83ZM37.4199,85.16c-.46,0-.8298.37-.8298.83s.3699.83.8298.83.8301-.37.8301-.83-.37-.83-.8301-.83ZM34.9399,89.72c-1.58,0-2.8599,1.28-2.8599,2.86,0,1.57,1.2799,2.85,2.8599,2.85,1.5701,0,2.8501-1.28,2.8501-2.85,0-1.58-1.28-2.86-2.8501-2.86ZM34.1,85.99c0,.46.38.83.84.83.4501,0,.8201-.37.8201-.83s-.37-.83-.8201-.83c-.46,0-.84.37-.84.83ZM33.27,85.99c0-.46-.3601-.83-.8201-.83s-.84.37-.84.83.38.83.84.83.8201-.37.8201-.83ZM29.96,85.16c-.46,0-.84.37-.84.83s.38.83.84.83.8301-.37.8301-.83-.3701-.83-.8301-.83ZM27.47,85.16c-.46,0-.83.37-.83.83s.37.83.83.83.8301-.37.8301-.83-.3701-.83-.8301-.83ZM24.98,85.16c-.45,0-.83.37-.83.83s.38.83.83.83c.46,0,.8401-.37.8401-.83s-.3801-.83-.8401-.83ZM76.0901,0C34.0701,0,0,34.0699,0,76.09s34.0701,76.09,76.0901,76.09,76.0898-34.07,76.0898-76.09S118.11,0,76.0901,0ZM118.61,99.92v29.05h-27.5499v20.01h-30.0801v-47.54h13.23v-13.15h-7.3699v-10.55h-16.8601v22.18h-13.63v26.11h24.62v2.94h-27.5601v-29.05h-13.5199v-47.54h13.5299v-29.17h27.5601V2.95h30.0801v20.2599h27.5599v29.17h13.67v47.54h-13.6801ZM115.6799,52.3799v-26.23h-24.6199v24.34h-13.23v14.8l8.3099,6.34h-.79v2.4901h16.86v-21.7401h13.47ZM91.0601,101.44v24.59h24.6099v-26.11h-13.46v-22.18h-16.86v10.55h-7.5199v13.15h13.23ZM102.46,74.12h-.25v3.62h.25v-3.62ZM81.8401,77.74v-3.3h-3.3101v3.3h3.3101ZM77.8301,88.29v-5.61h-.0801v-.12h-3.3101v.12h-.23v5.61h3.6201ZM60.98,26.15h-24.62v26.23h13.62v21.7401h16.8601v-2.4901h-.8l8.1699-6.25v-14.89h-13.23v-24.34ZM70.23,74.44v3.3h3.38v-3.3h-3.38ZM45.38,79.15h-20.9v2.91h20.9v-2.91ZM45.38,74.12h-20.9v2.91h20.9v-2.91ZM45.38,68.98h-20.9v2.91h20.9v-2.91ZM45.38,63.84h-20.9v2.9h20.9v-2.9ZM45.38,58.7h-20.9v2.9h20.9v-2.9ZM44.88,85.16c-.4601,0-.83.37-.83.83s.3699.83.83.83.84-.37.84-.83-.3799-.83-.84-.83ZM42.4,85.16c-.4601,0-.84.37-.84.83s.3799.83.84.83.83-.37.83-.83-.37-.83-.83-.83ZM39.9099,85.16c-.46,0-.8298.37-.8298.83s.3699.83.8298.83.8301-.37.8301-.83-.37-.83-.8301-.83ZM37.4199,85.16c-.46,0-.8298.37-.8298.83s.3699.83.8298.83.8301-.37.8301-.83-.37-.83-.8301-.83ZM34.9399,89.72c-1.58,0-2.8599,1.28-2.8599,2.86,0,1.57,1.2799,2.85,2.8599,2.85,1.5701,0,2.8501-1.28,2.8501-2.85,0-1.58-1.28-2.86-2.8501-2.86ZM34.1,85.99c0,.46.38.83.84.83.4501,0,.8201-.37.8201-.83s-.37-.83-.8201-.83c-.46,0-.84.37-.84.83ZM33.27,85.99c0-.46-.3601-.83-.8201-.83s-.84.37-.84.83.38.83.84.83.8201-.37.8201-.83ZM29.96,85.16c-.46,0-.84.37-.84.83s.38.83.84.83.8301-.37.8301-.83-.3701-.83-.8301-.83ZM27.47,85.16c-.46,0-.83.37-.83.83s.37.83.83.83.8301-.37.8301-.83-.3701-.83-.8301-.83ZM24.98,85.16c-.45,0-.83.37-.83.83s.38.83.83.83c.46,0,.8401-.37.8401-.83s-.3801-.83-.8401-.83ZM24.98,85.16c-.45,0-.83.37-.83.83s.38.83.83.83c.46,0,.8401-.37.8401-.83s-.3801-.83-.8401-.83ZM27.47,85.16c-.46,0-.83.37-.83.83s.37.83.83.83.8301-.37.8301-.83-.3701-.83-.8301-.83ZM29.96,85.16c-.46,0-.84.37-.84.83s.38.83.84.83.8301-.37.8301-.83-.3701-.83-.8301-.83ZM32.45,85.16c-.46,0-.84.37-.84.83s.38.83.84.83.8201-.37.8201-.83-.3601-.83-.8201-.83ZM34.9399,85.16c-.46,0-.84.37-.84.83s.38.83.84.83c.4501,0,.8201-.37.8201-.83s-.37-.83-.8201-.83ZM34.9399,89.72c-1.58,0-2.8599,1.28-2.8599,2.86,0,1.57,1.2799,2.85,2.8599,2.85,1.5701,0,2.8501-1.28,2.8501-2.85,0-1.58-1.28-2.86-2.8501-2.86ZM37.4199,85.16c-.46,0-.8298.37-.8298.83s.3699.83.8298.83.8301-.37.8301-.83-.37-.83-.8301-.83ZM39.9099,85.16c-.46,0-.8298.37-.8298.83s.3699.83.8298.83.8301-.37.8301-.83-.37-.83-.8301-.83ZM42.4,85.16c-.4601,0-.84.37-.84.83s.3799.83.84.83.83-.37.83-.83-.37-.83-.83-.83ZM44.88,85.16c-.4601,0-.83.37-.83.83s.3699.83.83.83.84-.37.84-.83-.3799-.83-.84-.83ZM24.48,58.7v2.9h20.9v-2.9h-20.9ZM24.48,63.84v2.9h20.9v-2.9h-20.9ZM24.48,68.98v2.91h20.9v-2.91h-20.9ZM24.48,74.12v2.91h20.9v-2.91h-20.9ZM24.48,79.15v2.91h20.9v-2.91h-20.9ZM70.23,74.44v3.3h3.38v-3.3h-3.38ZM74.21,50.49h-13.23v-24.34h-24.62v26.23h13.62v21.7401h16.8601v-2.4901h-.8l8.1699-6.25v-14.89ZM77.75,82.68v-.12h-3.3101v.12h-.23v5.61h3.6201v-5.61h-.0801ZM78.53,74.44v3.3h3.3101v-3.3h-3.3101ZM102.21,74.12v3.62h.25v-3.62h-.25ZM102.21,99.92v-22.18h-16.86v10.55h-7.5199v13.15h13.23v24.59h24.6099v-26.11h-13.46ZM91.0601,26.15v24.34h-13.23v14.8l8.3099,6.34h-.79v2.4901h16.86v-21.7401h13.47v-26.23h-24.6199ZM91.0601,26.15v24.34h-13.23v14.8l8.3099,6.34h-.79v2.4901h16.86v-21.7401h13.47v-26.23h-24.6199ZM102.21,99.92v-22.18h-16.86v10.55h-7.5199v13.15h13.23v24.59h24.6099v-26.11h-13.46ZM102.21,74.12v3.62h.25v-3.62h-.25ZM78.53,74.44v3.3h3.3101v-3.3h-3.3101ZM77.75,82.68v-.12h-3.3101v.12h-.23v5.61h3.6201v-5.61h-.0801ZM74.21,50.49h-13.23v-24.34h-24.62v26.23h13.62v21.7401h16.8601v-2.4901h-.8l8.1699-6.25v-14.89ZM70.23,74.44v3.3h3.38v-3.3h-3.38ZM24.48,79.15v2.91h20.9v-2.91h-20.9ZM24.48,74.12v2.91h20.9v-2.91h-20.9ZM24.48,68.98v2.91h20.9v-2.91h-20.9ZM24.48,63.84v2.9h20.9v-2.9h-20.9ZM24.48,58.7v2.9h20.9v-2.9h-20.9ZM44.88,85.16c-.4601,0-.83.37-.83.83s.3699.83.83.83.84-.37.84-.83-.3799-.83-.84-.83ZM42.4,85.16c-.4601,0-.84.37-.84.83s.3799.83.84.83.83-.37.83-.83-.37-.83-.83-.83ZM39.9099,85.16c-.46,0-.8298.37-.8298.83s.3699.83.8298.83.8301-.37.8301-.83-.37-.83-.8301-.83ZM37.4199,85.16c-.46,0-.8298.37-.8298.83s.3699.83.8298.83.8301-.37.8301-.83-.37-.83-.8301-.83ZM34.9399,89.72c-1.58,0-2.8599,1.28-2.8599,2.86,0,1.57,1.2799,2.85,2.8599,2.85,1.5701,0,2.8501-1.28,2.8501-2.85,0-1.58-1.28-2.86-2.8501-2.86ZM34.9399,85.16c-.46,0-.84.37-.84.83s.38.83.84.83c.4501,0,.8201-.37.8201-.83s-.37-.83-.8201-.83ZM32.45,85.16c-.46,0-.84.37-.84.83s.38.83.84.83.8201-.37.8201-.83-.3601-.83-.8201-.83ZM29.96,85.16c-.46,0-.84.37-.84.83s.38.83.84.83.8301-.37.8301-.83-.3701-.83-.8301-.83ZM27.47,85.16c-.46,0-.83.37-.83.83s.37.83.83.83.8301-.37.8301-.83-.3701-.83-.8301-.83ZM24.98,85.16c-.45,0-.83.37-.83.83s.38.83.83.83c.46,0,.8401-.37.8401-.83s-.3801-.83-.8401-.83Z"/>
      <path d="M102.21,74.12v3.62h.25v-3.62h-.25Z"/>
      <rect x="70.3" y="74.44" width="3.3099" height="3.3"/>
      <rect x="74.4399" y="82.56" width="3.3101" height="5.73"/>
      <rect class="cls-1" x="70.3" y="74.44" width="3.3099" height="3.3"/>
      <rect class="cls-1" x="78.53" y="74.44" width="3.3101" height="3.3"/>
      <rect class="cls-1" x="74.4399" y="82.56" width="3.3101" height="5.73"/>
      <path d="M102.21,74.12v3.62h.25v-3.62h-.25ZM78.53,74.44v3.3h3.3101v-3.3h-3.3101ZM77.75,82.68v-.12h-3.3101v.12h-.23v5.61h3.6201v-5.61h-.0801ZM70.23,74.44v3.3h3.38v-3.3h-3.38Z"/>
      <rect class="cls-1" x="70.23" y="74.44" width="3.3" height="3.3"/>
      <rect class="cls-1" x="78.53" y="74.44" width="3.3" height="3.3"/>
      <rect class="cls-1" x="74.21" y="82.68" width="3.6201" height="5.61"/>
    </g>
  </g>
</svg>