<svg fill="#d9d9d9" viewBox="0 0 512 512" id="_x30_1" version="1.1" xml:space="preserve" xmlns="http://www.w3.org/2000/svg" xmlns:xlink="http://www.w3.org/1999/xlink" stroke="#d9d9d9"><g id="SVGRepo_bgCarrier" stroke-width="0"></g><g id="SVGRepo_tracerCarrier" stroke-linecap="round" stroke-linejoin="round"></g><g id="SVGRepo_iconCarrier"> <g> <path d="M157.114,188.969h28.438c3.269-13.719,7.51-26.333,12.545-37.485c-9.62,5.348-18.555,12.064-26.552,20.061 C166.14,176.95,161.323,182.786,157.114,188.969z"></path> <path d="M157.114,323.031c4.21,6.183,9.026,12.019,14.431,17.424c7.997,7.997,16.932,14.713,26.552,20.061 c-5.036-11.152-9.276-23.766-12.545-37.485H157.114z"></path> <path d="M354.886,188.969c-4.21-6.183-9.026-12.019-14.431-17.424c-7.997-7.997-16.932-14.713-26.552-20.061 c5.036,11.152,9.276,23.766,12.545,37.485H354.886z"></path> <path d="M278.452,162.043c-9.626-19.252-19.283-25.48-22.452-25.48s-12.826,6.228-22.452,25.48 c-3.987,7.975-7.409,17.059-10.208,26.926h65.32C285.86,179.102,282.439,170.017,278.452,162.043z"></path> <path d="M233.548,349.957c9.626,19.252,19.283,25.48,22.452,25.48s12.826-6.228,22.452-25.48 c3.987-7.975,7.409-17.059,10.208-26.926h-65.32C226.14,332.898,229.561,341.983,233.548,349.957z"></path> <path d="M178,256c0-10.428,0.516-20.614,1.492-30.469h-39.021c-2.573,9.825-3.909,20.043-3.909,30.469s1.335,20.644,3.909,30.469 h39.021C178.516,276.614,178,266.428,178,256z"></path> <path d="M334,256c0,10.428-0.516,20.614-1.492,30.469h39.021c2.573-9.825,3.909-20.043,3.909-30.469s-1.335-20.644-3.909-30.469 h-39.021C333.484,235.386,334,245.572,334,256z"></path> <path d="M256,0C114.615,0,0,114.615,0,256s114.615,256,256,256s256-114.615,256-256S397.385,0,256,0z M256,412 c-86.156,0-156-69.844-156-156s69.844-156,156-156c86.156,0,156,69.844,156,156S342.156,412,256,412z"></path> <path d="M216.277,225.531c-1.125,9.901-1.714,20.127-1.714,30.469s0.589,20.568,1.714,30.469h79.447 c1.125-9.901,1.714-20.127,1.714-30.469s-0.589-20.568-1.714-30.469H216.277z"></path> <path d="M313.903,360.516c9.62-5.348,18.555-12.064,26.552-20.061c5.405-5.405,10.221-11.241,14.431-17.424h-28.438 C323.179,336.75,318.939,349.364,313.903,360.516z"></path> </g> </g></svg>