<svg version="1.1" id="Layer_1" xmlns="http://www.w3.org/2000/svg" xmlns:xlink="http://www.w3.org/1999/xlink" x="0px" y="0px"
	 width="100%" viewBox="0 0 225 225" enable-background="new 0 0 225 225" xml:space="preserve">
<path fill="#FEFEFC" opacity="1.000000" stroke="none" 
	d="
M1.000000,99.000000 
	C1.000000,66.407158 1.000000,33.814312 1.000000,1.000000 
	C32.687218,1.000000 64.374947,1.000000 96.413666,1.364845 
	C95.042076,2.222987 93.282097,2.613734 91.603058,3.226360 
	C81.328751,6.975136 71.072807,10.774207 60.461052,14.650023 
	C53.034943,20.041590 45.958519,25.339649 38.570591,30.790291 
	C35.052383,34.154018 31.845680,37.365166 28.650196,40.600365 
	C28.661413,40.624420 28.661512,40.675297 28.358549,40.760292 
	C27.648224,41.528824 27.240862,42.212360 26.884930,42.915710 
	C26.936357,42.935516 26.883696,42.838688 26.579414,42.902946 
	C25.827686,43.609249 25.380239,44.251289 24.647552,45.076954 
	C21.229145,50.167145 18.095978,55.073711 14.713947,60.213882 
	C11.669906,67.308342 8.874728,74.169189 5.886946,81.359375 
	C4.129560,87.459145 2.564780,93.229576 1.000000,99.000000 
z"/>
<path fill="#FEFDFB" opacity="1.000000" stroke="none" 
	d="
M226.000000,131.000000 
	C226.000000,162.593979 226.000000,194.187943 226.000000,226.000000 
	C194.312775,226.000000 162.625046,226.000000 130.566956,225.633148 
	C134.747238,224.560501 138.957047,222.646301 143.480530,221.632446 
	C157.891678,218.402512 170.993301,211.808456 182.657303,202.011810 
	C186.504379,198.653015 190.044205,195.396057 193.877869,192.028473 
	C198.768341,185.898743 203.364975,179.879608 208.274750,173.734283 
	C210.765305,169.471024 212.942703,165.333969 215.379425,160.948853 
	C217.505005,155.486969 219.371262,150.273148 221.474731,144.829849 
	C221.814743,143.732422 221.917557,142.864456 222.196777,141.712524 
	C222.458832,140.994400 222.544464,140.560226 222.826202,139.781860 
	C224.150955,136.673141 221.093964,132.431473 226.000000,131.000000 
z"/>
<path fill="#FEFEFC" opacity="1.000000" stroke="none" 
	d="
M128.000000,1.000000 
	C160.593216,1.000000 193.186447,1.000000 226.000000,1.000000 
	C226.000000,33.020557 226.000000,65.041618 225.653473,97.365189 
	C224.211182,93.443718 223.115402,89.219749 222.035843,84.606934 
	C220.763596,80.462074 219.475128,76.706055 218.160736,72.638596 
	C217.810120,71.828102 217.485443,71.329041 217.164032,70.883110 
	C217.167297,70.936241 217.240738,70.859161 217.237549,70.624695 
	C217.234344,70.390236 216.969681,70.003075 216.952789,69.675812 
	C216.436752,68.660103 215.937576,67.971657 215.449356,66.941902 
	C211.007645,59.356247 206.555008,52.111897 202.077469,44.926762 
	C202.052582,44.985981 202.144150,44.895866 202.053314,44.577217 
	C200.662445,42.786816 199.362411,41.315063 197.939270,39.535179 
	C194.279480,35.778782 190.742783,32.330505 187.030731,28.591713 
	C182.957657,25.502859 179.059937,22.704527 174.986145,19.609442 
	C171.921753,17.789112 169.033432,16.265533 166.159363,14.704477 
	C166.173599,14.667001 166.171082,14.586855 165.975052,14.311804 
	C155.450699,10.389914 145.127792,6.727596 134.789764,3.108467 
	C132.554428,2.325921 130.264679,1.698744 128.000000,1.000000 
z"/>
<path fill="#FEFDFD" opacity="1.000000" stroke="none" 
	d="
M97.000000,226.000000 
	C65.079735,226.000000 33.159473,226.000000 1.000000,226.000000 
	C1.000000,199.646255 1.000000,173.291779 1.397910,146.467453 
	C2.856922,145.999939 3.918024,146.002274 5.135832,146.031097 
	C5.292538,146.057602 5.608008,146.096481 5.706941,146.080948 
	C5.805874,146.065414 5.995930,146.002228 5.954452,146.352859 
	C6.321700,148.028030 6.730425,149.352585 7.091011,151.064133 
	C7.609962,152.641022 8.177052,153.830902 8.861749,155.256592 
	C8.985444,155.667999 8.991532,155.843567 9.016037,156.179245 
	C9.091979,156.551468 9.203093,156.730286 9.579403,157.152863 
	C9.846907,157.655518 9.902800,157.881119 9.957817,158.454834 
	C10.519197,159.878220 11.081455,160.953522 11.750687,162.274414 
	C11.900186,162.693497 11.942710,162.866959 12.002531,163.333588 
	C12.342096,164.083679 12.664364,164.540588 12.995615,164.998932 
	C13.004599,165.000351 12.999170,165.018097 13.062932,165.220184 
	C13.264955,165.683792 13.471596,165.869003 13.891937,166.146790 
	C14.037258,166.315643 14.112288,166.754837 14.078619,167.129272 
	C14.704828,168.334503 15.364707,169.165314 16.255859,170.238602 
	C18.100060,172.761185 19.712986,175.041306 21.427944,177.657379 
	C23.058367,179.917068 24.586760,181.840790 26.179123,184.100250 
	C27.486866,185.761795 28.730640,187.087585 30.037773,188.540375 
	C30.214592,188.825562 30.360598,188.943390 30.685577,189.349579 
	C36.884850,194.878021 42.937691,200.077744 49.054958,205.355743 
	C49.119389,205.434021 49.312561,205.495636 49.380447,205.524170 
	C49.448338,205.552689 49.567570,205.639160 49.719589,205.902161 
	C51.135078,206.906006 52.398552,207.646866 53.666016,208.406982 
	C53.670002,208.426270 53.646168,208.459991 53.877289,208.709778 
	C66.139000,216.670654 79.260124,221.555984 93.269699,224.206924 
	C94.579338,224.454758 95.759644,225.386047 97.000000,226.000000 
z"/>
<path fill="#DC582B" opacity="1.000000" stroke="none" 
	d="
M97.468658,226.000000 
	C95.759644,225.386047 94.579338,224.454758 93.269699,224.206924 
	C79.260124,221.555984 66.139000,216.670654 54.278774,208.548920 
	C58.321609,207.425507 62.190334,206.119415 66.067139,206.094955 
	C94.125481,205.918015 122.185448,205.996170 150.244904,206.009628 
	C151.899338,206.010422 153.564163,206.057114 155.206375,206.241180 
	C163.462509,207.166443 171.876343,209.433807 179.053802,202.714249 
	C179.739227,202.072556 181.232056,202.293289 182.350052,202.113632 
	C170.993301,211.808456 157.891678,218.402512 143.480530,221.632446 
	C138.957047,222.646301 134.747238,224.560501 130.098297,225.633148 
	C119.312439,226.000000 108.624878,226.000000 97.468658,226.000000 
M165.555466,210.383484 
	C165.222549,209.782394 164.889633,209.181305 164.556717,208.580215 
	C164.147354,208.990265 163.737976,209.400299 163.328598,209.810333 
	C163.914490,210.129791 164.500381,210.449265 165.555466,210.383484 
z"/>
<path fill="#E47C33" opacity="1.000000" stroke="none" 
	d="
M1.000000,124.000000 
	C1.000000,123.555664 1.000000,123.111328 1.372376,122.325691 
	C2.932225,120.795563 4.119699,119.606735 5.633646,118.091072 
	C6.131991,119.152122 6.565938,120.076057 6.668154,121.050285 
	C6.035865,121.793373 5.735306,122.486168 5.434748,123.178970 
	C5.798216,123.305779 6.161685,123.432587 6.525152,123.559395 
	C6.683474,122.706261 6.841794,121.853134 7.415444,121.053574 
	C17.694180,121.380035 27.556959,121.688972 37.422127,121.860573 
	C38.253994,121.875046 39.521233,121.173866 39.872089,120.456093 
	C41.710896,116.694305 43.319447,112.819962 45.333710,108.986496 
	C46.093662,108.990067 46.527920,108.991859 46.969948,109.365921 
	C47.652317,110.513481 48.326923,111.288788 49.001175,112.307220 
	C49.000816,112.550339 49.005177,113.036591 49.005066,113.277725 
	C49.004955,113.518860 49.002857,114.001137 49.009315,114.227585 
	C49.015770,114.454041 49.017654,114.907135 48.677032,115.026932 
	C48.352245,116.597740 47.854992,118.326431 48.465958,119.455376 
	C52.919113,127.683914 57.595112,135.791870 61.765480,143.948593 
	C58.067242,143.639313 54.806957,143.080750 51.540726,143.043472 
	C41.125885,142.924561 30.708687,142.967255 20.292694,143.013412 
	C15.338278,143.035370 10.136592,142.026077 5.995930,146.002228 
	C5.995930,146.002228 5.805874,146.065414 5.763228,145.797165 
	C5.486111,145.012131 5.251640,144.495331 5.041679,143.581604 
	C4.013177,137.801468 2.960166,132.418304 2.227042,126.988312 
	C4.587537,124.616676 2.705508,124.354752 1.000000,124.000000 
M42.797890,119.394722 
	C42.793365,119.787842 42.788837,120.180969 42.784309,120.574089 
	C42.947430,120.575348 43.252266,120.587715 43.253166,120.576256 
	C43.283825,120.185249 43.285664,119.791969 42.797890,119.394722 
z"/>
<path fill="#E98C38" opacity="1.000000" stroke="none" 
	d="
M46.962181,108.993660 
	C46.527920,108.991859 46.093662,108.990067 45.294579,108.684357 
	C43.953068,108.253525 42.976379,108.126610 41.999847,107.999847 
	C42.000000,108.000000 42.000305,108.000275 41.954342,107.626907 
	C39.835892,106.174583 37.866375,104.678833 35.661880,104.134193 
	C33.468269,103.592262 31.035591,104.080673 28.713121,103.985703 
	C22.153618,103.717453 14.988307,101.655525 9.252374,103.677704 
	C5.409759,105.032410 3.667712,104.349625 1.000000,103.000000 
	C1.000000,101.933327 1.000000,100.866661 1.000000,99.399994 
	C2.564780,93.229576 4.129560,87.459145 6.143959,81.587326 
	C7.322958,82.182167 8.055340,83.488144 8.781274,83.484573 
	C23.153540,83.413841 37.524754,83.145485 51.897064,83.049034 
	C54.069740,83.034447 56.246830,83.677002 57.620319,83.890816 
	C59.789970,82.808762 61.527481,81.942230 63.205906,81.433411 
	C58.074375,90.438927 53.001926,99.086731 47.773689,107.630264 
	C47.444618,107.801781 47.271343,108.077568 47.120056,108.525307 
	C47.142052,108.697258 46.962181,108.993660 46.962181,108.993660 
z"/>
<path fill="#E57D33" opacity="1.000000" stroke="none" 
	d="
M226.000000,130.539368 
	C221.093964,132.431473 224.150955,136.673141 222.474274,139.813385 
	C220.567795,139.463318 219.209351,138.737534 217.850906,138.011734 
	C201.278061,139.028625 184.396667,139.123474 167.603485,138.461609 
	C171.816818,131.076324 175.931290,124.040932 180.307083,117.190720 
	C184.496124,117.917168 188.416412,118.850632 192.352966,118.925179 
	C203.565094,119.137505 214.783859,118.999901 226.000000,119.000000 
	C226.000000,122.692909 226.000000,126.385826 226.000000,130.539368 
z"/>
<path fill="#E98C37" opacity="1.000000" stroke="none" 
	d="
M222.019623,84.995781 
	C223.115402,89.219749 224.211182,93.443718 225.653473,97.833847 
	C226.000000,100.041664 226.000000,102.083336 225.588837,104.561386 
	C209.002762,101.239128 192.621307,103.444260 176.045380,103.148392 
	C172.831833,97.707085 169.893936,92.423180 166.883835,86.899536 
	C166.645081,86.352196 166.397491,86.138496 165.943237,85.894958 
	C165.817612,85.771233 165.777695,85.420845 165.979218,85.112335 
	C184.793686,84.867805 203.406662,84.931793 222.019623,84.995781 
z"/>
<path fill="#F1B344" opacity="1.000000" stroke="none" 
	d="
M127.531342,1.000000 
	C130.264679,1.698744 132.554428,2.325921 134.789764,3.108467 
	C145.127792,6.727596 155.450699,10.389914 165.662933,14.547636 
	C164.471252,15.222343 163.389679,15.554942 162.321167,15.517299 
	C159.491928,15.417629 156.668304,15.157781 154.198105,14.986356 
	C151.838516,14.267071 149.762238,13.091938 147.680344,13.081877 
	C121.688660,12.956274 95.696159,12.999640 69.764587,12.999640 
	C69.145798,18.873896 65.971970,17.143740 63.304390,15.979601 
	C63.902538,15.629192 64.219872,15.321577 64.537201,15.013962 
	C64.328773,14.832560 64.120346,14.651157 63.911919,14.469755 
	C63.600552,14.972075 63.289181,15.474397 62.631920,15.937336 
	C61.794262,15.450809 61.302498,15.003663 60.810738,14.556517 
	C71.072807,10.774207 81.328751,6.975136 91.603058,3.226360 
	C93.282097,2.613734 95.042076,2.222987 96.882324,1.364845 
	C107.020897,1.000000 117.041786,1.000000 127.531342,1.000000 
z"/>
<path fill="#E68435" opacity="1.000000" stroke="none" 
	d="
M176.321030,103.305786 
	C192.621307,103.444260 209.002762,101.239128 225.588837,104.998886 
	C226.000000,109.356903 226.000000,113.713799 226.000000,118.535355 
	C214.783859,118.999901 203.565094,119.137505 192.352966,118.925179 
	C188.416412,118.850632 184.496124,117.917168 180.240814,116.851646 
	C178.939407,115.870392 177.965576,115.413399 176.994873,114.717316 
	C176.997986,114.478218 176.996338,114.000000 177.320450,114.000183 
	C178.402374,113.315941 179.160172,112.631508 179.948517,111.582275 
	C178.759720,108.580246 177.540375,105.943016 176.321030,103.305786 
z"/>
<path fill="#E68334" opacity="1.000000" stroke="none" 
	d="
M1.000000,103.468269 
	C3.667712,104.349625 5.409759,105.032410 9.252374,103.677704 
	C14.988307,101.655525 22.153618,103.717453 28.713121,103.985703 
	C31.035591,104.080673 33.468269,103.592262 35.661880,104.134193 
	C37.866375,104.678833 39.835892,106.174583 41.718960,107.795547 
	C41.492184,108.873314 41.454826,109.409058 41.417469,109.944801 
	C41.576187,109.947388 41.734905,109.949966 41.893620,109.952553 
	C41.928978,109.301598 41.964336,108.650650 41.999695,107.999695 
	C42.976379,108.126610 43.953068,108.253525 44.968884,108.682587 
	C43.319447,112.819962 41.710896,116.694305 39.872089,120.456093 
	C39.521233,121.173866 38.253994,121.875046 37.422127,121.860573 
	C27.556959,121.688972 17.694180,121.380035 7.415386,121.053574 
	C7.000000,121.000000 6.999886,121.000000 6.999886,121.000000 
	C6.565938,120.076057 6.131991,119.152122 5.633646,118.091072 
	C4.119699,119.606735 2.932225,120.795563 1.372376,121.992195 
	C1.000000,115.978844 1.000000,109.957695 1.000000,103.468269 
z"/>
<path fill="#FBF7F0" opacity="1.000000" stroke="none" 
	d="
M1.907154,127.035126 
	C2.960166,132.418304 4.013177,137.801468 5.030033,143.919006 
	C4.988961,145.103790 4.984044,145.554214 4.979126,146.004608 
	C3.918024,146.002274 2.856922,145.999939 1.397910,145.998795 
	C1.000000,139.978851 1.000000,133.957703 1.226137,127.493881 
	C1.452274,127.051208 1.907154,127.035126 1.907154,127.035126 
z"/>
<path fill="#E68334" opacity="1.000000" stroke="none" 
	d="
M2.227042,126.988312 
	C1.907154,127.035126 1.452274,127.051208 1.226137,127.025604 
	C1.000000,126.250000 1.000000,125.500000 1.000000,124.375000 
	C2.705508,124.354752 4.587537,124.616676 2.227042,126.988312 
z"/>
<path fill="#EEA43D" opacity="1.000000" stroke="none" 
	d="
M187.206085,28.882235 
	C190.742783,32.330505 194.279480,35.778782 197.922089,39.942375 
	C197.784027,43.639900 198.873352,45.327229 202.144150,44.895866 
	C202.144150,44.895866 202.052582,44.985981 202.048126,45.280930 
	C202.097244,46.530525 202.150803,47.485172 202.185242,48.098999 
	C198.200150,48.404892 194.325897,48.926075 190.447510,48.958977 
	C177.636917,49.067680 164.824310,49.062592 152.013565,48.962784 
	C148.047668,48.931889 145.236053,50.243313 143.749054,54.229347 
	C143.512772,54.279728 143.049942,54.140949 142.904877,53.800873 
	C141.170807,52.639847 139.581818,51.818897 137.699188,50.701763 
	C123.370003,50.270641 109.333656,50.184361 95.299538,49.959236 
	C92.531120,49.914829 89.771294,49.335613 86.578110,49.000458 
	C67.306648,48.494610 48.464584,47.991341 29.205885,47.476944 
	C28.476011,45.865925 35.647156,42.336746 28.638977,40.576309 
	C31.845680,37.365166 35.052383,34.154018 38.634521,31.151625 
	C40.073292,31.596186 41.403595,32.361851 42.156902,31.982309 
	C47.269684,29.406309 52.710312,30.007450 58.091457,30.005863 
	C95.683350,29.994778 133.275330,29.962639 170.867050,30.044403 
	C175.911682,30.055374 180.954987,30.667536 186.052917,31.138775 
	C186.192062,31.325258 186.277206,31.374266 186.362335,31.423277 
	C186.241959,31.281851 186.121582,31.140421 186.032349,30.675402 
	C186.444366,29.861954 186.825226,29.372095 187.206085,28.882235 
z"/>
<path fill="#F0AC40" opacity="1.000000" stroke="none" 
	d="
M185.998917,31.001301 
	C180.954987,30.667536 175.911682,30.055374 170.867050,30.044403 
	C133.275330,29.962639 95.683350,29.994778 58.091457,30.005863 
	C52.710312,30.007450 47.269684,29.406309 42.156902,31.982309 
	C41.403595,32.361851 40.073292,31.596186 38.946022,30.999044 
	C45.958519,25.339649 53.034943,20.041590 60.461052,14.650023 
	C61.302498,15.003663 61.794262,15.450809 62.643112,15.948994 
	C63.000198,16.000032 63.023567,16.022394 63.023567,16.022394 
	C65.971970,17.143740 69.145798,18.873896 69.764587,12.999640 
	C95.696159,12.999640 121.688660,12.956274 147.680344,13.081877 
	C149.762238,13.091938 151.838516,14.267071 154.198105,14.986356 
	C156.668304,15.157781 159.491928,15.417629 162.321167,15.517299 
	C163.389679,15.554942 164.471252,15.222343 165.858978,14.822686 
	C166.171082,14.586855 166.173599,14.667001 166.242020,15.057730 
	C167.825027,16.665421 169.214981,18.112585 170.895798,19.022484 
	C172.118958,19.684631 173.726212,19.637245 175.162231,19.906193 
	C179.059937,22.704527 182.957657,25.502859 187.030731,28.591715 
	C186.825226,29.372095 186.444366,29.861954 186.031738,30.675907 
	C186.000000,31.000000 185.998917,31.001301 185.998917,31.001301 
z"/>
<path fill="#EB963A" opacity="1.000000" stroke="none" 
	d="
M63.264992,81.075699 
	C61.527481,81.942230 59.789970,82.808762 57.620319,83.890816 
	C56.246830,83.677002 54.069740,83.034447 51.897064,83.049034 
	C37.524754,83.145485 23.153540,83.413841 8.781274,83.484573 
	C8.055340,83.488144 7.322958,82.182167 6.336564,81.257988 
	C8.874728,74.169189 11.669906,67.308342 15.100206,60.381767 
	C17.692305,60.543926 19.648600,60.962471 21.606365,60.969456 
	C36.915218,61.024082 52.224632,60.954803 67.533112,61.048645 
	C69.800514,61.062542 72.063889,61.731621 74.243034,62.403278 
	C74.051880,63.116806 73.946823,63.524635 73.583138,64.144524 
	C69.971329,69.929611 66.618164,75.502655 63.264992,81.075699 
z"/>
<path fill="#EE9E3D" opacity="1.000000" stroke="none" 
	d="
M74.329132,62.097580 
	C72.063889,61.731621 69.800514,61.062542 67.533112,61.048645 
	C52.224632,60.954803 36.915218,61.024082 21.606365,60.969456 
	C19.648600,60.962471 17.692305,60.543926 15.349070,60.148159 
	C18.095978,55.073711 21.229145,50.167145 24.844452,45.329750 
	C25.845625,44.545509 26.364660,43.692097 26.883696,42.838688 
	C26.883696,42.838688 26.936357,42.935516 27.246155,42.905914 
	C27.924471,42.142639 28.292992,41.408970 28.661514,40.675297 
	C28.661512,40.675297 28.661413,40.624420 28.650196,40.600365 
	C35.647156,42.336746 28.476011,45.865925 29.205885,47.476944 
	C48.464584,47.991341 67.306648,48.494610 86.479370,49.256363 
	C87.204376,50.341473 87.598740,51.168091 87.990242,52.249935 
	C87.985176,52.675266 87.982979,52.845371 87.749588,53.016487 
	C87.518394,53.017502 87.056023,53.013550 86.848907,53.087524 
	C86.372734,53.308006 86.190056,53.526638 85.763535,53.884232 
	C85.215355,54.005436 84.997414,54.059803 84.496048,54.168785 
	C83.828804,54.204117 83.444969,54.184830 82.861977,53.903778 
	C81.706703,55.198601 80.750595,56.755184 79.787399,58.269932 
	C79.780319,58.228096 79.852501,58.183472 79.794456,57.917301 
	C79.448143,57.448574 79.159882,57.246021 78.540680,57.063492 
	C76.916214,58.754868 75.622673,60.426224 74.329132,62.097580 
z"/>
<path fill="#EEA43D" opacity="1.000000" stroke="none" 
	d="
M26.579414,42.902946 
	C26.364660,43.692097 25.845625,44.545509 25.129692,45.146126 
	C25.380239,44.251289 25.827686,43.609249 26.579414,42.902946 
z"/>
<path fill="#EEA43D" opacity="1.000000" stroke="none" 
	d="
M28.358551,40.760292 
	C28.292992,41.408970 27.924471,42.142639 27.194725,42.886105 
	C27.240862,42.212360 27.648224,41.528824 28.358551,40.760292 
z"/>
<path fill="#E0662C" opacity="1.000000" stroke="none" 
	d="
M26.115154,183.764511 
	C24.586760,181.840790 23.058367,179.917068 21.810101,177.489944 
	C24.871605,173.655334 28.621658,172.911591 32.693001,172.998199 
	C48.465565,173.333710 64.238281,173.661942 80.212830,174.250732 
	C81.285110,173.964340 82.155495,173.420105 83.488785,172.804947 
	C85.610809,172.723495 87.269943,172.704147 88.929070,172.703781 
	C106.360374,172.700027 123.791679,172.706696 141.222961,172.687027 
	C143.092697,172.684921 145.841309,173.378769 144.123383,169.427551 
	C144.987625,168.642563 145.765945,168.198044 146.745453,167.946167 
	C147.493591,168.842041 148.040558,169.545273 148.767410,170.479767 
	C149.715134,169.093658 150.428818,168.049866 151.407013,167.254578 
	C152.409760,169.287598 153.147995,171.072128 153.945526,172.999985 
	C168.717270,172.999985 183.310974,173.092361 197.901535,172.918930 
	C200.685196,172.885849 203.456390,171.803528 206.654404,171.114594 
	C206.855133,171.536255 207.408356,172.698380 207.961594,173.860489 
	C203.364975,179.879608 198.768341,185.898743 193.403900,191.993103 
	C186.186340,191.712234 179.737350,191.063843 173.286789,191.047913 
	C134.322876,190.951614 95.358459,190.949905 56.394569,191.053238 
	C50.452187,191.068985 44.347290,189.743103 37.879456,193.333115 
	C39.257294,189.820206 41.572701,186.842728 36.798012,185.297409 
	C37.132652,190.707138 33.160717,188.652573 30.539145,189.020874 
	C30.360598,188.943390 30.214592,188.825562 30.074486,188.133820 
	C30.296064,186.240433 30.544283,184.880646 30.933668,182.747513 
	C28.822788,183.193039 27.468971,183.478775 26.115154,183.764511 
M117.499374,175.996338 
	C123.564407,175.996338 129.629440,175.996338 135.694473,175.996338 
	C135.684372,175.760162 135.674271,175.523972 135.664154,175.287796 
	C120.486076,175.287796 105.308006,175.287796 90.129929,175.287796 
	C90.129631,175.523972 90.129333,175.760162 90.129036,175.996338 
	C98.919243,175.996338 107.709457,175.996338 117.499374,175.996338 
z"/>
<path fill="#DE5F2C" opacity="1.000000" stroke="none" 
	d="
M30.685577,189.349579 
	C33.160717,188.652573 37.132652,190.707138 36.798012,185.297409 
	C41.572701,186.842728 39.257294,189.820206 37.879456,193.333115 
	C44.347290,189.743103 50.452187,191.068985 56.394569,191.053238 
	C95.358459,190.949905 134.322876,190.951614 173.286789,191.047913 
	C179.737350,191.063843 186.186340,191.712234 193.110046,192.103729 
	C190.044205,195.396057 186.504379,198.653015 182.657303,202.011810 
	C181.232056,202.293289 179.739227,202.072556 179.053802,202.714249 
	C171.876343,209.433807 163.462509,207.166443 155.206375,206.241180 
	C153.564163,206.057114 151.899338,206.010422 150.244904,206.009628 
	C122.185448,205.996170 94.125481,205.918015 66.067139,206.094955 
	C62.190334,206.119415 58.321609,207.425507 54.047653,208.299133 
	C53.646168,208.459991 53.670002,208.426270 53.744148,208.002029 
	C52.401386,206.931580 50.984478,206.285370 49.567570,205.639160 
	C49.567570,205.639160 49.448338,205.552689 49.562603,205.263718 
	C49.584381,204.645401 49.491890,204.316040 49.399399,203.986694 
	C49.263107,204.416946 49.126816,204.847214 48.990528,205.277466 
	C42.937691,200.077744 36.884850,194.878021 30.685577,189.349579 
M44.798473,193.393250 
	C44.794308,193.786224 44.790142,194.179214 44.785976,194.572189 
	C44.949085,194.573807 45.253975,194.586349 45.254814,194.575485 
	C45.284927,194.184372 45.286655,193.791061 44.798473,193.393250 
z"/>
<path fill="#E47432" opacity="1.000000" stroke="none" 
	d="
M167.504623,138.811508 
	C184.396667,139.123474 201.278061,139.028625 217.850906,138.011734 
	C219.209351,138.737534 220.567795,139.463318 222.278168,140.157593 
	C222.544464,140.560226 222.458832,140.994400 221.914886,141.814804 
	C220.042221,141.877258 218.627899,141.553467 217.213562,141.229691 
	C216.998505,141.515564 216.783463,141.801437 216.568420,142.087311 
	C218.124786,143.077988 219.681152,144.068649 221.237518,145.059326 
	C219.371262,150.273148 217.505005,155.486969 215.214859,160.750504 
	C209.914749,162.612503 209.959503,159.031204 209.850388,156.138000 
	C208.155716,156.463272 206.761948,156.954666 205.364822,156.964432 
	C190.924225,157.065216 176.482529,157.149246 162.043213,157.014175 
	C160.920456,157.003677 159.813477,155.306488 158.742737,154.066681 
	C161.692413,148.763901 164.598511,143.787704 167.504623,138.811508 
z"/>
<path fill="#E26D2F" opacity="1.000000" stroke="none" 
	d="
M158.699173,154.393250 
	C159.813477,155.306488 160.920456,157.003677 162.043213,157.014175 
	C176.482529,157.149246 190.924225,157.065216 205.364822,156.964432 
	C206.761948,156.954666 208.155716,156.463272 209.850388,156.138000 
	C209.959503,159.031204 209.914749,162.612503 214.955536,160.998566 
	C212.942703,165.333969 210.765305,169.471024 208.274750,173.734283 
	C207.408356,172.698380 206.855133,171.536255 206.654404,171.114594 
	C203.456390,171.803528 200.685196,172.885849 197.901535,172.918930 
	C183.310974,173.092361 168.717270,172.999985 153.945526,172.999985 
	C153.147995,171.072128 152.409760,169.287598 151.476410,166.921402 
	C153.753922,162.357574 156.226547,158.375412 158.699173,154.393250 
z"/>
<path fill="#E57D33" opacity="1.000000" stroke="none" 
	d="
M221.474731,144.829849 
	C219.681152,144.068649 218.124786,143.077988 216.568420,142.087311 
	C216.783463,141.801437 216.998505,141.515564 217.213562,141.229691 
	C218.627899,141.553467 220.042221,141.877258 221.738464,142.098785 
	C221.917557,142.864456 221.814743,143.732422 221.474731,144.829849 
z"/>
<path fill="#EA9439" opacity="1.000000" stroke="none" 
	d="
M222.035843,84.606934 
	C203.406662,84.931793 184.793686,84.867805 165.730194,84.860367 
	C163.150085,81.023224 161.020523,77.129524 158.950500,72.856171 
	C161.348907,63.999695 161.348907,63.999691 170.809921,63.999691 
	C181.108383,63.999691 191.411209,64.174637 201.703323,63.919193 
	C206.233337,63.806763 210.051895,63.949657 210.501312,70.458832 
	C212.558197,69.135811 213.998306,68.209503 215.438416,67.283203 
	C215.937576,67.971657 216.436752,68.660103 216.790131,69.783218 
	C216.843124,70.431641 217.041931,70.645409 217.240738,70.859161 
	C217.240738,70.859161 217.167297,70.936241 217.133606,71.212494 
	C217.462173,71.975845 217.824432,72.462936 218.186676,72.950027 
	C219.475128,76.706055 220.763596,80.462074 222.035843,84.606934 
M218.798615,81.394958 
	C218.794403,81.787239 218.790192,82.179520 218.785980,82.571800 
	C218.948776,82.573341 219.253067,82.585815 219.253906,82.574852 
	C219.284058,82.184578 219.285797,81.792107 218.798615,81.394958 
M210.412888,72.482582 
	C210.412888,72.482582 210.522919,72.416969 210.412888,72.482582 
z"/>
<path fill="#ED9C3D" opacity="1.000000" stroke="none" 
	d="
M215.449356,66.941902 
	C213.998306,68.209503 212.558197,69.135811 210.501312,70.458832 
	C210.051895,63.949657 206.233337,63.806763 201.703323,63.919193 
	C191.411209,64.174637 181.108383,63.999691 170.809921,63.999691 
	C161.348907,63.999691 161.348907,63.999695 158.669342,72.649811 
	C155.198883,67.532196 152.069092,62.241287 148.753830,56.636826 
	C146.956390,59.103580 145.522537,61.071373 143.752258,63.022057 
	C142.967163,63.008999 142.518494,63.013050 141.995056,62.646622 
	C142.608643,59.577084 143.296997,56.878025 143.985352,54.178963 
	C145.236053,50.243313 148.047668,48.931889 152.013565,48.962784 
	C164.824310,49.062592 177.636917,49.067680 190.447510,48.958977 
	C194.325897,48.926075 198.200150,48.404892 202.185242,48.098999 
	C202.150803,47.485172 202.097244,46.530525 202.073013,45.221710 
	C206.555008,52.111897 211.007645,59.356247 215.449356,66.941902 
z"/>
<path fill="#F1B344" opacity="1.000000" stroke="none" 
	d="
M174.986145,19.609442 
	C173.726212,19.637245 172.118958,19.684631 170.895798,19.022484 
	C169.214981,18.112585 167.825027,16.665421 166.227783,15.095207 
	C169.033432,16.265533 171.921753,17.789112 174.986145,19.609442 
z"/>
<path fill="#ED9C3D" opacity="1.000000" stroke="none" 
	d="
M202.053314,44.577217 
	C198.873352,45.327229 197.784027,43.639900 198.045181,40.250500 
	C199.362411,41.315063 200.662445,42.786816 202.053314,44.577217 
z"/>
<path fill="#ED9C3D" opacity="1.000000" stroke="none" 
	d="
M218.160736,72.638596 
	C217.824432,72.462936 217.462173,71.975845 217.130356,71.159363 
	C217.485443,71.329041 217.810120,71.828102 218.160736,72.638596 
z"/>
<path fill="#ED9C3D" opacity="1.000000" stroke="none" 
	d="
M217.237549,70.624702 
	C217.041931,70.645409 216.843124,70.431641 216.807007,70.110474 
	C216.969681,70.003075 217.234344,70.390236 217.237549,70.624702 
z"/>
<path fill="#E16D2F" opacity="1.000000" stroke="none" 
	d="
M80.010941,173.992889 
	C64.238281,173.661942 48.465565,173.333710 32.693001,172.998199 
	C28.621658,172.911591 24.871605,173.655334 21.708069,177.153976 
	C19.712986,175.041306 18.100060,172.761185 16.227554,169.915527 
	C15.349411,168.484924 14.730847,167.619888 14.112286,166.754837 
	C14.112288,166.754837 14.037258,166.315643 13.877594,165.923309 
	C13.539945,165.273712 13.300358,165.102753 12.999170,165.018097 
	C12.999170,165.018097 13.004599,165.000351 12.978544,164.698944 
	C12.630071,163.945160 12.307652,163.492783 11.985235,163.040405 
	C11.942710,162.866959 11.900186,162.693497 11.788487,161.957687 
	C11.430022,160.376785 11.140729,159.358246 10.918773,157.988388 
	C11.656244,157.089920 12.326379,156.542740 12.998257,155.997787 
	C13.000000,156.000000 13.004463,156.003448 13.003269,156.334503 
	C12.923504,159.717117 13.975994,160.549683 17.010708,159.271606 
	C19.071394,158.403717 21.490088,158.076981 23.754343,158.053482 
	C35.032307,157.936432 46.316181,157.831512 57.588886,158.101624 
	C61.016754,158.183746 64.396790,159.597122 67.840515,160.131561 
	C68.745827,160.272064 69.807198,159.407028 70.909134,159.355835 
	C73.031349,163.095825 75.041328,166.483765 77.071243,170.222595 
	C78.064430,171.713303 79.037689,172.853088 80.010941,173.992889 
z"/>
<path fill="#E37331" opacity="1.000000" stroke="none" 
	d="
M70.796906,159.003754 
	C69.807198,159.407028 68.745827,160.272064 67.840515,160.131561 
	C64.396790,159.597122 61.016754,158.183746 57.588886,158.101624 
	C46.316181,157.831512 35.032307,157.936432 23.754343,158.053482 
	C21.490088,158.076981 19.071394,158.403717 17.010708,159.271606 
	C13.975994,160.549683 12.923504,159.717117 13.140583,156.279358 
	C13.184896,155.927277 13.090703,155.961426 12.996511,155.995575 
	C12.326379,156.542740 11.656244,157.089920 10.698027,157.921234 
	C10.409943,158.205368 9.958694,158.106735 9.958694,158.106735 
	C9.902800,157.881119 9.846907,157.655518 9.633949,156.980850 
	C9.411180,156.273132 9.251426,156.102264 8.997622,156.019150 
	C8.991532,155.843567 8.985444,155.667999 8.888025,154.919571 
	C8.244181,153.123520 7.691668,151.900330 7.139153,150.677124 
	C6.730425,149.352585 6.321700,148.028030 5.954452,146.352859 
	C10.136592,142.026077 15.338278,143.035370 20.292694,143.013412 
	C30.708687,142.967255 41.125885,142.924561 51.540726,143.043472 
	C54.806957,143.080750 58.067242,143.639313 62.008362,144.134125 
	C63.077957,145.224518 63.469433,146.140045 63.723251,147.173370 
	C63.911339,147.531235 64.237091,147.771286 64.810837,148.274628 
	C66.971519,152.026505 68.884209,155.515137 70.796906,159.003754 
z"/>
<path fill="#DE5F2C" opacity="1.000000" stroke="none" 
	d="
M26.179123,184.100250 
	C27.468971,183.478775 28.822788,183.193039 30.933668,182.747513 
	C30.544283,184.880646 30.296064,186.240433 30.011129,188.006805 
	C28.730640,187.087585 27.486866,185.761795 26.179123,184.100250 
z"/>
<path fill="#DC582B" opacity="1.000000" stroke="none" 
	d="
M49.719589,205.902161 
	C50.984478,206.285370 52.401386,206.931580 53.740158,207.982758 
	C52.398552,207.646866 51.135078,206.906006 49.719589,205.902161 
z"/>
<path fill="#FBF3EB" opacity="1.000000" stroke="none" 
	d="
M9.957817,158.454834 
	C9.958694,158.106735 10.409943,158.205368 10.630690,158.272522 
	C11.140729,159.358246 11.430022,160.376785 11.681514,161.712067 
	C11.081455,160.953522 10.519197,159.878220 9.957817,158.454834 
z"/>
<path fill="#FBF3EB" opacity="1.000000" stroke="none" 
	d="
M7.091013,151.064133 
	C7.691668,151.900330 8.244181,153.123520 8.770418,154.683746 
	C8.177052,153.830902 7.609962,152.641022 7.091013,151.064133 
z"/>
<path fill="#FBF3EB" opacity="1.000000" stroke="none" 
	d="
M14.078617,167.129272 
	C14.730847,167.619888 15.349411,168.484924 15.996281,169.673035 
	C15.364707,169.165314 14.704828,168.334503 14.078617,167.129272 
z"/>
<path fill="#DC582B" opacity="1.000000" stroke="none" 
	d="
M49.054958,205.355743 
	C49.126816,204.847214 49.263107,204.416946 49.399399,203.986694 
	C49.491890,204.316040 49.584381,204.645401 49.494713,205.235199 
	C49.312561,205.495636 49.119389,205.434021 49.054958,205.355743 
z"/>
<path fill="#FBF3EB" opacity="1.000000" stroke="none" 
	d="
M12.002532,163.333588 
	C12.307652,163.492783 12.630071,163.945160 12.969561,164.697525 
	C12.664364,164.540588 12.342096,164.083679 12.002532,163.333588 
z"/>
<path fill="#FBF3EB" opacity="1.000000" stroke="none" 
	d="
M5.135832,146.031113 
	C4.984044,145.554214 4.988961,145.103790 5.005524,144.315964 
	C5.251640,144.495331 5.486111,145.012131 5.664295,145.812698 
	C5.608008,146.096481 5.292538,146.057602 5.135832,146.031113 
z"/>
<path fill="#FBF3EB" opacity="1.000000" stroke="none" 
	d="
M13.062932,165.220184 
	C13.300358,165.102753 13.539945,165.273712 13.732273,165.754456 
	C13.471596,165.869003 13.264955,165.683792 13.062932,165.220184 
z"/>
<path fill="#FBF3EB" opacity="1.000000" stroke="none" 
	d="
M9.016037,156.179245 
	C9.251426,156.102264 9.411180,156.273132 9.422340,156.703781 
	C9.203093,156.730286 9.091979,156.551468 9.016037,156.179245 
z"/>
<path fill="#DE5F2C" opacity="1.000000" stroke="none" 
	d="
M165.320862,210.576111 
	C164.500381,210.449265 163.914490,210.129791 163.328598,209.810333 
	C163.737976,209.400299 164.147354,208.990265 164.556717,208.580215 
	C164.889633,209.181305 165.222549,209.782394 165.320862,210.576111 
z"/>
<path fill="#FDFBF9" opacity="1.000000" stroke="none" 
	d="
M70.909134,159.355835 
	C68.884209,155.515137 66.971519,152.026505 64.805946,148.051666 
	C64.418167,147.265488 64.187454,147.095535 63.860912,147.055573 
	C63.469433,146.140045 63.077957,145.224518 62.443596,144.123444 
	C57.595112,135.791870 52.919113,127.683914 48.465958,119.455376 
	C47.854992,118.326431 48.352245,116.597740 48.915192,115.095879 
	C49.493965,115.045036 49.982620,114.960251 50.414474,115.051498 
	C52.899307,115.088432 54.952286,115.034119 57.469685,115.046768 
	C68.288628,115.063080 78.643143,115.012428 89.395149,115.066582 
	C92.176773,115.523590 94.560905,115.875801 97.054474,116.469162 
	C97.653564,116.883293 98.143234,117.056274 98.798546,117.556946 
	C103.848099,122.170036 102.651230,127.253387 100.607536,132.616135 
	C99.896233,133.543930 99.448112,134.268921 98.832520,135.228516 
	C98.478737,135.977188 98.292442,136.491226 97.957626,137.319016 
	C92.186203,147.168442 86.617943,156.737228 80.882874,166.204971 
	C79.998398,167.665100 78.347672,168.661057 77.051308,169.871689 
	C75.041328,166.483765 73.031349,163.095825 70.909134,159.355835 
z"/>
<path fill="#FDFCFA" opacity="1.000000" stroke="none" 
	d="
M63.205906,81.433411 
	C66.618164,75.502655 69.971329,69.929611 73.952362,64.196442 
	C77.714661,66.438156 79.189201,63.605259 81.265701,62.132195 
	C81.697716,62.745346 81.912392,63.211613 82.088005,64.088982 
	C83.068138,65.986275 84.087334,67.472458 85.365601,69.171432 
	C87.127441,72.100807 88.630211,74.817390 90.173584,77.844025 
	C90.498436,78.441368 90.782669,78.728661 91.233093,79.248871 
	C91.913452,80.032837 92.427628,80.583885 92.985909,81.458130 
	C93.728287,83.360542 94.426559,84.939758 95.173622,86.833618 
	C95.527885,87.420280 95.833366,87.692291 96.406876,88.168808 
	C98.595657,92.881165 100.516403,97.389000 102.259392,102.264633 
	C102.702415,106.948029 99.194054,108.792778 96.409470,111.395569 
	C94.130188,111.577324 92.310402,111.807106 90.488670,111.823799 
	C78.669350,111.932076 66.849617,111.993950 54.631500,111.984192 
	C53.151241,111.947861 52.069489,111.998367 50.658142,111.989037 
	C49.886204,111.974159 49.443867,112.019127 49.001534,112.064095 
	C48.326923,111.288788 47.652317,110.513481 46.969948,109.365921 
	C46.962181,108.993660 47.142052,108.697258 47.347824,108.397141 
	C47.678894,107.976196 47.804188,107.855362 47.929482,107.734535 
	C53.001926,99.086731 58.074375,90.438927 63.205906,81.433411 
z"/>
<path fill="#E88339" opacity="1.000000" stroke="none" 
	d="
M50.987740,112.048874 
	C52.069489,111.998367 53.151241,111.947861 54.932293,112.268051 
	C65.041527,112.758965 74.452499,112.832603 83.860443,113.041794 
	C85.580032,113.080032 87.287331,113.670364 88.531616,114.003693 
	C79.930634,114.001022 71.797379,113.931915 63.666656,114.044914 
	C61.442287,114.075836 59.225517,114.653206 57.005260,114.979805 
	C54.952286,115.034119 52.899307,115.088432 50.312935,114.836220 
	C49.578575,114.268402 49.319683,114.092209 49.002857,114.001137 
	C49.002857,114.001137 49.004955,113.518860 49.298279,113.249168 
	C50.056984,112.669281 50.522362,112.359085 50.987740,112.048874 
z"/>
<path fill="#E68334" opacity="1.000000" stroke="none" 
	d="
M7.000058,121.000000 
	C6.841794,121.853134 6.683474,122.706261 6.525152,123.559395 
	C6.161685,123.432587 5.798216,123.305779 5.434748,123.178970 
	C5.735306,122.486168 6.035865,121.793373 6.668154,121.050285 
	C6.999886,121.000000 7.000000,121.000000 7.000058,121.000000 
z"/>
<path fill="#E68334" opacity="1.000000" stroke="none" 
	d="
M43.044773,119.396873 
	C43.285664,119.791969 43.283825,120.185249 43.253166,120.576256 
	C43.252266,120.587715 42.947430,120.575348 42.784309,120.574089 
	C42.788837,120.180969 42.793365,119.787842 43.044773,119.396873 
z"/>
<path fill="#E47B20" opacity="1.000000" stroke="none" 
	d="
M50.658142,111.989044 
	C50.522362,112.359085 50.056984,112.669281 49.298393,113.008034 
	C49.005177,113.036591 49.000816,112.550339 49.001175,112.307220 
	C49.443867,112.019127 49.886204,111.974159 50.658142,111.989044 
z"/>
<path fill="#E27812" opacity="1.000000" stroke="none" 
	d="
M49.009315,114.227585 
	C49.319683,114.092209 49.578575,114.268402 49.881081,114.744980 
	C49.982620,114.960251 49.493965,115.045036 49.255810,114.976089 
	C49.017654,114.907135 49.015770,114.454041 49.009315,114.227585 
z"/>
<path fill="#E47C33" opacity="1.000000" stroke="none" 
	d="
M47.773689,107.630264 
	C47.804188,107.855362 47.678894,107.976196 47.325829,108.225189 
	C47.271343,108.077568 47.444618,107.801781 47.773689,107.630264 
z"/>
<path fill="#FDFBF9" opacity="1.000000" stroke="none" 
	d="
M158.742737,154.066681 
	C156.226547,158.375412 153.753922,162.357574 151.211899,166.672913 
	C150.428818,168.049866 149.715134,169.093658 148.767410,170.479767 
	C148.040558,169.545273 147.493591,168.842041 146.608414,167.611847 
	C142.625214,161.339584 138.980240,155.594284 135.268738,149.479095 
	C131.553772,142.385513 127.905327,135.661774 124.232803,128.525681 
	C123.303574,123.115448 125.753654,119.508827 129.400421,116.215088 
	C130.003632,115.938698 130.321747,115.727417 130.901672,115.556641 
	C131.491302,115.474037 131.819122,115.350922 132.550659,115.283371 
	C134.302261,115.227310 135.650177,115.115692 137.463913,115.061615 
	C150.950424,115.064903 163.971085,115.010658 176.991760,114.956406 
	C177.965576,115.413399 178.939407,115.870392 179.979492,116.666458 
	C175.931290,124.040932 171.816818,131.076324 167.603485,138.461609 
	C164.598511,143.787704 161.692413,148.763901 158.742737,154.066681 
z"/>
<path fill="#FDFCF8" opacity="1.000000" stroke="none" 
	d="
M144.088684,63.039165 
	C145.522537,61.071373 146.956390,59.103580 148.753830,56.636826 
	C152.069092,62.241287 155.198883,67.532196 158.609802,73.029472 
	C161.020523,77.129524 163.150085,81.023224 165.528671,85.168884 
	C165.777695,85.420845 165.817612,85.771233 165.987915,86.149872 
	C166.424149,86.732101 166.690094,86.935684 166.956039,87.139275 
	C169.893936,92.423180 172.831833,97.707085 176.045380,103.148392 
	C177.540375,105.943016 178.759720,108.580246 179.485596,111.572296 
	C163.663010,111.955490 148.333878,111.983864 132.718918,111.838440 
	C131.363174,111.413490 130.293243,111.162338 129.049240,110.666817 
	C128.257629,109.928947 127.640106,109.435440 126.888084,108.654663 
	C126.169128,108.217308 125.584671,108.067223 124.763489,107.738831 
	C124.045242,106.704048 123.563721,105.847588 123.148956,104.595215 
	C123.110176,103.136497 123.004654,102.073700 123.001465,100.674683 
	C125.588120,95.175537 128.072433,90.012611 130.903259,84.782761 
	C135.529404,77.490288 139.809052,70.264725 144.088684,63.039165 
z"/>
<path fill="#EA9439" opacity="1.000000" stroke="none" 
	d="
M166.883835,86.899536 
	C166.690094,86.935684 166.424149,86.732101 166.113525,86.273605 
	C166.397491,86.138496 166.645081,86.352196 166.883835,86.899536 
z"/>
<path fill="#F0AC40" opacity="1.000000" stroke="none" 
	d="
M62.989006,15.988375 
	C63.289181,15.474397 63.600552,14.972075 63.911919,14.469755 
	C64.120346,14.651157 64.328773,14.832560 64.537201,15.013962 
	C64.219872,15.321577 63.902538,15.629192 63.304390,15.979601 
	C63.023567,16.022394 63.000198,16.000032 62.989006,15.988375 
z"/>
<path fill="#E47A1F" opacity="1.000000" stroke="none" 
	d="
M133.004745,112.012230 
	C148.333878,111.983864 163.663010,111.955490 179.455063,111.937103 
	C179.160172,112.631508 178.402374,113.315941 177.322281,114.000183 
	C177.000000,114.000000 176.998840,113.999313 176.705475,113.701843 
	C163.276657,113.277817 150.141235,113.151260 136.640610,113.019135 
	C135.185196,112.679779 134.094971,112.346008 133.004745,112.012230 
z"/>
<path fill="#E37913" opacity="1.000000" stroke="none" 
	d="
M176.994873,114.717316 
	C163.971085,115.010658 150.950424,115.064903 137.458038,114.804100 
	C136.988953,114.317360 136.991577,114.145668 137.463409,113.982346 
	C150.954681,113.993584 163.976761,113.996445 176.998840,113.999313 
	C176.998840,113.999313 177.000000,114.000000 176.998169,114.000000 
	C176.996338,114.000000 176.997986,114.478218 176.994873,114.717316 
z"/>
<path fill="#E98C38" opacity="1.000000" stroke="none" 
	d="
M41.999847,107.999847 
	C41.964336,108.650650 41.928978,109.301598 41.893620,109.952553 
	C41.734905,109.949966 41.576187,109.947388 41.417469,109.944801 
	C41.454826,109.409058 41.492184,108.873314 41.764923,108.168922 
	C42.000305,108.000275 42.000000,108.000000 41.999847,107.999847 
z"/>
<path fill="#FDFBF8" opacity="1.000000" stroke="none" 
	d="
M143.749054,54.229347 
	C143.296997,56.878025 142.608643,59.577084 141.663513,62.744907 
	C140.064987,65.019180 138.441101,66.681297 137.436401,68.658119 
	C134.821198,73.803673 132.477676,79.087311 129.689209,84.239166 
	C127.168175,87.416618 124.947647,90.647263 122.808327,93.930809 
	C120.090134,98.102844 116.814079,101.278877 111.193001,100.525482 
	C110.135674,99.762993 109.217392,99.284195 108.099350,98.528107 
	C106.420570,96.524612 104.704330,94.947479 103.507973,93.043655 
	C100.197823,87.776077 97.104568,82.372208 93.851761,76.681885 
	C90.515282,70.588310 87.162689,64.882957 84.055130,59.047127 
	C83.306877,57.641945 83.370750,55.804302 83.061142,54.165543 
	C83.444969,54.184830 83.828804,54.204117 84.767044,54.349892 
	C86.558853,54.378548 87.796242,54.280720 89.496910,54.245983 
	C107.656776,54.253033 125.353355,54.196991 143.049942,54.140949 
	C143.049942,54.140949 143.512772,54.279728 143.749054,54.229347 
z"/>
<path fill="#ED9F32" opacity="1.000000" stroke="none" 
	d="
M142.904877,53.800873 
	C125.353355,54.196991 107.656776,54.253033 89.482300,53.955772 
	C88.992622,53.409275 88.980835,53.216084 89.439598,53.015572 
	C103.882011,53.005363 117.854095,53.037113 131.825500,52.955269 
	C133.551346,52.945164 135.273621,52.329876 136.998352,51.746498 
	C136.999161,51.497971 136.998169,51.000916 137.246826,51.000214 
	C137.495499,50.999516 137.992828,50.997948 137.992828,50.997948 
	C139.581818,51.818897 141.170807,52.639847 142.904877,53.800873 
z"/>
<path fill="#E4A136" opacity="1.000000" stroke="none" 
	d="
M137.699188,50.701763 
	C137.992828,50.997948 137.495499,50.999516 136.778381,50.999794 
	C121.767097,51.000000 107.472740,50.966412 93.178978,51.043556 
	C91.451920,51.052879 89.728088,51.660587 88.001511,51.994953 
	C88.000267,51.998951 87.993095,51.994713 87.993103,51.994713 
	C87.598740,51.168091 87.204376,50.341473 86.908752,49.258942 
	C89.771294,49.335613 92.531120,49.914829 95.299538,49.959236 
	C109.333656,50.184361 123.370003,50.270641 137.699188,50.701763 
z"/>
<path fill="#F0AC40" opacity="1.000000" stroke="none" 
	d="
M186.000610,30.999496 
	C186.121582,31.140421 186.241959,31.281851 186.362335,31.423277 
	C186.277206,31.374266 186.192062,31.325258 186.052917,31.138775 
	C185.998917,31.001301 186.000000,31.000000 186.000610,30.999496 
z"/>
<path fill="#FCF8F2" opacity="1.000000" stroke="none" 
	d="
M81.048355,61.985310 
	C79.189201,63.605259 77.714661,66.438156 74.210999,63.984390 
	C73.946823,63.524635 74.051880,63.116806 74.243034,62.403278 
	C75.622673,60.426224 76.916214,58.754868 78.645630,57.304592 
	C79.338501,57.744938 79.595497,57.964203 79.852501,58.183472 
	C79.852501,58.183472 79.780319,58.228096 79.838821,58.586124 
	C80.281006,59.957874 80.664680,60.971592 81.048355,61.985310 
z"/>
<path fill="#EAA350" opacity="1.000000" stroke="none" 
	d="
M81.265701,62.132195 
	C80.664680,60.971592 80.281006,59.957874 79.845909,58.627960 
	C80.750595,56.755184 81.706703,55.198601 82.861977,53.903778 
	C83.370750,55.804302 83.306877,57.641945 84.055130,59.047127 
	C87.162689,64.882957 90.515282,70.588310 93.534119,76.727341 
	C93.174141,78.453735 93.057976,79.794334 92.941803,81.134933 
	C92.427628,80.583885 91.913452,80.032837 91.200378,78.941101 
	C90.711975,78.111610 90.422478,77.822792 90.132980,77.533974 
	C88.630211,74.817390 87.127441,72.100807 85.300552,68.839081 
	C84.026657,66.755249 83.076859,65.216560 82.127068,63.677876 
	C81.912392,63.211613 81.697716,62.745346 81.265701,62.132195 
z"/>
<path fill="#F79439" opacity="1.000000" stroke="none" 
	d="
M136.997559,51.995029 
	C135.273621,52.329876 133.551346,52.945164 131.825500,52.955269 
	C117.854095,53.037113 103.882011,53.005363 89.192719,53.013435 
	C88.475288,53.018620 87.980774,53.015476 87.980774,53.015476 
	C87.982979,52.845371 87.985176,52.675266 87.990234,52.249939 
	C87.993095,51.994713 88.000267,51.998951 88.469772,51.998119 
	C104.958702,51.996536 120.978127,51.995785 136.997559,51.995029 
z"/>
<path fill="#EAA350" opacity="1.000000" stroke="none" 
	d="
M87.749588,53.016487 
	C87.980774,53.015476 88.475288,53.018620 88.722168,53.020752 
	C88.980835,53.216084 88.992622,53.409275 89.019028,53.892681 
	C87.796242,54.280720 86.558853,54.378548 85.050461,54.295273 
	C84.997414,54.059803 85.215355,54.005436 85.971786,53.820812 
	C86.769157,53.527004 86.951073,53.301334 87.056023,53.013550 
	C87.056023,53.013550 87.518394,53.017502 87.749588,53.016487 
z"/>
<path fill="#EAA350" opacity="1.000000" stroke="none" 
	d="
M79.794456,57.917301 
	C79.595497,57.964203 79.338501,57.744938 78.976555,57.284569 
	C79.159882,57.246021 79.448143,57.448574 79.794456,57.917301 
z"/>
<path fill="#F79439" opacity="1.000000" stroke="none" 
	d="
M86.848907,53.087524 
	C86.951073,53.301334 86.769157,53.527004 86.302017,53.753971 
	C86.190056,53.526638 86.372734,53.308006 86.848907,53.087524 
z"/>
<path fill="#FEFAF8" opacity="1.000000" stroke="none" 
	d="
M144.037476,169.768036 
	C145.841309,173.378769 143.092697,172.684921 141.222961,172.687027 
	C123.791679,172.706696 106.360374,172.700027 88.929070,172.703781 
	C87.269943,172.704147 85.610809,172.723495 83.209991,172.634308 
	C82.320396,171.679871 81.778801,170.617416 82.099365,170.009903 
	C83.014168,168.276291 84.409279,166.801849 85.385628,165.094055 
	C90.713821,155.774200 95.972939,146.414871 101.521935,136.876450 
	C102.224197,135.982056 102.669601,135.285904 103.095100,134.577774 
	C108.997391,124.755074 117.862144,124.773315 123.713531,134.677841 
	C126.900917,140.073059 129.948135,145.551117 133.118561,151.333923 
	C136.798203,157.706696 140.417831,163.737366 144.037476,169.768036 
z"/>
<path fill="#E1793B" opacity="1.000000" stroke="none" 
	d="
M101.255814,137.069107 
	C95.972939,146.414871 90.713821,155.774200 85.385628,165.094055 
	C84.409279,166.801849 83.014168,168.276291 82.099365,170.009903 
	C81.778801,170.617416 82.320396,171.679871 82.747086,172.705231 
	C82.155495,173.420105 81.285110,173.964340 80.212830,174.250732 
	C79.037689,172.853088 78.064430,171.713303 77.071243,170.222595 
	C78.347672,168.661057 79.998398,167.665100 80.882874,166.204971 
	C86.617943,156.737228 92.186203,147.168442 98.351181,137.316223 
	C99.680771,137.022827 100.468292,137.045975 101.255814,137.069107 
z"/>
<path fill="#DF793D" opacity="1.000000" stroke="none" 
	d="
M144.123383,169.427551 
	C140.417831,163.737366 136.798203,157.706696 133.407074,151.197739 
	C134.202148,150.429291 134.768707,150.139130 135.335266,149.848969 
	C138.980240,155.594284 142.625214,161.339584 146.407242,167.419220 
	C145.765945,168.198044 144.987625,168.642563 144.123383,169.427551 
z"/>
<path fill="#D67032" opacity="1.000000" stroke="none" 
	d="
M116.999519,175.996338 
	C107.709457,175.996338 98.919243,175.996338 90.129036,175.996338 
	C90.129333,175.760162 90.129631,175.523972 90.129929,175.287796 
	C105.308006,175.287796 120.486076,175.287796 135.664154,175.287796 
	C135.674271,175.523972 135.684372,175.760162 135.694473,175.996338 
	C129.629440,175.996338 123.564407,175.996338 116.999519,175.996338 
z"/>
<path fill="#E0662C" opacity="1.000000" stroke="none" 
	d="
M45.045403,193.395660 
	C45.286655,193.791061 45.284927,194.184372 45.254814,194.575485 
	C45.253975,194.586349 44.949085,194.573807 44.785976,194.572189 
	C44.790142,194.179214 44.794308,193.786224 45.045403,193.395660 
z"/>
<path fill="#E98C37" opacity="1.000000" stroke="none" 
	d="
M219.045074,81.397453 
	C219.285797,81.792107 219.284058,82.184578 219.253906,82.574852 
	C219.253067,82.585815 218.948776,82.573341 218.785980,82.571800 
	C218.790192,82.179520 218.794403,81.787239 219.045074,81.397453 
z"/>
<path fill="#ED9C3D" opacity="1.000000" stroke="none" 
	d="
M210.467896,72.449776 
	C210.522919,72.416969 210.412888,72.482582 210.467896,72.449776 
z"/>
<path fill="#E9A04F" opacity="1.000000" stroke="none" 
	d="
M130.025772,84.315865 
	C132.477676,79.087311 134.821198,73.803673 137.436401,68.658119 
	C138.441101,66.681297 140.064987,65.019180 141.738281,63.115387 
	C142.518494,63.013050 142.967163,63.008999 143.752258,63.022057 
	C139.809052,70.264725 135.529404,77.490288 130.781158,84.738907 
	C130.166214,84.645996 130.070618,84.497292 130.025772,84.315865 
z"/>
<path fill="#E47C33" opacity="1.000000" stroke="none" 
	d="
M63.723251,147.173370 
	C64.187454,147.095535 64.418167,147.265488 64.557953,147.788391 
	C64.237091,147.771286 63.911339,147.531235 63.723251,147.173370 
z"/>
<path fill="#E16D2F" opacity="1.000000" stroke="none" 
	d="
M12.998255,155.997787 
	C13.090703,155.961426 13.184896,155.927277 13.141777,155.948303 
	C13.004463,156.003448 13.000000,156.000000 12.998255,155.997787 
z"/>
<path fill="#E5803D" opacity="1.000000" stroke="none" 
	d="
M135.268738,149.479095 
	C134.768707,150.139130 134.202148,150.429291 133.347076,150.855621 
	C129.948135,145.551117 126.900917,140.073059 123.713531,134.677841 
	C117.862144,124.773315 108.997391,124.755074 103.095100,134.577774 
	C102.669601,135.285904 102.224197,135.982056 101.521935,136.876450 
	C100.468292,137.045975 99.680771,137.022827 98.499695,137.002472 
	C98.292442,136.491226 98.478737,135.977188 99.196136,135.164230 
	C100.108398,134.047989 100.489555,133.230652 100.870712,132.413330 
	C102.651230,127.253387 103.848099,122.170036 99.068573,117.396378 
	C98.781410,115.940376 98.389870,114.972641 98.139915,113.716377 
	C99.186554,112.955566 100.091599,112.483269 100.997665,112.257141 
	C100.998695,112.503311 101.001221,112.995628 101.052673,113.337723 
	C102.402245,115.119972 103.700356,116.560143 104.987915,118.391052 
	C104.206581,121.240341 103.435814,123.698875 102.577972,126.435165 
	C110.623322,126.795189 120.307480,124.306725 122.273041,121.763184 
	C122.926613,124.126930 123.591751,126.532494 124.256882,128.938049 
	C127.905327,135.661774 131.553772,142.385513 135.268738,149.479095 
z"/>
<path fill="#E47B20" opacity="1.000000" stroke="none" 
	d="
M89.000305,114.005844 
	C87.287331,113.670364 85.580032,113.080032 83.860443,113.041794 
	C74.452499,112.832603 65.041527,112.758965 55.330803,112.354889 
	C66.849617,111.993950 78.669350,111.932076 90.488670,111.823799 
	C92.310402,111.807106 94.130188,111.577324 96.309952,111.759537 
	C95.469711,112.568413 94.270393,113.063820 91.978302,114.010620 
	C94.399437,114.010620 95.699303,114.010620 96.999664,114.380325 
	C96.981781,115.242691 96.963409,115.735344 96.945038,116.228012 
	C94.560905,115.875801 92.176773,115.523590 89.395660,114.827606 
	C88.998680,114.483818 89.000305,114.005844 89.000305,114.005844 
z"/>
<path fill="#E27812" opacity="1.000000" stroke="none" 
	d="
M88.531616,114.003693 
	C89.000305,114.005844 88.998680,114.483818 88.998169,114.722794 
	C78.643143,115.012428 68.288628,115.063080 57.469685,115.046768 
	C59.225517,114.653206 61.442287,114.075836 63.666656,114.044914 
	C71.797379,113.931915 79.930634,114.001022 88.531616,114.003693 
z"/>
<path fill="#E58239" opacity="1.000000" stroke="none" 
	d="
M97.054474,116.469162 
	C96.963409,115.735344 96.981781,115.242691 97.249443,114.377617 
	C97.498734,114.005203 97.998322,114.004898 97.998322,114.004898 
	C98.389870,114.972641 98.781410,115.940376 98.902924,117.068687 
	C98.143234,117.056274 97.653564,116.883293 97.054474,116.469162 
z"/>
<path fill="#E1793B" opacity="1.000000" stroke="none" 
	d="
M100.607536,132.616135 
	C100.489555,133.230652 100.108398,134.047989 99.363617,134.929596 
	C99.448112,134.268921 99.896233,133.543930 100.607536,132.616135 
z"/>
<path fill="#E68636" opacity="1.000000" stroke="none" 
	d="
M98.139915,113.716377 
	C97.998322,114.004898 97.498734,114.005203 97.248955,114.007912 
	C95.699303,114.010620 94.399437,114.010620 91.978302,114.010620 
	C94.270393,113.063820 95.469711,112.568413 96.768555,111.709023 
	C99.194054,108.792778 102.702415,106.948029 102.452301,102.030663 
	C104.648361,100.554398 106.473740,99.679893 108.299118,98.805405 
	C109.217392,99.284195 110.135674,99.762993 110.906136,100.737915 
	C110.750732,101.677086 110.715973,102.506828 110.739403,102.508484 
	C114.885880,102.799797 119.350845,105.495193 122.899132,101.010895 
	C123.004654,102.073700 123.110176,103.136497 122.842834,104.633705 
	C122.187790,105.224434 121.651886,105.394722 121.659607,105.535110 
	C122.231857,115.933060 122.174126,115.997704 111.852242,116.000999 
	C110.356598,116.001480 108.807701,115.778297 107.384727,116.102783 
	C106.491524,116.306473 105.787422,117.339409 104.998474,118.000305 
	C103.700356,116.560143 102.402245,115.119972 101.303223,113.322418 
	C101.766731,112.807632 102.031143,112.650246 102.295547,112.492859 
	C101.862579,112.332230 101.429611,112.171608 100.996643,112.010986 
	C100.091599,112.483269 99.186554,112.955566 98.139915,113.716377 
z"/>
<path fill="#E99748" opacity="1.000000" stroke="none" 
	d="
M108.099350,98.528107 
	C106.473740,99.679893 104.648361,100.554398 102.630066,101.662872 
	C100.516403,97.389000 98.595657,92.881165 96.314896,87.881218 
	C95.678200,87.099068 95.401520,86.809021 95.124840,86.518967 
	C94.426559,84.939758 93.728287,83.360542 92.985916,81.458130 
	C93.057976,79.794334 93.174141,78.453735 93.607941,77.067673 
	C97.104568,82.372208 100.197823,87.776077 103.507973,93.043655 
	C104.704330,94.947479 106.420570,96.524612 108.099350,98.528107 
z"/>
<path fill="#FCF8F2" opacity="1.000000" stroke="none" 
	d="
M82.088005,64.088982 
	C83.076859,65.216560 84.026657,66.755249 85.041489,68.626282 
	C84.087334,67.472458 83.068138,65.986275 82.088005,64.088982 
z"/>
<path fill="#FCF8F2" opacity="1.000000" stroke="none" 
	d="
M95.173622,86.833618 
	C95.401520,86.809021 95.678200,87.099068 96.046875,87.676712 
	C95.833366,87.692291 95.527885,87.420280 95.173622,86.833618 
z"/>
<path fill="#FCF8F2" opacity="1.000000" stroke="none" 
	d="
M90.173592,77.844025 
	C90.422478,77.822792 90.711975,78.111610 91.034195,78.708191 
	C90.782669,78.728661 90.498436,78.441368 90.173592,77.844025 
z"/>
<path fill="#E58239" opacity="1.000000" stroke="none" 
	d="
M104.987915,118.391052 
	C105.787422,117.339409 106.491524,116.306473 107.384727,116.102783 
	C108.807701,115.778297 110.356598,116.001480 111.852242,116.000999 
	C122.174126,115.997704 122.231857,115.933060 121.659607,105.535110 
	C121.651886,105.394722 122.187790,105.224434 122.776085,105.029617 
	C123.563721,105.847588 124.045242,106.704048 124.763779,108.144318 
	C125.333359,110.818237 125.665916,112.908356 125.672806,115.031471 
	C124.643829,115.708923 123.940536,116.353386 123.237236,116.997849 
	C123.657196,117.301041 124.077156,117.604240 124.497108,117.907433 
	C124.998581,116.938797 125.500053,115.970161 126.377304,115.001114 
	C127.504623,114.998489 128.256165,114.996269 129.003967,114.996902 
	C129.000198,114.999756 129.006409,114.995636 129.026093,115.317413 
	C129.068939,115.852859 129.092133,116.066528 129.115326,116.280197 
	C125.753654,119.508827 123.303574,123.115448 124.232803,128.525681 
	C123.591751,126.532494 122.926613,124.126930 122.273041,121.763184 
	C120.307480,124.306725 110.623322,126.795189 102.577972,126.435165 
	C103.435814,123.698875 104.206581,121.240341 104.987915,118.391052 
z"/>
<path fill="#E68636" opacity="1.000000" stroke="none" 
	d="
M129.007721,114.994049 
	C128.256165,114.996269 127.504623,114.998489 126.376541,115.000351 
	C126.000000,115.000000 125.998474,114.998474 125.998474,114.998474 
	C125.665916,112.908356 125.333359,110.818237 125.000504,108.322632 
	C125.584671,108.067223 126.169128,108.217308 126.929092,108.997192 
	C127.810837,110.055054 128.517090,110.483116 129.223328,110.911179 
	C130.293243,111.162338 131.363174,111.413490 132.718918,111.838440 
	C134.094971,112.346008 135.185196,112.679779 136.637741,113.256302 
	C137.000061,113.499046 136.994202,113.973969 136.994202,113.973969 
	C136.991577,114.145668 136.988953,114.317360 136.992218,114.746567 
	C135.650177,115.115692 134.302261,115.227310 132.365402,115.007324 
	C130.853531,114.781830 129.930634,114.887947 129.007721,114.994049 
z"/>
<path fill="#E37913" opacity="1.000000" stroke="none" 
	d="
M129.003967,114.996902 
	C129.930634,114.887947 130.853531,114.781830 131.961700,114.951759 
	C131.819122,115.350922 131.491302,115.474037 130.505432,115.383179 
	C129.567062,115.111351 129.286743,115.053490 129.006409,114.995636 
	C129.006409,114.995636 129.000198,114.999756 129.003967,114.996902 
z"/>
<path fill="#E68636" opacity="1.000000" stroke="none" 
	d="
M129.026093,115.317413 
	C129.286743,115.053490 129.567062,115.111351 130.243622,115.342667 
	C130.321747,115.727417 130.003632,115.938698 129.400421,116.215088 
	C129.092133,116.066528 129.068939,115.852859 129.026093,115.317413 
z"/>
<path fill="#E9903E" opacity="1.000000" stroke="none" 
	d="
M123.001465,100.674683 
	C119.350845,105.495193 114.885880,102.799797 110.739403,102.508484 
	C110.715973,102.506828 110.750732,101.677086 111.045189,101.021606 
	C116.814079,101.278877 120.090134,98.102844 122.808327,93.930809 
	C124.947647,90.647263 127.168175,87.416618 129.689209,84.239166 
	C130.070618,84.497292 130.166214,84.645996 130.434662,84.805832 
	C128.072433,90.012611 125.588120,95.175537 123.001465,100.674683 
z"/>
<path fill="#E58239" opacity="1.000000" stroke="none" 
	d="
M129.049240,110.666809 
	C128.517090,110.483116 127.810837,110.055054 127.063583,109.284462 
	C127.640106,109.435440 128.257629,109.928947 129.049240,110.666809 
z"/>
<path fill="#E7843B" opacity="1.000000" stroke="none" 
	d="
M137.463409,113.982346 
	C136.994202,113.973969 137.000061,113.499046 137.002930,113.261879 
	C150.141235,113.151260 163.276657,113.277817 176.705475,113.701843 
	C163.976761,113.996445 150.954681,113.993584 137.463409,113.982346 
z"/>
<path fill="#EB9D48" opacity="1.000000" stroke="none" 
	d="
M136.998352,51.746498 
	C120.978127,51.995785 104.958702,51.996536 88.471016,51.994122 
	C89.728088,51.660587 91.451920,51.052879 93.178978,51.043556 
	C107.472740,50.966412 121.767097,51.000000 136.529724,51.000496 
	C136.998169,51.000916 136.999161,51.497971 136.998352,51.746498 
z"/>
<path fill="#E58239" opacity="1.000000" stroke="none" 
	d="
M100.997665,112.257149 
	C101.429611,112.171608 101.862579,112.332230 102.295547,112.492859 
	C102.031143,112.650246 101.766731,112.807632 101.251770,112.980324 
	C101.001221,112.995628 100.998695,112.503311 100.997665,112.257149 
z"/>
<path fill="#E68636" opacity="1.000000" stroke="none" 
	d="
M126.000763,115.000763 
	C125.500053,115.970161 124.998581,116.938797 124.497108,117.907433 
	C124.077156,117.604240 123.657196,117.301041 123.237236,116.997849 
	C123.940536,116.353386 124.643829,115.708923 125.672806,115.031471 
	C125.998474,114.998474 126.000000,115.000000 126.000763,115.000763 
z"/>
</svg>