<?xml version="1.0" encoding="UTF-8"?>
<!DOCTYPE svg PUBLIC "-//W3C//DTD SVG 1.1//EN" "http://www.w3.org/Graphics/SVG/1.1/DTD/svg11.dtd">
<svg xmlns="http://www.w3.org/2000/svg" version="1.1" width="1359px" height="1359px" style="shape-rendering:geometricPrecision; text-rendering:geometricPrecision; image-rendering:optimizeQuality; fill-rule:evenodd; clip-rule:evenodd" xmlns:xlink="http://www.w3.org/1999/xlink">
<g><path style="opacity:0.993" fill="#8d4ff3" d="M 674.5,202.5 C 515.139,366.193 355.806,529.86 196.5,693.5C 194.084,663.171 200.751,635.171 216.5,609.5C 277.22,548.448 337.22,486.781 396.5,424.5C 460.966,360.201 525.633,296.034 590.5,232C 615.148,212.853 643.148,203.019 674.5,202.5 Z"/></g>
<g><path style="opacity:0.999" fill="#8b52f3" d="M 674.5,202.5 C 677.833,202.5 681.167,202.5 684.5,202.5C 522.502,369.165 360.169,535.498 197.5,701.5C 197.425,698.794 197.092,696.127 196.5,693.5C 355.806,529.86 515.139,366.193 674.5,202.5 Z"/></g>
<g><path style="opacity:0.998" fill="#8a52f4" d="M 684.5,202.5 C 690.231,202.758 695.898,203.425 701.5,204.5C 534.806,375.527 368.139,546.527 201.5,717.5C 199.564,712.422 198.23,707.088 197.5,701.5C 360.169,535.498 522.502,369.165 684.5,202.5 Z"/></g>
<g><path style="opacity:0.992" fill="#8755f4" d="M 701.5,204.5 C 721.13,207.987 739.13,215.32 755.5,226.5C 723.5,259.5 691.5,292.5 659.5,325.5C 547.228,436.605 435.062,547.938 323,659.5C 318.831,665.173 316.331,671.506 315.5,678.5C 286.167,708.167 256.833,737.833 227.5,767.5C 214.656,753.149 205.989,736.482 201.5,717.5C 368.139,546.527 534.806,375.527 701.5,204.5 Z"/></g>
<g><path style="opacity:0.989" fill="#8458f5" d="M 755.5,226.5 C 758.473,228.147 761.14,230.147 763.5,232.5C 734.833,262.167 706.167,291.833 677.5,321.5C 671.124,321.261 665.124,322.595 659.5,325.5C 691.5,292.5 723.5,259.5 755.5,226.5 Z"/></g>
<g><path style="opacity:0.99" fill="#805af5" d="M 763.5,232.5 C 780.47,247.803 796.803,263.803 812.5,280.5C 785.498,307.502 758.831,334.835 732.5,362.5C 720.702,351.202 709.035,339.702 697.5,328C 691.519,323.729 684.853,321.562 677.5,321.5C 706.167,291.833 734.833,262.167 763.5,232.5 Z"/></g>
<g><path style="opacity:0.991" fill="#7d5ef6" d="M 812.5,280.5 C 814.167,281.5 815.5,282.833 816.5,284.5C 790.169,312.165 763.502,339.498 736.5,366.5C 734.833,365.5 733.5,364.167 732.5,362.5C 758.831,334.835 785.498,307.502 812.5,280.5 Z"/></g>
<g><path style="opacity:0.99" fill="#7960f6" d="M 816.5,284.5 C 832.833,300.167 848.833,316.167 864.5,332.5C 838.167,359.833 811.833,387.167 785.5,414.5C 768.53,399.197 752.197,383.197 736.5,366.5C 763.502,339.498 790.169,312.165 816.5,284.5 Z"/></g>
<g><path style="opacity:0.994" fill="#7366f7" d="M 864.5,332.5 C 879.86,347.527 895.193,362.527 910.5,377.5C 884.169,405.165 857.502,432.498 830.5,459.5C 815.167,444.833 800.167,429.833 785.5,414.5C 811.833,387.167 838.167,359.833 864.5,332.5 Z"/></g>
<g><path style="opacity:0.99" fill="#6f69f8" d="M 910.5,377.5 C 916.5,382.833 922.167,388.5 927.5,394.5C 900.498,421.502 873.831,448.835 847.5,476.5C 841.5,471.167 835.833,465.5 830.5,459.5C 857.502,432.498 884.169,405.165 910.5,377.5 Z"/></g>
<g><path style="opacity:0.989" fill="#6c6cf8" d="M 927.5,394.5 C 937.5,403.833 947.167,413.5 956.5,423.5C 929.498,450.502 902.831,477.835 876.5,505.5C 866.5,496.167 856.833,486.5 847.5,476.5C 873.831,448.835 900.498,421.502 927.5,394.5 Z"/></g>
<g><path style="opacity:0.99" fill="#686ff9" d="M 956.5,423.5 C 964.833,431.167 972.833,439.167 980.5,447.5C 967.535,459.965 954.702,472.631 942,485.5C 927.962,500.036 914.129,514.703 900.5,529.5C 892.167,521.833 884.167,513.833 876.5,505.5C 902.831,477.835 929.498,450.502 956.5,423.5 Z"/></g>
<g><path style="opacity:0.828" fill="#8f4ef3" d="M 396.5,424.5 C 337.22,486.781 277.22,548.448 216.5,609.5C 221.317,600.836 227.15,592.836 234,585.5C 288.34,531.993 342.507,478.326 396.5,424.5 Z"/></g>
<g><path style="opacity:0.99" fill="#6671f9" d="M 980.5,447.5 C 984.5,450.833 988.167,454.5 991.5,458.5C 977.538,473.631 963.371,488.631 949,503.5C 936.632,516.035 924.132,528.369 911.5,540.5C 907.5,537.167 903.833,533.5 900.5,529.5C 914.129,514.703 927.962,500.036 942,485.5C 954.702,472.631 967.535,459.965 980.5,447.5 Z"/></g>
<g><path style="opacity:0.989" fill="#6472fa" d="M 991.5,458.5 C 997.5,463.833 1003.17,469.5 1008.5,475.5C 982.169,503.165 955.502,530.498 928.5,557.5C 922.5,552.167 916.833,546.5 911.5,540.5C 924.132,528.369 936.632,516.035 949,503.5C 963.371,488.631 977.538,473.631 991.5,458.5 Z"/></g>
<g><path style="opacity:0.985" fill="#7861f6" d="M 706.5,495.5 C 636.563,567.272 566.396,638.938 496,710.5C 495.487,711.527 494.987,712.527 494.5,713.5C 484.868,704.369 475.368,695.036 466,685.5C 464,682.167 464,678.833 466,675.5C 534.597,607.447 603.097,539.281 671.5,471C 675.698,468.839 679.698,469.172 683.5,472C 691.369,479.702 699.036,487.535 706.5,495.5 Z"/></g>
<g><path style="opacity:0.991" fill="#6175fa" d="M 1008.5,475.5 C 1016.83,483.167 1024.83,491.167 1032.5,499.5C 1006.17,527.165 979.502,554.498 952.5,581.5C 944.167,573.833 936.167,565.833 928.5,557.5C 955.502,530.498 982.169,503.165 1008.5,475.5 Z"/></g>
<g><path style="opacity:0.996" fill="#7366f7" d="M 706.5,495.5 C 721.833,510.167 736.833,525.167 751.5,540.5C 681.196,613.471 610.53,686.138 539.5,758.5C 524.167,743.833 509.167,728.833 494.5,713.5C 494.987,712.527 495.487,711.527 496,710.5C 566.396,638.938 636.563,567.272 706.5,495.5 Z"/></g>
<g><path style="opacity:0.989" fill="#5f77fa" d="M 1032.5,499.5 C 1040.17,506.5 1047.5,513.833 1054.5,521.5C 1027.5,548.502 1000.83,575.835 974.5,603.5C 966.833,596.5 959.5,589.167 952.5,581.5C 979.502,554.498 1006.17,527.165 1032.5,499.5 Z"/></g>
<g><path style="opacity:0.99" fill="#5b7afb" d="M 1054.5,521.5 C 1065.17,531.5 1075.5,541.833 1085.5,552.5C 1058.5,579.502 1031.83,606.835 1005.5,634.5C 994.833,624.5 984.5,614.167 974.5,603.5C 1000.83,575.835 1027.5,548.502 1054.5,521.5 Z"/></g>
<g><path style="opacity:0.996" fill="#6f69f8" d="M 751.5,540.5 C 757.5,545.833 763.167,551.5 768.5,557.5C 697.498,629.836 626.831,702.502 556.5,775.5C 550.5,770.167 544.833,764.5 539.5,758.5C 610.53,686.138 681.196,613.471 751.5,540.5 Z"/></g>
<g><path style="opacity:0.995" fill="#587dfc" d="M 1085.5,552.5 C 1090.5,556.833 1095.17,561.5 1099.5,566.5C 1073.17,593.833 1046.83,621.167 1020.5,648.5C 1015.47,643.805 1010.47,639.139 1005.5,634.5C 1031.83,606.835 1058.5,579.502 1085.5,552.5 Z"/></g>
<g><path style="opacity:0.996" fill="#6c6cf8" d="M 768.5,557.5 C 778.5,566.833 788.167,576.5 797.5,586.5C 726.862,659.138 655.862,731.472 584.5,803.5C 574.833,794.5 565.5,785.167 556.5,775.5C 626.831,702.502 697.498,629.836 768.5,557.5 Z"/></g>
<g><path style="opacity:0.986" fill="#5381fc" d="M 1099.5,566.5 C 1108.47,574.964 1117.3,583.631 1126,592.5C 1131.92,600.018 1137.09,608.018 1141.5,616.5C 967.802,793.198 794.802,970.531 622.5,1148.5C 601.772,1139.64 584.106,1126.64 569.5,1109.5C 596.502,1082.5 623.169,1055.16 649.5,1027.5C 664.614,1042.56 680.948,1044.06 698.5,1032C 809.639,921.861 920.473,811.361 1031,700.5C 1039.27,687.729 1039.6,674.729 1032,661.5C 1028.33,656.998 1024.5,652.665 1020.5,648.5C 1046.83,621.167 1073.17,593.833 1099.5,566.5 Z"/></g>
<g><path style="opacity:0.997" fill="#686ff9" d="M 797.5,586.5 C 805.833,594.167 813.833,602.167 821.5,610.5C 750.138,682.528 679.138,754.862 608.5,827.5C 600.167,819.833 592.167,811.833 584.5,803.5C 655.862,731.472 726.862,659.138 797.5,586.5 Z"/></g>
<g><path style="opacity:0.996" fill="#6671f9" d="M 821.5,610.5 C 825.833,614.167 829.833,618.167 833.5,622.5C 762.138,694.528 691.138,766.862 620.5,839.5C 616.167,835.833 612.167,831.833 608.5,827.5C 679.138,754.862 750.138,682.528 821.5,610.5 Z"/></g>
<g><path style="opacity:0.999" fill="#5183fd" d="M 1141.5,616.5 C 1142.11,617.391 1142.44,618.391 1142.5,619.5C 970.164,795.836 798.164,972.502 626.5,1149.5C 625.167,1149.17 623.833,1148.83 622.5,1148.5C 794.802,970.531 967.802,793.198 1141.5,616.5 Z"/></g>
<g><path style="opacity:0.998" fill="#4e86fd" d="M 1142.5,619.5 C 1155.97,646.34 1160.14,674.674 1155,704.5C 1154.27,709.077 1153.11,713.41 1151.5,717.5C 1011.47,859.864 872.135,1002.86 733.5,1146.5C 707.706,1158.06 680.706,1161.56 652.5,1157C 643.45,1155.41 634.783,1152.91 626.5,1149.5C 798.164,972.502 970.164,795.836 1142.5,619.5 Z"/></g>
<g><path style="opacity:0.996" fill="#6472fa" d="M 833.5,622.5 C 839.167,627.5 844.5,632.833 849.5,638.5C 779.196,711.471 708.53,784.138 637.5,856.5C 631.5,851.167 625.833,845.5 620.5,839.5C 691.138,766.862 762.138,694.528 833.5,622.5 Z"/></g>
<g><path style="opacity:0.997" fill="#6175fa" d="M 849.5,638.5 C 857.833,646.167 865.833,654.167 873.5,662.5C 803.196,735.471 732.53,808.138 661.5,880.5C 653.167,872.833 645.167,864.833 637.5,856.5C 708.53,784.138 779.196,711.471 849.5,638.5 Z"/></g>
<g><path style="opacity:0.974" fill="#5f77fa" d="M 873.5,662.5 C 878.131,666.63 882.631,670.963 887,675.5C 889,678.833 889,682.167 887,685.5C 818.806,754.028 750.306,822.194 681.5,890C 677.333,892.086 673.333,891.753 669.5,889C 666.629,886.297 663.962,883.464 661.5,880.5C 732.53,808.138 803.196,735.471 873.5,662.5 Z"/></g>
<g><path style="opacity:0.992" fill="#8458f5" d="M 315.5,678.5 C 315.271,683.01 315.938,687.343 317.5,691.5C 289.833,719.5 262.167,747.5 234.5,775.5C 231.427,773.431 229.094,770.764 227.5,767.5C 256.833,737.833 286.167,708.167 315.5,678.5 Z"/></g>
<g><path style="opacity:0.993" fill="#805af5" d="M 317.5,691.5 C 318.966,696.432 321.466,700.765 325,704.5C 338.006,716.339 350.506,728.673 362.5,741.5C 335.498,768.502 308.831,795.835 282.5,823.5C 266.167,807.833 250.167,791.833 234.5,775.5C 262.167,747.5 289.833,719.5 317.5,691.5 Z"/></g>
<g><path style="opacity:0.957" fill="#498afe" d="M 1151.5,717.5 C 1146.12,737.705 1136.62,755.705 1123,771.5C 1006.53,886.973 890.361,1002.81 774.5,1119C 762.5,1130.67 748.833,1139.83 733.5,1146.5C 872.135,1002.86 1011.47,859.864 1151.5,717.5 Z"/></g>
<g><path style="opacity:0.989" fill="#7d5ef6" d="M 362.5,741.5 C 364.5,742.833 366.167,744.5 367.5,746.5C 340.498,773.502 313.831,800.835 287.5,828.5C 285.5,827.167 283.833,825.5 282.5,823.5C 308.831,795.835 335.498,768.502 362.5,741.5 Z"/></g>
<g><path style="opacity:0.99" fill="#7960f6" d="M 367.5,746.5 C 383.833,762.167 399.833,778.167 415.5,794.5C 388.498,821.502 361.831,848.835 335.5,876.5C 319.167,860.833 303.167,844.833 287.5,828.5C 313.831,800.835 340.498,773.502 367.5,746.5 Z"/></g>
<g><path style="opacity:0.99" fill="#7366f7" d="M 415.5,794.5 C 430.833,809.167 445.833,824.167 460.5,839.5C 433.498,866.502 406.831,893.835 380.5,921.5C 365.167,906.833 350.167,891.833 335.5,876.5C 361.831,848.835 388.498,821.502 415.5,794.5 Z"/></g>
<g><path style="opacity:0.99" fill="#6f69f8" d="M 460.5,839.5 C 466.5,844.833 472.167,850.5 477.5,856.5C 450.498,883.502 423.831,910.835 397.5,938.5C 391.5,933.167 385.833,927.5 380.5,921.5C 406.831,893.835 433.498,866.502 460.5,839.5 Z"/></g>
<g><path style="opacity:0.99" fill="#6c6cf8" d="M 477.5,856.5 C 487.167,865.5 496.5,874.833 505.5,884.5C 479.169,912.165 452.502,939.498 425.5,966.5C 415.833,957.5 406.5,948.167 397.5,938.5C 423.831,910.835 450.498,883.502 477.5,856.5 Z"/></g>
<g><path style="opacity:0.991" fill="#686ff9" d="M 505.5,884.5 C 513.833,892.167 521.833,900.167 529.5,908.5C 503.169,936.165 476.502,963.498 449.5,990.5C 441.167,982.833 433.167,974.833 425.5,966.5C 452.502,939.498 479.169,912.165 505.5,884.5 Z"/></g>
<g><path style="opacity:0.995" fill="#6671f9" d="M 529.5,908.5 C 533.833,912.167 537.833,916.167 541.5,920.5C 515.167,947.833 488.833,975.167 462.5,1002.5C 458.141,998.472 453.807,994.472 449.5,990.5C 476.502,963.498 503.169,936.165 529.5,908.5 Z"/></g>
<g><path style="opacity:0.995" fill="#6472fa" d="M 541.5,920.5 C 547.5,925.833 553.167,931.5 558.5,937.5C 532.167,964.833 505.833,992.167 479.5,1019.5C 473.5,1014.17 467.833,1008.5 462.5,1002.5C 488.833,975.167 515.167,947.833 541.5,920.5 Z"/></g>
<g><path style="opacity:0.992" fill="#6175fa" d="M 558.5,937.5 C 567.133,944.465 575.133,952.132 582.5,960.5C 556.169,988.165 529.502,1015.5 502.5,1042.5C 494.5,1035.17 486.833,1027.5 479.5,1019.5C 505.833,992.167 532.167,964.833 558.5,937.5 Z"/></g>
<g><path style="opacity:0.989" fill="#5f77fa" d="M 582.5,960.5 C 590.167,967.5 597.5,974.833 604.5,982.5C 577.498,1009.5 550.831,1036.84 524.5,1064.5C 516.833,1057.5 509.5,1050.17 502.5,1042.5C 529.502,1015.5 556.169,988.165 582.5,960.5 Z"/></g>
<g><path style="opacity:0.99" fill="#5b7afb" d="M 604.5,982.5 C 615.167,992.5 625.5,1002.83 635.5,1013.5C 609.169,1041.16 582.502,1068.5 555.5,1095.5C 544.833,1085.5 534.5,1075.17 524.5,1064.5C 550.831,1036.84 577.498,1009.5 604.5,982.5 Z"/></g>
<g><path style="opacity:0.99" fill="#587dfc" d="M 635.5,1013.5 C 640.5,1017.83 645.167,1022.5 649.5,1027.5C 623.169,1055.16 596.502,1082.5 569.5,1109.5C 564.5,1105.17 559.833,1100.5 555.5,1095.5C 582.502,1068.5 609.169,1041.16 635.5,1013.5 Z"/></g>
</svg>
