<svg version="1.1" id="Layer_1" xmlns="http://www.w3.org/2000/svg" xmlns:xlink="http://www.w3.org/1999/xlink" x="0px" y="0px"
	 width="100%" viewBox="0 0 200 200" enable-background="new 0 0 200 200" xml:space="preserve">
<path fill="#1C1C1E" opacity="1.000000" stroke="none" 
	d="
M130.000000,201.000000 
	C86.666672,201.000000 43.833340,201.000000 1.000006,201.000000 
	C1.000004,134.333344 1.000004,67.666679 1.000002,1.000015 
	C67.666656,1.000010 134.333313,1.000010 200.999969,1.000005 
	C200.999985,67.666649 200.999985,134.333298 201.000000,200.999969 
	C177.500000,201.000000 154.000000,201.000000 130.000000,201.000000 
M69.892845,75.436737 
	C78.106331,75.436737 86.319817,75.436737 94.527786,75.436737 
	C96.384216,61.594620 104.935959,51.732010 116.853569,51.338024 
	C122.202232,51.161201 128.125015,52.614868 132.923050,55.039127 
	C141.041840,59.141247 144.107605,67.185165 144.971252,75.618477 
	C153.528366,75.618477 161.587341,75.618477 169.636078,75.618477 
	C168.991745,47.997314 147.514755,26.314392 120.863945,26.002750 
	C93.074806,25.677797 70.917007,46.709831 69.892845,75.436737 
M120.130013,158.617386 
	C127.986221,149.299133 132.081360,138.621628 132.248383,125.996490 
	C127.828285,125.996490 123.858604,125.996498 119.888924,125.996498 
	C115.768570,125.996498 111.648216,125.996490 107.628670,125.996490 
	C105.348846,140.776611 96.740746,150.509399 84.720673,150.692352 
	C79.364235,150.773865 73.468513,149.223755 68.703346,146.724960 
	C60.824638,142.593460 57.863102,134.662323 57.035027,126.375694 
	C48.493309,126.375694 40.424622,126.375694 32.143242,126.375694 
	C33.549267,147.879929 43.363861,163.210495 62.819382,172.025909 
	C79.819824,179.728928 103.537201,177.041763 120.130013,158.617386 
M57.283703,110.857124 
	C57.283703,103.454636 57.283703,96.052147 57.283703,88.842468 
	C48.537411,88.842468 40.486984,88.842468 32.444008,88.842468 
	C32.444008,97.147919 32.444008,105.059624 32.444008,113.480331 
	C40.413101,113.480331 48.167183,113.509773 55.919483,113.405945 
	C56.376461,113.399834 56.819069,112.320404 57.283703,110.857124 
M69.714584,96.656693 
	C69.714584,102.121147 69.714584,107.585609 69.714584,113.248840 
	C78.229309,113.248840 86.292854,113.248840 94.421646,113.248840 
	C94.421646,104.904083 94.421646,96.864624 94.421646,88.652786 
	C86.120834,88.652786 78.182739,88.652786 69.714615,88.652786 
	C69.714615,91.123428 69.714615,93.416733 69.714584,96.656693 
M107.215950,103.455063 
	C107.215950,106.708138 107.215950,109.961212 107.215950,113.343521 
	C115.890854,113.343521 123.825829,113.343521 132.022827,113.343521 
	C132.022827,105.065605 132.022827,96.992340 132.022827,88.764252 
	C123.735970,88.764252 115.671173,88.764252 107.215950,88.764252 
	C107.215950,93.538628 107.215950,98.005486 107.215950,103.455063 
M144.714584,103.427399 
	C144.714584,106.707153 144.714584,109.986916 144.714584,113.163071 
	C153.407715,113.163071 161.482132,113.163071 169.519272,113.163071 
	C169.519272,104.840340 169.519272,96.906570 169.519272,88.752579 
	C161.198654,88.752579 153.144440,88.752579 144.714615,88.752579 
	C144.714615,93.516144 144.714615,97.987335 144.714584,103.427399 
z"/>
<path fill="#FDFDFD" opacity="1.000000" stroke="none" 
	d="
M69.838776,74.961777 
	C70.917007,46.709831 93.074806,25.677797 120.863945,26.002750 
	C147.514755,26.314392 168.991745,47.997314 169.636078,75.618477 
	C161.587341,75.618477 153.528366,75.618477 144.971252,75.618477 
	C144.107605,67.185165 141.041840,59.141247 132.923050,55.039127 
	C128.125015,52.614868 122.202232,51.161201 116.853569,51.338024 
	C104.935959,51.732010 96.384216,61.594620 94.527786,75.436737 
	C86.319817,75.436737 78.106331,75.436737 69.838776,74.961777 
z"/>
<path fill="#FDFDFD" opacity="1.000000" stroke="none" 
	d="
M119.910767,158.899292 
	C103.537201,177.041763 79.819824,179.728928 62.819382,172.025909 
	C43.363861,163.210495 33.549267,147.879929 32.143242,126.375694 
	C40.424622,126.375694 48.493309,126.375694 57.035027,126.375694 
	C57.863102,134.662323 60.824638,142.593460 68.703346,146.724960 
	C73.468513,149.223755 79.364235,150.773865 84.720673,150.692352 
	C96.740746,150.509399 105.348846,140.776611 107.628670,125.996490 
	C111.648216,125.996490 115.768570,125.996498 119.888924,125.996498 
	C123.858604,125.996498 127.828285,125.996490 132.248383,125.996490 
	C132.081360,138.621628 127.986221,149.299133 119.910767,158.899292 
z"/>
<path fill="#F4F4F4" opacity="1.000000" stroke="none" 
	d="
M57.276031,111.298782 
	C56.819069,112.320404 56.376461,113.399834 55.919483,113.405945 
	C48.167183,113.509773 40.413101,113.480331 32.444008,113.480331 
	C32.444008,105.059624 32.444008,97.147919 32.444008,88.842468 
	C40.486984,88.842468 48.537411,88.842468 57.283703,88.842468 
	C57.283703,96.052147 57.283703,103.454636 57.276031,111.298782 
z"/>
<path fill="#F4F4F4" opacity="1.000000" stroke="none" 
	d="
M69.714600,96.183365 
	C69.714615,93.416733 69.714615,91.123428 69.714615,88.652786 
	C78.182739,88.652786 86.120834,88.652786 94.421646,88.652786 
	C94.421646,96.864624 94.421646,104.904083 94.421646,113.248840 
	C86.292854,113.248840 78.229309,113.248840 69.714584,113.248840 
	C69.714584,107.585609 69.714584,102.121147 69.714600,96.183365 
z"/>
<path fill="#F4F4F4" opacity="1.000000" stroke="none" 
	d="
M107.215950,102.963707 
	C107.215950,98.005486 107.215950,93.538628 107.215950,88.764252 
	C115.671173,88.764252 123.735970,88.764252 132.022827,88.764252 
	C132.022827,96.992340 132.022827,105.065605 132.022827,113.343521 
	C123.825829,113.343521 115.890854,113.343521 107.215950,113.343521 
	C107.215950,109.961212 107.215950,106.708138 107.215950,102.963707 
z"/>
<path fill="#F4F4F4" opacity="1.000000" stroke="none" 
	d="
M144.714600,102.942963 
	C144.714615,97.987335 144.714615,93.516144 144.714615,88.752579 
	C153.144440,88.752579 161.198654,88.752579 169.519272,88.752579 
	C169.519272,96.906570 169.519272,104.840340 169.519272,113.163071 
	C161.482132,113.163071 153.407715,113.163071 144.714584,113.163071 
	C144.714584,109.986916 144.714584,106.707153 144.714600,102.942963 
z"/>
</svg>