<svg width="82" height="82" viewBox="0 0 82 82" fill="none" xmlns="http://www.w3.org/2000/svg">
<g clip-path="url(#clip0_2052_398)">
<g filter="url(#filter0_ddd_2052_398)">
<path fill-rule="evenodd" clip-rule="evenodd" d="M41 1C18.905 1 1 18.9104 1 41C1 63.0896 18.905 81 41 81C63.0949 81 81 63.0896 81 41C81 18.9104 63.0896 1 41 1ZM54.4367 71.6059C52.0711 66.4488 49.7107 61.2918 47.3451 56.1295C52.7019 53.6587 56.1557 48.2703 56.1557 42.3721C56.1557 34.0556 49.3112 27.2163 40.9999 27.2163C32.6887 27.2163 25.8442 34.0556 25.8442 42.3721C25.8442 48.365 29.3979 53.8164 34.8809 56.2346L28.0101 71.8056C16.366 66.6696 8.82752 55.0938 8.82752 42.3721C8.82752 24.7193 23.3472 10.1944 40.9999 10.1944C58.6527 10.1944 73.1723 24.7193 73.1723 42.3721C73.1723 54.9151 65.8389 66.37 54.4367 71.6059Z" fill="white" fill-opacity="0.5"/>
</g>
</g>
<defs>
<filter id="filter0_ddd_2052_398" x="-3" y="1" width="88" height="88" filterUnits="userSpaceOnUse" color-interpolation-filters="sRGB">
<feFlood flood-opacity="0" result="BackgroundImageFix"/>
<feColorMatrix in="SourceAlpha" type="matrix" values="0 0 0 0 0 0 0 0 0 0 0 0 0 0 0 0 0 0 127 0" result="hardAlpha"/>
<feOffset dy="4"/>
<feGaussianBlur stdDeviation="2"/>
<feComposite in2="hardAlpha" operator="out"/>
<feColorMatrix type="matrix" values="0 0 0 0 0 0 0 0 0 0 0 0 0 0 0 0 0 0 1 0"/>
<feBlend mode="normal" in2="BackgroundImageFix" result="effect1_dropShadow_2052_398"/>
<feColorMatrix in="SourceAlpha" type="matrix" values="0 0 0 0 0 0 0 0 0 0 0 0 0 0 0 0 0 0 127 0" result="hardAlpha"/>
<feOffset dy="4"/>
<feGaussianBlur stdDeviation="2"/>
<feComposite in2="hardAlpha" operator="out"/>
<feColorMatrix type="matrix" values="0 0 0 0 0 0 0 0 0 0 0 0 0 0 0 0 0 0 0.25 0"/>
<feBlend mode="normal" in2="effect1_dropShadow_2052_398" result="effect2_dropShadow_2052_398"/>
<feColorMatrix in="SourceAlpha" type="matrix" values="0 0 0 0 0 0 0 0 0 0 0 0 0 0 0 0 0 0 127 0" result="hardAlpha"/>
<feOffset dy="4"/>
<feGaussianBlur stdDeviation="2"/>
<feComposite in2="hardAlpha" operator="out"/>
<feColorMatrix type="matrix" values="0 0 0 0 0 0 0 0 0 0 0 0 0 0 0 0 0 0 0.25 0"/>
<feBlend mode="normal" in2="effect2_dropShadow_2052_398" result="effect3_dropShadow_2052_398"/>
<feBlend mode="normal" in="SourceGraphic" in2="effect3_dropShadow_2052_398" result="shape"/>
</filter>
<clipPath id="clip0_2052_398">
<rect width="82" height="82" fill="white"/>
</clipPath>
</defs>
</svg>
