<?xml version="1.0" standalone="no"?>
<!DOCTYPE svg PUBLIC "-//W3C//DTD SVG 20010904//EN"
 "http://www.w3.org/TR/2001/REC-SVG-20010904/DTD/svg10.dtd">
<svg version="1.0" xmlns="http://www.w3.org/2000/svg"
 width="400.000000pt" height="400.000000pt" viewBox="0 0 400.000000 400.000000"
 preserveAspectRatio="xMidYMid meet">

<g transform="translate(0.000000,400.000000) scale(0.100000,-0.100000)"
fill="#000000" stroke="none">
<path d="M1930 2961 c-167 -72 -299 -141 -309 -159 -17 -33 -13 -67 12 -90 31
-29 336 -172 368 -172 32 0 357 154 375 178 19 24 17 66 -3 90 -16 19 -308
162 -358 176 -11 3 -49 -7 -85 -23z"/>
<path d="M1340 2586 c-31 -17 -160 -241 -160 -277 0 -33 27 -57 185 -164 125
-85 528 -335 595 -370 18 -9 42 -14 54 -11 30 7 464 274 625 383 153 105 181
129 181 161 0 14 -30 78 -66 144 -70 125 -102 156 -149 144 -13 -3 -146 -65
-296 -137 -151 -72 -288 -131 -305 -132 -20 0 -124 44 -309 132 -154 73 -291
134 -305 137 -14 2 -36 -2 -50 -10z"/>
<path d="M1478 1800 c-9 -6 -37 -43 -62 -83 -58 -92 -59 -122 -10 -177 91
-101 528 -506 556 -516 49 -17 95 -1 152 53 157 149 294 280 399 382 143 139
145 146 68 263 -80 123 -86 122 -341 -37 -111 -69 -211 -127 -224 -131 -30 -7
-49 3 -272 143 -185 115 -221 129 -266 103z"/>
</g>
</svg>
