<svg version="1.1" id="Layer_1" xmlns="http://www.w3.org/2000/svg" xmlns:xlink="http://www.w3.org/1999/xlink" x="0px" y="0px"
	 width="100%" viewBox="0 0 800 800" enable-background="new 0 0 800 800" xml:space="preserve">
<path fill="#F7931A" opacity="1.000000" stroke="none" 
	d="
M361.000000,1.000001 
	C387.354218,1.000000 413.708466,1.000000 440.340271,1.401665 
	C441.298340,2.194603 441.940582,2.826306 442.664948,2.941425 
	C455.533234,4.986573 468.453613,6.731657 481.279327,9.011066 
	C514.543213,14.922787 546.006287,26.348885 576.417908,40.817204 
	C595.355957,49.826942 613.580444,60.180943 630.288269,72.849731 
	C646.021301,84.779266 661.391052,97.232628 676.357666,110.109795 
	C684.222900,116.876976 691.286560,124.704453 697.994873,132.658157 
	C708.707031,145.358994 719.242065,158.254486 729.084595,171.632233 
	C742.158325,189.401657 753.243042,208.441620 762.240295,228.633850 
	C766.858093,238.997299 771.842285,249.229248 775.842285,259.829498 
	C783.856812,281.068146 790.245361,302.823242 794.051453,325.248627 
	C795.903015,336.158020 797.321838,347.140503 799.067444,358.069000 
	C799.235657,359.122009 800.333618,360.026550 801.000000,361.000000 
	C801.000000,387.020905 801.000000,413.041779 800.634155,439.231049 
	C799.857666,440.082123 799.178223,440.727600 799.077698,441.453308 
	C798.002319,449.219421 797.514343,457.102142 795.910828,464.752869 
	C792.024780,483.294739 788.571045,502.007050 783.230103,520.146240 
	C774.332886,550.363342 761.341797,578.902100 745.106873,606.013855 
	C730.361023,630.638855 713.218994,653.391113 693.904724,674.511414 
	C678.407532,691.457764 661.156128,706.629089 642.901672,720.482117 
	C623.484680,735.217224 602.791992,748.186157 580.870667,758.902771 
	C567.687439,765.347595 553.912048,770.589844 540.356995,776.263062 
	C520.692444,784.493286 500.035614,789.457275 479.290527,793.838501 
	C467.346680,796.361023 455.072021,797.308105 442.963531,799.081848 
	C442.231110,799.189209 441.651001,800.336609 441.000000,801.000000 
	C414.979095,801.000000 388.958221,801.000000 362.767212,800.631226 
	C361.913361,799.853882 361.269379,799.187256 360.539978,799.074829 
	C347.182373,797.015503 333.753479,795.359070 320.460815,792.949341 
	C287.376465,786.951538 255.960205,775.764221 225.724869,761.240479 
	C206.824173,752.161316 188.480713,741.968323 171.791824,729.224060 
	C156.103287,717.243774 140.691177,704.857849 125.734810,691.979919 
	C117.742813,685.098572 110.833870,676.925842 103.686462,669.107117 
	C97.048660,661.845764 90.238708,654.655273 84.387421,646.777832 
	C67.556610,624.119080 52.085510,600.562012 40.371487,574.761475 
	C35.420803,563.857361 30.409481,552.954163 26.108677,541.787476 
	C17.991417,520.711670 11.776649,499.043243 7.952252,476.755737 
	C6.080786,465.849396 4.677963,454.863098 2.932148,443.933899 
	C2.763789,442.879944 1.666217,441.974426 0.999999,441.000000 
	C1.000000,414.979095 1.000000,388.958221 1.368121,362.762909 
	C2.156112,361.572937 2.827698,360.588165 2.956220,359.536987 
	C4.027899,350.771515 4.327606,341.851929 6.143425,333.249725 
	C9.754236,316.144012 13.451118,298.992828 18.439482,282.255951 
	C26.596611,254.887283 37.947334,228.700363 52.066833,203.878860 
	C67.414597,176.898132 85.233894,151.466476 106.763557,129.093933 
	C121.934135,113.329422 138.131012,98.350464 155.173386,84.641479 
	C175.545364,68.254150 197.843552,54.393059 221.476166,43.029499 
	C235.455963,36.307426 249.607956,29.697405 264.234222,24.629221 
	C281.812866,18.538008 299.820068,13.463300 317.941223,9.230835 
	C331.384766,6.090900 345.310059,5.022392 359.003632,2.919790 
	C359.749786,2.805225 360.338165,1.663563 361.000000,1.000001 
M304.412048,197.044907 
	C295.756439,194.912888 287.100800,192.780869 278.078888,190.558624 
	C274.134247,206.455566 270.345764,221.723038 266.511627,237.174622 
	C268.035034,237.612244 268.963501,237.898865 269.902435,238.145676 
	C280.835236,241.019531 291.940460,243.367584 302.659729,246.890381 
	C315.624390,251.151062 321.019989,261.877563 317.783081,274.865021 
	C302.132477,337.660706 286.473511,400.454315 270.818024,463.248779 
	C267.333801,477.223999 260.705536,481.440674 246.763443,478.219055 
	C237.069275,475.979004 227.447189,473.427002 217.440582,470.926361 
	C210.203415,487.626404 203.046356,504.141602 195.752197,520.973145 
	C225.546402,528.492981 254.680191,535.846130 284.093323,543.269775 
	C277.992584,567.821777 272.028259,591.824951 265.955627,616.263855 
	C280.617401,619.928223 294.917816,623.502319 309.730621,627.204407 
	C315.747559,603.188049 321.707947,579.397400 327.778198,555.168274 
	C339.647675,558.245056 350.987030,561.184448 362.679504,564.215332 
	C356.673981,588.370422 350.795532,612.014343 344.846008,635.944153 
	C359.704559,639.648254 374.008301,643.214050 388.662811,646.867249 
	C394.803680,622.390625 400.849518,598.292725 406.912537,574.126282 
	C430.344696,578.455017 453.109100,581.484497 476.210846,579.978577 
	C508.169922,577.895264 534.521973,565.786621 551.389221,537.167419 
	C559.067810,524.138855 564.249573,510.106323 566.976868,495.269836 
	C573.614441,459.161804 562.297974,433.722290 531.177490,414.102051 
	C528.266357,412.266663 525.294495,410.527618 522.230835,408.671173 
	C527.463806,406.721924 532.446716,405.274231 537.047180,403.039276 
	C541.807495,400.726654 546.538940,398.087799 550.694397,394.838715 
	C586.164307,367.105469 587.422668,307.472565 553.230225,277.049652 
	C535.996277,261.715698 515.385986,252.443008 493.935883,244.847427 
	C490.353607,243.578934 489.513062,242.138885 490.487640,238.366867 
	C495.939056,217.267593 501.091064,196.090927 506.328461,174.936508 
	C506.633698,173.703506 506.791107,172.433914 507.072083,170.878098 
	C492.406555,167.240204 478.103851,163.692307 463.505920,160.071167 
	C457.583313,183.724457 451.784790,206.882217 445.950012,230.184799 
	C433.882019,227.316513 422.455353,224.600662 410.870209,221.847137 
	C416.774536,198.107056 422.542725,174.914520 428.421692,151.276505 
	C413.607483,147.597305 399.312134,144.046967 384.604736,140.394287 
	C378.531250,164.636017 372.604889,188.290359 366.505005,212.637436 
	C345.797119,207.423813 325.508972,202.315872 304.412048,197.044907 
z"/>
<path fill="#000000" opacity="1.000000" stroke="none" 
	d="
M441.468689,801.000000 
	C441.651001,800.336609 442.231110,799.189209 442.963531,799.081848 
	C455.072021,797.308105 467.346680,796.361023 479.290527,793.838501 
	C500.035614,789.457275 520.692444,784.493286 540.356995,776.263062 
	C553.912048,770.589844 567.687439,765.347595 580.870667,758.902771 
	C602.791992,748.186157 623.484680,735.217224 642.901672,720.482117 
	C661.156128,706.629089 678.407532,691.457764 693.904724,674.511414 
	C713.218994,653.391113 730.361023,630.638855 745.106873,606.013855 
	C761.341797,578.902100 774.332886,550.363342 783.230103,520.146240 
	C788.571045,502.007050 792.024780,483.294739 795.910828,464.752869 
	C797.514343,457.102142 798.002319,449.219421 799.077698,441.453308 
	C799.178223,440.727600 799.857666,440.082123 800.634155,439.699707 
	C801.000000,560.260315 801.000000,680.520569 801.000000,801.000000 
	C681.312500,801.000000 561.624939,801.000000 441.468689,801.000000 
z"/>
<path fill="#000000" opacity="1.000000" stroke="none" 
	d="
M360.531342,1.000001 
	C360.338165,1.663563 359.749786,2.805225 359.003632,2.919790 
	C345.310059,5.022392 331.384766,6.090900 317.941223,9.230835 
	C299.820068,13.463300 281.812866,18.538008 264.234222,24.629221 
	C249.607956,29.697405 235.455963,36.307426 221.476166,43.029499 
	C197.843552,54.393059 175.545364,68.254150 155.173386,84.641479 
	C138.131012,98.350464 121.934135,113.329422 106.763557,129.093933 
	C85.233894,151.466476 67.414597,176.898132 52.066833,203.878860 
	C37.947334,228.700363 26.596611,254.887283 18.439482,282.255951 
	C13.451118,298.992828 9.754236,316.144012 6.143425,333.249725 
	C4.327606,341.851929 4.027899,350.771515 2.956220,359.536987 
	C2.827698,360.588165 2.156112,361.572937 1.368121,362.294250 
	C1.000000,241.739700 1.000000,121.479393 1.000000,1.000000 
	C120.687469,1.000000 240.375076,1.000000 360.531342,1.000001 
z"/>
<path fill="#000000" opacity="1.000000" stroke="none" 
	d="
M0.999999,441.468658 
	C1.666217,441.974426 2.763789,442.879944 2.932148,443.933899 
	C4.677963,454.863098 6.080786,465.849396 7.952252,476.755737 
	C11.776649,499.043243 17.991417,520.711670 26.108677,541.787476 
	C30.409481,552.954163 35.420803,563.857361 40.371487,574.761475 
	C52.085510,600.562012 67.556610,624.119080 84.387421,646.777832 
	C90.238708,654.655273 97.048660,661.845764 103.686462,669.107117 
	C110.833870,676.925842 117.742813,685.098572 125.734810,691.979919 
	C140.691177,704.857849 156.103287,717.243774 171.791824,729.224060 
	C188.480713,741.968323 206.824173,752.161316 225.724869,761.240479 
	C255.960205,775.764221 287.376465,786.951538 320.460815,792.949341 
	C333.753479,795.359070 347.182373,797.015503 360.539978,799.074829 
	C361.269379,799.187256 361.913361,799.853882 362.298553,800.631226 
	C241.739700,801.000000 121.479393,801.000000 1.000000,801.000000 
	C1.000000,681.312500 1.000000,561.624939 0.999999,441.468658 
z"/>
<path fill="#000000" opacity="1.000000" stroke="none" 
	d="
M801.000000,360.531372 
	C800.333618,360.026550 799.235657,359.122009 799.067444,358.069000 
	C797.321838,347.140503 795.903015,336.158020 794.051453,325.248627 
	C790.245361,302.823242 783.856812,281.068146 775.842285,259.829498 
	C771.842285,249.229248 766.858093,238.997299 762.240295,228.633850 
	C753.243042,208.441620 742.158325,189.401657 729.084595,171.632233 
	C719.242065,158.254486 708.707031,145.358994 697.994873,132.658157 
	C691.286560,124.704453 684.222900,116.876976 676.357666,110.109795 
	C661.391052,97.232628 646.021301,84.779266 630.288269,72.849731 
	C613.580444,60.180943 595.355957,49.826942 576.417908,40.817204 
	C546.006287,26.348885 514.543213,14.922787 481.279327,9.011066 
	C468.453613,6.731657 455.533234,4.986573 442.664948,2.941425 
	C441.940582,2.826306 441.298340,2.194603 440.808929,1.401665 
	C560.927063,1.000000 680.854065,1.000000 801.000000,1.000000 
	C801.000000,120.687469 801.000000,240.375076 801.000000,360.531372 
z"/>
<path fill="#FFFFFE" opacity="1.000000" stroke="none" 
	d="
M304.816406,197.126404 
	C325.508972,202.315872 345.797119,207.423813 366.505005,212.637436 
	C372.604889,188.290359 378.531250,164.636017 384.604736,140.394287 
	C399.312134,144.046967 413.607483,147.597305 428.421692,151.276505 
	C422.542725,174.914520 416.774536,198.107056 410.870209,221.847137 
	C422.455353,224.600662 433.882019,227.316513 445.950012,230.184799 
	C451.784790,206.882217 457.583313,183.724457 463.505920,160.071167 
	C478.103851,163.692307 492.406555,167.240204 507.072083,170.878098 
	C506.791107,172.433914 506.633698,173.703506 506.328461,174.936508 
	C501.091064,196.090927 495.939056,217.267593 490.487640,238.366867 
	C489.513062,242.138885 490.353607,243.578934 493.935883,244.847427 
	C515.385986,252.443008 535.996277,261.715698 553.230225,277.049652 
	C587.422668,307.472565 586.164307,367.105469 550.694397,394.838715 
	C546.538940,398.087799 541.807495,400.726654 537.047180,403.039276 
	C532.446716,405.274231 527.463806,406.721924 522.230835,408.671173 
	C525.294495,410.527618 528.266357,412.266663 531.177490,414.102051 
	C562.297974,433.722290 573.614441,459.161804 566.976868,495.269836 
	C564.249573,510.106323 559.067810,524.138855 551.389221,537.167419 
	C534.521973,565.786621 508.169922,577.895264 476.210846,579.978577 
	C453.109100,581.484497 430.344696,578.455017 406.912537,574.126282 
	C400.849518,598.292725 394.803680,622.390625 388.662811,646.867249 
	C374.008301,643.214050 359.704559,639.648254 344.846008,635.944153 
	C350.795532,612.014343 356.673981,588.370422 362.679504,564.215332 
	C350.987030,561.184448 339.647675,558.245056 327.778198,555.168274 
	C321.707947,579.397400 315.747559,603.188049 309.730621,627.204407 
	C294.917816,623.502319 280.617401,619.928223 265.955627,616.263855 
	C272.028259,591.824951 277.992584,567.821777 284.093323,543.269775 
	C254.680191,535.846130 225.546402,528.492981 195.752197,520.973145 
	C203.046356,504.141602 210.203415,487.626404 217.440582,470.926361 
	C227.447189,473.427002 237.069275,475.979004 246.763443,478.219055 
	C260.705536,481.440674 267.333801,477.223999 270.818024,463.248779 
	C286.473511,400.454315 302.132477,337.660706 317.783081,274.865021 
	C321.019989,261.877563 315.624390,251.151062 302.659729,246.890381 
	C291.940460,243.367584 280.835236,241.019531 269.902435,238.145676 
	C268.963501,237.898865 268.035034,237.612244 266.511627,237.174622 
	C270.345764,221.723038 274.134247,206.455566 278.078888,190.558624 
	C287.100800,192.780869 295.756439,194.912888 304.816406,197.126404 
M478.410339,474.473541 
	C478.689880,458.406036 470.681091,446.444000 457.938416,438.325012 
	C446.963348,431.332214 435.070923,425.206879 422.802612,420.950592 
	C404.514252,414.605774 385.538696,410.241730 366.317505,404.884949 
	C358.046326,438.049347 350.071808,470.024292 342.019470,502.311340 
	C351.995819,504.843658 361.275879,507.422943 370.660797,509.536316 
	C392.291992,514.407471 413.988281,518.508423 436.402496,516.088867 
	C461.760773,513.351501 476.407288,499.357880 478.410339,474.473541 
M491.999542,332.507416 
	C491.890503,316.450104 482.901520,305.817352 470.237061,297.748138 
	C448.601562,283.963104 423.809784,279.526001 398.983765,273.833588 
	C391.662598,303.230682 384.455109,332.171356 377.175476,361.401642 
	C384.112579,363.221649 390.342987,364.945679 396.618591,366.485565 
	C414.285797,370.820709 432.072784,374.105804 450.420624,373.019714 
	C475.682617,371.524353 490.843048,357.165039 491.999542,332.507416 
z"/>
<path fill="#F7941B" opacity="1.000000" stroke="none" 
	d="
M478.379456,474.949158 
	C476.407288,499.357880 461.760773,513.351501 436.402496,516.088867 
	C413.988281,518.508423 392.291992,514.407471 370.660797,509.536316 
	C361.275879,507.422943 351.995819,504.843658 342.019470,502.311340 
	C350.071808,470.024292 358.046326,438.049347 366.317505,404.884949 
	C385.538696,410.241730 404.514252,414.605774 422.802612,420.950592 
	C435.070923,425.206879 446.963348,431.332214 457.938416,438.325012 
	C470.681091,446.444000 478.689880,458.406036 478.379456,474.949158 
z"/>
<path fill="#F7931B" opacity="1.000000" stroke="none" 
	d="
M491.999084,332.965515 
	C490.843048,357.165039 475.682617,371.524353 450.420624,373.019714 
	C432.072784,374.105804 414.285797,370.820709 396.618591,366.485565 
	C390.342987,364.945679 384.112579,363.221649 377.175476,361.401642 
	C384.455109,332.171356 391.662598,303.230682 398.983765,273.833588 
	C423.809784,279.526001 448.601562,283.963104 470.237061,297.748138 
	C482.901520,305.817352 491.890503,316.450104 491.999084,332.965515 
z"/>
</svg>